# Blender 4.2.0 Alpha
# www.blender.org
mtllib gantry1_middlepart.mtl
o 贝塞尔曲线.005
v 0.060000 -0.500000 -0.297265
v 0.051213 -0.478787 -0.297265
v 0.030000 -0.470000 -0.297265
v -0.030000 -0.470000 -0.297265
v -0.051213 -0.478787 -0.297265
v -0.060000 -0.500000 -0.297265
v -0.051213 -0.521213 -0.297265
v -0.030000 -0.530000 -0.297265
v 0.030000 -0.530000 -0.297265
v 0.051213 -0.521213 -0.297265
v 0.060000 -0.500000 0.297265
v 0.051213 -0.478787 0.297265
v 0.030000 -0.470000 0.297265
v -0.030000 -0.470000 0.297265
v -0.051213 -0.478787 0.297265
v -0.060000 -0.500000 0.297265
v -0.051213 -0.521213 0.297265
v -0.030000 -0.530000 0.297265
v 0.030000 -0.530000 0.297265
v 0.051213 -0.521213 0.297265
vn 1.0000 -0.0000 -0.0000
vn 0.7071 0.7071 -0.0000
vn 0.1951 0.9808 -0.0000
vn -0.1951 0.9808 -0.0000
vn -0.7071 0.7071 -0.0000
vn -1.0000 -0.0000 -0.0000
vn -0.7071 -0.7071 -0.0000
vn -0.1951 -0.9808 -0.0000
vn 0.1951 -0.9808 -0.0000
vn 0.7071 -0.7071 -0.0000
vt 0.000000 1.000000
vt 1.000000 1.000000
vt 1.000000 0.900000
vt 0.000000 0.900000
vt 0.000000 0.100000
vt 1.000000 0.100000
vt 1.000000 0.000000
vt 0.000000 0.000000
vt 0.000000 0.200000
vt 1.000000 0.200000
vt 0.000000 0.300000
vt 1.000000 0.300000
vt 0.000000 0.400000
vt 1.000000 0.400000
vt 0.000000 0.500000
vt 1.000000 0.500000
vt 0.000000 0.600000
vt 1.000000 0.600000
vt 0.000000 0.700000
vt 1.000000 0.700000
vt 0.000000 0.800000
vt 1.000000 0.800000
s 1
usemtl iron1
f 1/1/1 11/2/1 20/3/10 10/4/10
f 2/5/2 12/6/2 11/7/1 1/8/1
f 3/9/3 13/10/3 12/6/2 2/5/2
f 4/11/4 14/12/4 13/10/3 3/9/3
f 5/13/5 15/14/5 14/12/4 4/11/4
f 6/15/6 16/16/6 15/14/5 5/13/5
f 7/17/7 17/18/7 16/16/6 6/15/6
f 8/19/8 18/20/8 17/18/7 7/17/7
f 9/21/9 19/22/9 18/20/8 8/19/8
f 10/4/10 20/3/10 19/22/9 9/21/9
o 贝塞尔曲线.005
v 0.060000 -0.500000 -0.297265
v 0.051213 -0.478787 -0.297265
v 0.030000 -0.470000 -0.297265
v -0.030000 -0.470000 -0.297265
v -0.051213 -0.478787 -0.297265
v -0.060000 -0.500000 -0.297265
v -0.051213 -0.521213 -0.297265
v -0.030000 -0.530000 -0.297265
v 0.030000 -0.530000 -0.297265
v 0.051213 -0.521213 -0.297265
v 0.060000 -0.500000 0.297265
v 0.051213 -0.478787 0.297265
v 0.030000 -0.470000 0.297265
v -0.030000 -0.470000 0.297265
v -0.051213 -0.478787 0.297265
v -0.060000 -0.500000 0.297265
v -0.051213 -0.521213 0.297265
v -0.030000 -0.530000 0.297265
v 0.030000 -0.530000 0.297265
v 0.051213 -0.521213 0.297265
vn 1.0000 -0.0000 -0.0000
vn 0.7071 0.7071 -0.0000
vn 0.1951 0.9808 -0.0000
vn -0.1951 0.9808 -0.0000
vn -0.7071 0.7071 -0.0000
vn -1.0000 -0.0000 -0.0000
vn -0.7071 -0.7071 -0.0000
vn -0.1951 -0.9808 -0.0000
vn 0.1951 -0.9808 -0.0000
vn 0.7071 -0.7071 -0.0000
vt 1.000000 1.000000
vt 0.000000 0.900000
vt 0.000000 1.000000
vt 1.000000 0.100000
vt 0.000000 0.000000
vt 0.000000 0.100000
vt 1.000000 0.200000
vt 0.000000 0.200000
vt 1.000000 0.300000
vt 0.000000 0.300000
vt 1.000000 0.400000
vt 0.000000 0.400000
vt 1.000000 0.500000
vt 0.000000 0.500000
vt 1.000000 0.600000
vt 0.000000 0.600000
vt 1.000000 0.700000
vt 0.000000 0.700000
vt 1.000000 0.800000
vt 0.000000 0.800000
vt 1.000000 0.900000
vt 1.000000 0.000000
s 1
usemtl iron1
f 31/23/11 30/24/20 21/25/11
f 32/26/12 21/27/11 22/28/12
f 33/29/13 22/28/12 23/30/13
f 34/31/14 23/30/13 24/32/14
f 35/33/15 24/32/14 25/34/15
f 36/35/16 25/34/15 26/36/16
f 37/37/17 26/36/16 27/38/17
f 38/39/18 27/38/17 28/40/18
f 39/41/19 28/40/18 29/42/19
f 40/43/20 29/42/19 30/24/20
f 31/23/11 40/43/20 30/24/20
f 32/26/12 31/44/11 21/27/11
f 33/29/13 32/26/12 22/28/12
f 34/31/14 33/29/13 23/30/13
f 35/33/15 34/31/14 24/32/14
f 36/35/16 35/33/15 25/34/15
f 37/37/17 36/35/16 26/36/16
f 38/39/18 37/37/17 27/38/17
f 39/41/19 38/39/18 28/40/18
f 40/43/20 39/41/19 29/42/19
o 贝塞尔曲线.006
v 0.060000 -0.500000 -0.297265
v 0.051213 -0.490063 -0.316007
v 0.030000 -0.485947 -0.323770
v -0.030000 -0.485947 -0.323770
v -0.051213 -0.490063 -0.316007
v -0.060000 -0.500000 -0.297265
v -0.051213 -0.509937 -0.278523
v -0.030000 -0.514053 -0.270760
v 0.030000 -0.514053 -0.270760
v 0.051213 -0.509937 -0.278523
v 0.060000 0.060650 0.000000
v 0.051213 0.070587 -0.018742
v 0.030000 0.074703 -0.026505
v -0.030000 0.074703 -0.026505
v -0.051213 0.070587 -0.018742
v -0.060000 0.060650 -0.000000
v -0.051213 0.050713 0.018742
v -0.030000 0.046597 0.026505
v 0.030000 0.046597 0.026505
v 0.051213 0.050713 0.018742
vn 1.0000 -0.0000 -0.0000
vn 0.7071 0.3312 -0.6247
vn 0.1951 0.4594 -0.8665
vn -0.1951 0.4594 -0.8665
vn -0.7071 0.3312 -0.6247
vn -1.0000 -0.0000 -0.0000
vn -0.7071 -0.3312 0.6247
vn -0.1951 -0.4594 0.8665
vn 0.1951 -0.4594 0.8665
vn 0.7071 -0.3312 0.6247
vt 0.000000 1.000000
vt 1.000000 1.000000
vt 1.000000 0.900000
vt 0.000000 0.900000
vt 0.000000 0.100000
vt 1.000000 0.100000
vt 1.000000 0.000000
vt 0.000000 0.000000
vt 0.000000 0.200000
vt 1.000000 0.200000
vt 0.000000 0.300000
vt 1.000000 0.300000
vt 0.000000 0.400000
vt 1.000000 0.400000
vt 0.000000 0.500000
vt 1.000000 0.500000
vt 0.000000 0.600000
vt 1.000000 0.600000
vt 0.000000 0.700000
vt 1.000000 0.700000
vt 0.000000 0.800000
vt 1.000000 0.800000
s 1
usemtl iron1
f 41/45/21 51/46/21 60/47/30 50/48/30
f 42/49/22 52/50/22 51/51/21 41/52/21
f 43/53/23 53/54/23 52/50/22 42/49/22
f 44/55/24 54/56/24 53/54/23 43/53/23
f 45/57/25 55/58/25 54/56/24 44/55/24
f 46/59/26 56/60/26 55/58/25 45/57/25
f 47/61/27 57/62/27 56/60/26 46/59/26
f 48/63/28 58/64/28 57/62/27 47/61/27
f 49/65/29 59/66/29 58/64/28 48/63/28
f 50/48/30 60/47/30 59/66/29 49/65/29
o 贝塞尔曲线.006
v 0.060000 -0.500000 -0.297265
v 0.051213 -0.490063 -0.316007
v 0.030000 -0.485947 -0.323770
v -0.030000 -0.485947 -0.323770
v -0.051213 -0.490063 -0.316007
v -0.060000 -0.500000 -0.297265
v -0.051213 -0.509937 -0.278523
v -0.030000 -0.514053 -0.270760
v 0.030000 -0.514053 -0.270760
v 0.051213 -0.509937 -0.278523
v 0.060000 0.060650 0.000000
v 0.051213 0.070587 -0.018742
v 0.030000 0.074703 -0.026505
v -0.030000 0.074703 -0.026505
v -0.051213 0.070587 -0.018742
v -0.060000 0.060650 -0.000000
v -0.051213 0.050713 0.018742
v -0.030000 0.046597 0.026505
v 0.030000 0.046597 0.026505
v 0.051213 0.050713 0.018742
vn 1.0000 -0.0000 -0.0000
vn 0.7071 0.3312 -0.6247
vn 0.1951 0.4594 -0.8665
vn -0.1951 0.4594 -0.8665
vn -0.7071 0.3312 -0.6247
vn -1.0000 -0.0000 -0.0000
vn -0.7071 -0.3312 0.6247
vn -0.1951 -0.4594 0.8665
vn 0.1951 -0.4594 0.8665
vn 0.7071 -0.3312 0.6247
vt 1.000000 1.000000
vt 0.000000 0.900000
vt 0.000000 1.000000
vt 1.000000 0.100000
vt 0.000000 0.000000
vt 0.000000 0.100000
vt 1.000000 0.200000
vt 0.000000 0.200000
vt 1.000000 0.300000
vt 0.000000 0.300000
vt 0.000000 0.400000
vt 0.000000 0.500000
vt 1.000000 0.400000
vt 1.000000 0.600000
vt 0.000000 0.600000
vt 0.000000 0.700000
vt 1.000000 0.800000
vt 0.000000 0.800000
vt 1.000000 0.900000
vt 1.000000 0.000000
vt 1.000000 0.500000
vt 1.000000 0.700000
s 1
usemtl iron1
f 71/67/31 70/68/40 61/69/31
f 72/70/32 61/71/31 62/72/32
f 73/73/33 62/72/32 63/74/33
f 74/75/34 63/74/33 64/76/34
f 65/77/35 74/75/34 64/76/34
f 66/78/36 75/79/35 65/77/35
f 77/80/37 66/78/36 67/81/37
f 68/82/38 77/80/37 67/81/37
f 79/83/39 68/82/38 69/84/39
f 80/85/40 69/84/39 70/68/40
f 71/67/31 80/85/40 70/68/40
f 72/70/32 71/86/31 61/71/31
f 73/73/33 72/70/32 62/72/32
f 74/75/34 73/73/33 63/74/33
f 65/77/35 75/79/35 74/75/34
f 66/78/36 76/87/36 75/79/35
f 77/80/37 76/87/36 66/78/36
f 68/82/38 78/88/38 77/80/37
f 79/83/39 78/88/38 68/82/38
f 80/85/40 79/83/39 69/84/39
o 贝塞尔曲线.007
v 0.060000 -0.500000 0.297265
v 0.051213 -0.490063 0.316007
v 0.030000 -0.485947 0.323770
v -0.030000 -0.485947 0.323770
v -0.051213 -0.490063 0.316007
v -0.060000 -0.500000 0.297265
v -0.051213 -0.509937 0.278523
v -0.030000 -0.514053 0.270760
v 0.030000 -0.514053 0.270760
v 0.051213 -0.509937 0.278523
v 0.060000 0.060650 0.000000
v 0.051213 0.070587 0.018742
v 0.030000 0.074703 0.026505
v -0.030000 0.074703 0.026505
v -0.051213 0.070587 0.018742
v -0.060000 0.060650 -0.000000
v -0.051213 0.050713 -0.018742
v -0.030000 0.046597 -0.026505
v 0.030000 0.046597 -0.026505
v 0.051213 0.050713 -0.018742
vn 1.0000 -0.0000 -0.0000
vn 0.7071 0.3312 0.6247
vn 0.1951 0.4594 0.8665
vn -0.1951 0.4594 0.8665
vn -0.7071 0.3312 0.6247
vn -1.0000 -0.0000 -0.0000
vn -0.7071 -0.3312 -0.6247
vn -0.1951 -0.4594 -0.8665
vn 0.1951 -0.4594 -0.8665
vn 0.7071 -0.3312 -0.6247
vt 0.000000 1.000000
vt 1.000000 1.000000
vt 1.000000 0.900000
vt 0.000000 0.900000
vt 0.000000 0.100000
vt 1.000000 0.100000
vt 1.000000 0.000000
vt 0.000000 0.000000
vt 0.000000 0.200000
vt 1.000000 0.200000
vt 0.000000 0.300000
vt 1.000000 0.300000
vt 0.000000 0.400000
vt 1.000000 0.400000
vt 0.000000 0.500000
vt 1.000000 0.500000
vt 0.000000 0.600000
vt 1.000000 0.600000
vt 0.000000 0.700000
vt 1.000000 0.700000
vt 0.000000 0.800000
vt 1.000000 0.800000
s 1
usemtl iron1
f 81/89/41 90/92/50 100/91/50 91/90/41
f 82/93/42 81/96/41 91/95/41 92/94/42
f 83/97/43 82/93/42 92/94/42 93/98/43
f 84/99/44 83/97/43 93/98/43 94/100/44
f 85/101/45 84/99/44 94/100/44 95/102/45
f 86/103/46 85/101/45 95/102/45 96/104/46
f 87/105/47 86/103/46 96/104/46 97/106/47
f 88/107/48 87/105/47 97/106/47 98/108/48
f 89/109/49 88/107/48 98/108/48 99/110/49
f 90/92/50 89/109/49 99/110/49 100/91/50
o 贝塞尔曲线.007
v 0.060000 -0.500000 0.297265
v 0.051213 -0.490063 0.316007
v 0.030000 -0.485947 0.323770
v -0.030000 -0.485947 0.323770
v -0.051213 -0.490063 0.316007
v -0.060000 -0.500000 0.297265
v -0.051213 -0.509937 0.278523
v -0.030000 -0.514053 0.270760
v 0.030000 -0.514053 0.270760
v 0.051213 -0.509937 0.278523
v 0.060000 0.060650 0.000000
v 0.051213 0.070587 0.018742
v 0.030000 0.074703 0.026505
v -0.030000 0.074703 0.026505
v -0.051213 0.070587 0.018742
v -0.060000 0.060650 -0.000000
v -0.051213 0.050713 -0.018742
v -0.030000 0.046597 -0.026505
v 0.030000 0.046597 -0.026505
v 0.051213 0.050713 -0.018742
vn 1.0000 -0.0000 -0.0000
vn 0.7071 0.3312 0.6247
vn 0.1951 0.4594 0.8665
vn -0.1951 0.4594 0.8665
vn -0.7071 0.3312 0.6247
vn -1.0000 -0.0000 -0.0000
vn -0.7071 -0.3312 -0.6247
vn -0.1951 -0.4594 -0.8665
vn 0.1951 -0.4594 -0.8665
vn 0.7071 -0.3312 -0.6247
vt 1.000000 1.000000
vt 0.000000 0.900000
vt 0.000000 1.000000
vt 1.000000 0.100000
vt 0.000000 0.000000
vt 0.000000 0.100000
vt 1.000000 0.200000
vt 0.000000 0.200000
vt 1.000000 0.300000
vt 0.000000 0.300000
vt 0.000000 0.400000
vt 0.000000 0.500000
vt 1.000000 0.400000
vt 1.000000 0.600000
vt 0.000000 0.600000
vt 0.000000 0.700000
vt 1.000000 0.800000
vt 0.000000 0.800000
vt 1.000000 0.900000
vt 1.000000 0.000000
vt 1.000000 0.500000
vt 1.000000 0.700000
s 1
usemtl iron1
f 111/111/51 101/113/51 110/112/60
f 112/114/52 102/116/52 101/115/51
f 113/117/53 103/118/53 102/116/52
f 114/119/54 104/120/54 103/118/53
f 105/121/55 104/120/54 114/119/54
f 106/122/56 105/121/55 115/123/55
f 117/124/57 107/125/57 106/122/56
f 108/126/58 107/125/57 117/124/57
f 119/127/59 109/128/59 108/126/58
f 120/129/60 110/112/60 109/128/59
f 111/111/51 110/112/60 120/129/60
f 112/114/52 101/115/51 111/130/51
f 113/117/53 102/116/52 112/114/52
f 114/119/54 103/118/53 113/117/53
f 105/121/55 114/119/54 115/123/55
f 106/122/56 115/123/55 116/131/56
f 117/124/57 106/122/56 116/131/56
f 108/126/58 117/124/57 118/132/58
f 119/127/59 108/126/58 118/132/58
f 120/129/60 109/128/59 119/127/59
o 贝塞尔曲线.002
v 0.500000 -0.448038 -0.355000
v 0.500000 -0.448038 -0.295000
v 0.500000 -0.500000 -0.265000
v 0.500000 -0.551961 -0.295000
v 0.500000 -0.551961 -0.355000
v 0.500000 -0.500000 -0.385000
v -0.500000 -0.448038 -0.355000
v -0.500000 -0.448038 -0.295000
v -0.500000 -0.500000 -0.265000
v -0.500000 -0.551961 -0.295000
v -0.500000 -0.551961 -0.355000
v -0.500000 -0.500000 -0.385000
v -0.500000 -0.448038 -0.355000
v -0.500000 -0.448038 -0.295000
v -0.500000 -0.500000 -0.265000
v -0.500000 -0.551961 -0.295000
v -0.500000 -0.551961 -0.355000
v -0.500000 -0.500000 -0.385000
v 0.500000 -0.448038 -0.355000
v 0.500000 -0.448038 -0.295000
v 0.500000 -0.500000 -0.265000
v 0.500000 -0.551961 -0.295000
v 0.500000 -0.551961 -0.355000
v 0.500000 -0.500000 -0.385000
vn 1.0000 -0.0000 -0.0000
vn -1.0000 -0.0000 -0.0000
vn -0.0000 0.8660 -0.5000
vn -0.0000 0.8660 0.5000
vn -0.0000 -0.0000 1.0000
vn -0.0000 -0.8660 0.5000
vn -0.0000 -0.8660 -0.5000
vn -0.0000 -0.0000 -1.0000
vt 1.000000 0.000000
vt 0.600000 0.000000
vt 0.800000 0.000000
vt 0.400000 0.000000
vt 0.000000 0.000000
vt 0.200000 0.000000
vt 0.000000 1.000000
vt 1.000000 1.000000
vt 1.000000 0.833333
vt 0.000000 0.833333
vt 0.000000 0.166667
vt 1.000000 0.166667
vt 0.000000 0.333333
vt 1.000000 0.333333
vt 0.000000 0.500000
vt 1.000000 0.500000
vt 0.000000 0.666667
vt 1.000000 0.666667
s 1
usemtl iron1
f 126/133/61 124/134/61 125/135/61
f 126/133/61 123/136/61 124/134/61
f 121/137/61 123/136/61 126/133/61
f 121/137/61 122/138/61 123/136/61
f 129/136/62 131/135/62 130/134/62
f 129/136/62 132/133/62 131/135/62
f 129/136/62 127/137/62 132/133/62
f 128/138/62 127/137/62 129/136/62
f 133/139/63 139/140/63 144/141/68 138/142/68
f 134/143/64 140/144/64 139/133/63 133/137/63
f 135/145/65 141/146/65 140/144/64 134/143/64
f 136/147/66 142/148/66 141/146/65 135/145/65
f 137/149/67 143/150/67 142/148/66 136/147/66
f 138/142/68 144/141/68 143/150/67 137/149/67
o 贝塞尔曲线.002
v 0.500000 -0.448038 -0.355000
v 0.500000 -0.448038 -0.295000
v 0.500000 -0.500000 -0.265000
v 0.500000 -0.551961 -0.295000
v 0.500000 -0.551961 -0.355000
v 0.500000 -0.500000 -0.385000
v -0.500000 -0.448038 -0.355000
v -0.500000 -0.448038 -0.295000
v -0.500000 -0.500000 -0.265000
v -0.500000 -0.551961 -0.295000
v -0.500000 -0.551961 -0.355000
v -0.500000 -0.500000 -0.385000
v -0.500000 -0.448038 -0.355000
v -0.500000 -0.448038 -0.295000
v -0.500000 -0.500000 -0.265000
v -0.500000 -0.551961 -0.295000
v -0.500000 -0.551961 -0.355000
v -0.500000 -0.500000 -0.385000
v 0.500000 -0.448038 -0.355000
v 0.500000 -0.448038 -0.295000
v 0.500000 -0.500000 -0.265000
v 0.500000 -0.551961 -0.295000
v 0.500000 -0.551961 -0.355000
v 0.500000 -0.500000 -0.385000
vn 1.0000 -0.0000 -0.0000
vn -1.0000 -0.0000 -0.0000
vn -0.0000 0.8660 -0.5000
vn -0.0000 0.8660 0.5000
vn -0.0000 -0.0000 1.0000
vn -0.0000 -0.8660 0.5000
vn -0.0000 -0.8660 -0.5000
vn -0.0000 -0.0000 -1.0000
vt 1.000000 0.000000
vt 0.600000 0.000000
vt 0.800000 0.000000
vt 0.400000 0.000000
vt 0.000000 0.000000
vt 0.200000 0.000000
vt 1.000000 1.000000
vt 0.000000 0.833333
vt 0.000000 1.000000
vt 1.000000 0.166667
vt 0.000000 0.166667
vt 1.000000 0.333333
vt 0.000000 0.333333
vt 1.000000 0.500000
vt 0.000000 0.500000
vt 1.000000 0.666667
vt 0.000000 0.666667
vt 1.000000 0.833333
s 1
usemtl iron1
f 150/151/69 148/152/69 149/153/69
f 150/151/69 147/154/69 148/152/69
f 145/155/69 147/154/69 150/151/69
f 145/155/69 146/156/69 147/154/69
f 153/154/70 155/153/70 154/152/70
f 153/154/70 156/151/70 155/153/70
f 153/154/70 151/155/70 156/151/70
f 152/156/70 151/155/70 153/154/70
f 163/157/71 162/158/76 157/159/71
f 164/160/72 157/155/71 158/161/72
f 165/162/73 158/161/72 159/163/73
f 166/164/74 159/163/73 160/165/74
f 167/166/75 160/165/74 161/167/75
f 168/168/76 161/167/75 162/158/76
f 163/157/71 168/168/76 162/158/76
f 164/160/72 163/151/71 157/155/71
f 165/162/73 164/160/72 158/161/72
f 166/164/74 165/162/73 159/163/73
f 167/166/75 166/164/74 160/165/74
f 168/168/76 167/166/75 161/167/75
o 贝塞尔曲线.003
v 0.500000 0.111962 -0.030000
v 0.500000 0.111962 0.030000
v 0.500000 0.060000 0.060000
v 0.500000 0.008038 0.030000
v 0.500000 0.008038 -0.030000
v 0.500000 0.060000 -0.060000
v -0.500000 0.111962 -0.030000
v -0.500000 0.111962 0.030000
v -0.500000 0.060000 0.060000
v -0.500000 0.008038 0.030000
v -0.500000 0.008038 -0.030000
v -0.500000 0.060000 -0.060000
v -0.500000 0.111962 -0.030000
v -0.500000 0.111962 0.030000
v -0.500000 0.060000 0.060000
v -0.500000 0.008038 0.030000
v -0.500000 0.008038 -0.030000
v -0.500000 0.060000 -0.060000
v 0.500000 0.111962 -0.030000
v 0.500000 0.111962 0.030000
v 0.500000 0.060000 0.060000
v 0.500000 0.008038 0.030000
v 0.500000 0.008038 -0.030000
v 0.500000 0.060000 -0.060000
vn 1.0000 -0.0000 -0.0000
vn -1.0000 -0.0000 -0.0000
vn -0.0000 0.8660 -0.5000
vn -0.0000 0.8660 0.5000
vn -0.0000 -0.0000 1.0000
vn -0.0000 -0.8660 0.5000
vn -0.0000 -0.8660 -0.5000
vn -0.0000 -0.0000 -1.0000
vt 1.000000 0.000000
vt 0.600000 0.000000
vt 0.800000 0.000000
vt 0.400000 0.000000
vt 0.000000 0.000000
vt 0.200000 0.000000
vt 0.000000 1.000000
vt 1.000000 1.000000
vt 1.000000 0.833333
vt 0.000000 0.833333
vt 0.000000 0.166667
vt 1.000000 0.166667
vt 0.000000 0.333333
vt 1.000000 0.333333
vt 0.000000 0.500000
vt 1.000000 0.500000
vt 0.000000 0.666667
vt 1.000000 0.666667
s 1
usemtl iron1
f 174/169/77 172/170/77 173/171/77
f 174/169/77 171/172/77 172/170/77
f 169/173/77 171/172/77 174/169/77
f 169/173/77 170/174/77 171/172/77
f 177/172/78 179/171/78 178/170/78
f 177/172/78 180/169/78 179/171/78
f 177/172/78 175/173/78 180/169/78
f 176/174/78 175/173/78 177/172/78
f 181/175/79 187/176/79 192/177/84 186/178/84
f 182/179/80 188/180/80 187/169/79 181/173/79
f 183/181/81 189/182/81 188/180/80 182/179/80
f 184/183/82 190/184/82 189/182/81 183/181/81
f 185/185/83 191/186/83 190/184/82 184/183/82
f 186/178/84 192/177/84 191/186/83 185/185/83
o 贝塞尔曲线.003
v 0.500000 0.111962 -0.030000
v 0.500000 0.111962 0.030000
v 0.500000 0.060000 0.060000
v 0.500000 0.008038 0.030000
v 0.500000 0.008038 -0.030000
v 0.500000 0.060000 -0.060000
v -0.500000 0.111962 -0.030000
v -0.500000 0.111962 0.030000
v -0.500000 0.060000 0.060000
v -0.500000 0.008038 0.030000
v -0.500000 0.008038 -0.030000
v -0.500000 0.060000 -0.060000
v -0.500000 0.111962 -0.030000
v -0.500000 0.111962 0.030000
v -0.500000 0.060000 0.060000
v -0.500000 0.008038 0.030000
v -0.500000 0.008038 -0.030000
v -0.500000 0.060000 -0.060000
v 0.500000 0.111962 -0.030000
v 0.500000 0.111962 0.030000
v 0.500000 0.060000 0.060000
v 0.500000 0.008038 0.030000
v 0.500000 0.008038 -0.030000
v 0.500000 0.060000 -0.060000
vn 1.0000 -0.0000 -0.0000
vn -1.0000 -0.0000 -0.0000
vn -0.0000 0.8660 -0.5000
vn -0.0000 0.8660 0.5000
vn -0.0000 -0.0000 1.0000
vn -0.0000 -0.8660 0.5000
vn -0.0000 -0.8660 -0.5000
vn -0.0000 -0.0000 -1.0000
vt 1.000000 0.000000
vt 0.600000 0.000000
vt 0.800000 0.000000
vt 0.400000 0.000000
vt 0.000000 0.000000
vt 0.200000 0.000000
vt 1.000000 1.000000
vt 0.000000 0.833333
vt 0.000000 1.000000
vt 1.000000 0.166667
vt 0.000000 0.166667
vt 1.000000 0.333333
vt 0.000000 0.333333
vt 1.000000 0.500000
vt 0.000000 0.500000
vt 1.000000 0.666667
vt 0.000000 0.666667
vt 1.000000 0.833333
s 1
usemtl iron1
f 198/187/85 196/188/85 197/189/85
f 198/187/85 195/190/85 196/188/85
f 193/191/85 195/190/85 198/187/85
f 193/191/85 194/192/85 195/190/85
f 201/190/86 203/189/86 202/188/86
f 201/190/86 204/187/86 203/189/86
f 201/190/86 199/191/86 204/187/86
f 200/192/86 199/191/86 201/190/86
f 211/193/87 210/194/92 205/195/87
f 212/196/88 205/191/87 206/197/88
f 213/198/89 206/197/88 207/199/89
f 214/200/90 207/199/89 208/201/90
f 215/202/91 208/201/90 209/203/91
f 216/204/92 209/203/91 210/194/92
f 211/193/87 216/204/92 210/194/92
f 212/196/88 211/187/87 205/191/87
f 213/198/89 212/196/88 206/197/88
f 214/200/90 213/198/89 207/199/89
f 215/202/91 214/200/90 208/201/90
f 216/204/92 215/202/91 209/203/91
o 贝塞尔曲线.004
v 0.500000 -0.448038 0.355000
v 0.500000 -0.448038 0.295000
v 0.500000 -0.500000 0.265000
v 0.500000 -0.551961 0.295000
v 0.500000 -0.551961 0.355000
v 0.500000 -0.500000 0.385000
v -0.500000 -0.448038 0.355000
v -0.500000 -0.448038 0.295000
v -0.500000 -0.500000 0.265000
v -0.500000 -0.551961 0.295000
v -0.500000 -0.551961 0.355000
v -0.500000 -0.500000 0.385000
v -0.500000 -0.448038 0.355000
v -0.500000 -0.448038 0.295000
v -0.500000 -0.500000 0.265000
v -0.500000 -0.551961 0.295000
v -0.500000 -0.551961 0.355000
v -0.500000 -0.500000 0.385000
v 0.500000 -0.448038 0.355000
v 0.500000 -0.448038 0.295000
v 0.500000 -0.500000 0.265000
v 0.500000 -0.551961 0.295000
v 0.500000 -0.551961 0.355000
v 0.500000 -0.500000 0.385000
vn 1.0000 -0.0000 -0.0000
vn -1.0000 -0.0000 -0.0000
vn -0.0000 0.8660 0.5000
vn -0.0000 0.8660 -0.5000
vn -0.0000 -0.0000 -1.0000
vn -0.0000 -0.8660 -0.5000
vn -0.0000 -0.8660 0.5000
vn -0.0000 -0.0000 1.0000
vt 1.000000 0.000000
vt 0.600000 0.000000
vt 0.800000 0.000000
vt 0.400000 0.000000
vt 0.000000 0.000000
vt 0.200000 0.000000
vt 0.000000 1.000000
vt 1.000000 1.000000
vt 1.000000 0.833333
vt 0.000000 0.833333
vt 0.000000 0.166667
vt 1.000000 0.166667
vt 0.000000 0.333333
vt 1.000000 0.333333
vt 0.000000 0.500000
vt 1.000000 0.500000
vt 0.000000 0.666667
vt 1.000000 0.666667
s 1
usemtl iron1
f 222/205/93 221/207/93 220/206/93
f 222/205/93 220/206/93 219/208/93
f 217/209/93 222/205/93 219/208/93
f 217/209/93 219/208/93 218/210/93
f 225/208/94 226/206/94 227/207/94
f 225/208/94 227/207/94 228/205/94
f 225/208/94 228/205/94 223/209/94
f 224/210/94 225/208/94 223/209/94
f 229/211/95 234/214/100 240/213/100 235/212/95
f 230/215/96 229/209/95 235/205/95 236/216/96
f 231/217/97 230/215/96 236/216/96 237/218/97
f 232/219/98 231/217/97 237/218/97 238/220/98
f 233/221/99 232/219/98 238/220/98 239/222/99
f 234/214/100 233/221/99 239/222/99 240/213/100
o 贝塞尔曲线.004
v 0.500000 -0.448038 0.355000
v 0.500000 -0.448038 0.295000
v 0.500000 -0.500000 0.265000
v 0.500000 -0.551961 0.295000
v 0.500000 -0.551961 0.355000
v 0.500000 -0.500000 0.385000
v -0.500000 -0.448038 0.355000
v -0.500000 -0.448038 0.295000
v -0.500000 -0.500000 0.265000
v -0.500000 -0.551961 0.295000
v -0.500000 -0.551961 0.355000
v -0.500000 -0.500000 0.385000
v -0.500000 -0.448038 0.355000
v -0.500000 -0.448038 0.295000
v -0.500000 -0.500000 0.265000
v -0.500000 -0.551961 0.295000
v -0.500000 -0.551961 0.355000
v -0.500000 -0.500000 0.385000
v 0.500000 -0.448038 0.355000
v 0.500000 -0.448038 0.295000
v 0.500000 -0.500000 0.265000
v 0.500000 -0.551961 0.295000
v 0.500000 -0.551961 0.355000
v 0.500000 -0.500000 0.385000
vn 1.0000 -0.0000 -0.0000
vn -1.0000 -0.0000 -0.0000
vn -0.0000 0.8660 0.5000
vn -0.0000 0.8660 -0.5000
vn -0.0000 -0.0000 -1.0000
vn -0.0000 -0.8660 -0.5000
vn -0.0000 -0.8660 0.5000
vn -0.0000 -0.0000 1.0000
vt 1.000000 0.000000
vt 0.600000 0.000000
vt 0.800000 0.000000
vt 0.400000 0.000000
vt 0.000000 0.000000
vt 0.200000 0.000000
vt 1.000000 1.000000
vt 0.000000 0.833333
vt 0.000000 1.000000
vt 1.000000 0.166667
vt 0.000000 0.166667
vt 1.000000 0.333333
vt 0.000000 0.333333
vt 1.000000 0.500000
vt 0.000000 0.500000
vt 1.000000 0.666667
vt 0.000000 0.666667
vt 1.000000 0.833333
s 1
usemtl iron1
f 246/223/101 245/225/101 244/224/101
f 246/223/101 244/224/101 243/226/101
f 241/227/101 246/223/101 243/226/101
f 241/227/101 243/226/101 242/228/101
f 249/226/102 250/224/102 251/225/102
f 249/226/102 251/225/102 252/223/102
f 249/226/102 252/223/102 247/227/102
f 248/228/102 249/226/102 247/227/102
f 259/229/103 253/231/103 258/230/108
f 260/232/104 254/233/104 253/227/103
f 261/234/105 255/235/105 254/233/104
f 262/236/106 256/237/106 255/235/105
f 263/238/107 257/239/107 256/237/106
f 264/240/108 258/230/108 257/239/107
f 259/229/103 258/230/108 264/240/108
f 260/232/104 253/227/103 259/223/103
f 261/234/105 254/233/104 260/232/104
f 262/236/106 255/235/105 261/234/105
f 263/238/107 256/237/106 262/236/106
f 264/240/108 257/239/107 263/238/107
