<?xml version="1.0" encoding="UTF-8" standalone="no"?>
<!-- Created with Inkscape (http://www.inkscape.org/) -->

<svg
   width="100mm"
   height="100mm"
   viewBox="0 0 100 100"
   version="1.1"
   id="svg1"
   inkscape:version="1.4 (86a8ad7, 2024-10-11)"
   sodipodi:docname="logo.svg"
   xmlns:inkscape="http://www.inkscape.org/namespaces/inkscape"
   xmlns:sodipodi="http://sodipodi.sourceforge.net/DTD/sodipodi-0.dtd"
   xmlns="http://www.w3.org/2000/svg"
   xmlns:svg="http://www.w3.org/2000/svg">
  <sodipodi:namedview
     id="namedview1"
     pagecolor="#ffffff"
     bordercolor="#cccccc"
     borderopacity="1"
     inkscape:showpageshadow="0"
     inkscape:pageopacity="1"
     inkscape:pagecheckerboard="0"
     inkscape:deskcolor="#d1d1d1"
     inkscape:document-units="mm"
     inkscape:zoom="2.315616"
     inkscape:cx="214.62971"
     inkscape:cy="241.18852"
     inkscape:window-width="1920"
     inkscape:window-height="1173"
     inkscape:window-x="-9"
     inkscape:window-y="-9"
     inkscape:window-maximized="1"
     inkscape:current-layer="layer1" />
  <defs
     id="defs1" />
  <g
     inkscape:label="图层 1"
     inkscape:groupmode="layer"
     id="layer1">
    <path
       d="M 33.730896,54.615658 H 13.511742 v -1.604695 q 2.830098,-0.05835 4.201383,-0.437644 1.371284,-0.408468 1.867281,-1.429637 0.525173,-1.02117 0.525173,-3.20939 V 20.683657 q 0,-2.334101 -0.437644,-3.471976 -0.437644,-1.137874 -1.808929,-1.604694 -1.342108,-0.466821 -4.347264,-0.55435 v -1.604694 h 23.020076 q 4.347264,0 7.58583,1.517166 3.267742,1.487989 4.901613,3.997148 1.663047,2.479983 1.663047,5.368434 0,1.896457 -0.758583,3.705386 -0.758582,1.779752 -2.18822,3.238566 -1.429637,1.458813 -3.471976,2.509159 -2.013162,1.021169 -4.697379,1.458813 2.013163,2.013163 4.959966,5.689373 l 2.88845,3.413623 q 0.233411,0.262587 0.583526,0.671054 0.350115,0.379292 0.904464,0.991994 1.400461,1.692223 2.363278,2.800921 0.962817,1.079522 1.896457,1.95481 0.962817,0.875288 1.867282,1.429638 0.904464,0.525172 1.925633,0.816935 v 1.604695 h -5.485138 q -1.867281,0 -3.530329,-0.816936 Q 46.276692,52.95261 44.73035,51.435445 43.213184,49.918279 41.258374,47.438296 L 37.173696,42.24492 Q 34.343598,38.56871 32.943137,37.168249 31.571852,35.738612 30.550683,35.738612 H 27.312117 V 48.10935 q 0,1.838105 0.466821,2.88845 0.46682,1.050346 2.042338,1.517166 0.846112,0.233411 2.071515,0.379292 1.225404,0.145881 1.838105,0.116705 z M 21.039219,20.450247 v 28.796977 q 0,2.74257 -2.013162,3.763739 3.822091,-0.08753 3.822091,-2.946803 V 20.625305 q 0,-2.246573 -0.262586,-3.384447 -0.23341,-1.167051 -1.137875,-1.7214 -0.875288,-0.554349 -2.713393,-0.466821 1.517166,0.671055 1.896458,1.779753 0.408467,1.079522 0.408467,3.617857 z m 6.272898,0.525173 v 13.158497 h 4.726556 q 2.392454,0 4.726555,-0.758583 2.334102,-0.787759 3.530329,-1.95481 2.392454,-2.246573 2.392454,-6.856423 0,-5.455962 -3.705386,-8.023474 -1.312932,-0.904464 -2.74257,-1.196227 -1.429637,-0.291763 -3.647033,-0.291763 -2.246573,0 -3.413624,0.612702 -1.137874,0.583525 -1.517166,1.808929 -0.350115,1.196227 -0.350115,3.501152 z m 7.615006,14.763192 h -2.392454 q 1.050346,0.787759 2.421631,2.363278 1.400461,1.575518 3.501152,4.259735 2.100691,2.684217 4.230559,5.455962 1.95481,2.479983 3.617857,3.822091 1.663047,1.312932 2.946803,1.692224 1.283756,0.379291 2.74257,0.437644 -1.808929,-0.875288 -3.471976,-2.392454 -1.663048,-1.546342 -3.588681,-3.880444 -1.896458,-2.363278 -3.938797,-4.959965 -2.013162,-2.596688 -4.172206,-4.901614 -0.291763,-0.408467 -0.729407,-0.904464 -0.408468,-0.525173 -1.167051,-0.991993 z m 2.567512,-1.750576 q 3.90962,-0.495997 6.010311,-2.917627 2.100692,-2.42163 2.100692,-6.564661 0,-4.026325 -1.867281,-6.389602 -1.867282,-2.392454 -5.310081,-2.888451 2.625864,1.342108 3.90962,3.617857 1.312932,2.246573 1.312932,6.010312 0,3.967972 -1.546343,5.951959 -1.517166,1.983986 -4.60985,3.180213 z m 49.570481,13.45026 -3.267743,-8.344413 H 69.996998 l -1.925633,4.959966 q -0.758583,1.896457 -0.758583,3.938796 0,1.95481 1.225403,3.4428 1.254579,1.487989 3.471976,1.575518 v 1.604695 H 58.501548 v -1.604695 q 4.522322,-0.671054 7.294068,-7.790064 L 75.890605,19.370725 q -0.78776,-1.371284 -1.663048,-1.838105 -0.875288,-0.495996 -2.567511,-0.671054 v -1.429637 l 7.002304,-2.392454 h 2.684217 l 13.508612,34.457173 q 1.167051,2.917627 2.334102,3.967973 1.167051,1.021169 3.559509,1.546342 v 1.604695 H 83.418082 v -1.604695 q 2.246573,-0.23341 3.355271,-0.70023 1.137874,-0.466821 1.137874,-1.808929 0,-1.167051 -0.846111,-3.063508 z M 70.697229,37.226602 H 83.067967 L 76.853422,21.500593 Z M 89.720156,46.358774 79.304228,19.954251 q -0.758583,-1.983987 -1.575518,-2.800922 -0.816936,-0.846112 -2.246573,-0.846112 -0.846112,0 -1.371285,0.116705 1.400461,0.554349 2.100692,1.546342 0.729406,0.991993 1.371284,2.655041 l 10.328399,26.404523 q 0.962817,2.334101 0.962817,3.647034 0,0.846111 -0.320939,1.225403 -0.320939,0.379291 -1.283756,1.108698 h 0.641878 q 1.371285,0 2.100692,-0.729407 0.758583,-0.729406 0.758583,-1.7214 0,-1.429637 -1.050346,-4.201382 z m -28.096747,6.652189 h 5.601844 q -1.838105,-1.429637 -1.838105,-3.588681 0,-0.612702 0.05835,-0.962817 -0.787759,1.458814 -1.604694,2.479983 -0.78776,1.021169 -2.217397,2.071515 z"
       id="text1"
       style="font-size:59.753px;line-height:0;font-family:'Imprint MT Shadow';-inkscape-font-specification:'Imprint MT Shadow, Normal';stroke-width:0.1;stroke:#000000;stroke-opacity:1;fill:#ffffff;fill-opacity:1;stroke-dasharray:none"
       transform="scale(0.94103273,1.0626623)"
       aria-label="RA" />
    <text
       xml:space="preserve"
       style="font-style:normal;font-variant:normal;font-weight:normal;font-stretch:normal;font-size:20px;line-height:0;font-family:'Colonna MT';-inkscape-font-specification:'Colonna MT, Normal';font-variant-ligatures:normal;font-variant-caps:normal;font-variant-numeric:normal;font-variant-east-asian:normal;text-align:start;writing-mode:lr-tb;direction:ltr;text-anchor:start;fill:#000000;fill-opacity:1;stroke-width:0.235479"
       x="34.506653"
       y="83.295868"
       id="text2"><tspan
         sodipodi:role="line"
         id="tspan2"
         style="stroke-width:0.235479"
         x="34.506653"
         y="83.295868" /></text>
    <path
       d="m 13.449707,70.775841 h -3.383789 v -0.268555 q 0.473633,-0.0098 0.703125,-0.07324 0.229492,-0.06836 0.3125,-0.239258 0.08789,-0.170898 0.08789,-0.537109 V 65.09713 q 0,-0.390625 -0.07324,-0.581055 -0.07324,-0.19043 -0.302734,-0.268555 -0.224609,-0.07813 -0.727539,-0.09277 v -0.268555 h 3.852539 q 0.727539,0 1.269531,0.253907 0.546875,0.249023 0.820313,0.668945 0.27832,0.415039 0.27832,0.898437 0,0.317383 -0.126953,0.620118 -0.126953,0.297851 -0.366211,0.541992 -0.239258,0.24414 -0.581055,0.419922 -0.336914,0.170898 -0.786132,0.24414 0.336914,0.336914 0.830078,0.952149 l 0.483398,0.571289 q 0.03906,0.04394 0.09766,0.112304 0.05859,0.06348 0.151368,0.166016 0.234375,0.283203 0.395507,0.46875 0.161133,0.180664 0.317383,0.327149 0.161133,0.146484 0.3125,0.239257 0.151367,0.08789 0.322266,0.136719 v 0.268555 h -0.917969 q -0.3125,0 -0.59082,-0.136719 -0.278321,-0.141602 -0.53711,-0.395508 -0.253906,-0.253906 -0.581054,-0.668945 L 14.025879,68.705528 Q 13.552246,68.090294 13.317871,67.855919 13.088379,67.616661 12.91748,67.616661 h -0.541992 v 2.070313 q 0,0.307617 0.07813,0.483398 0.07813,0.175781 0.341797,0.253906 0.141602,0.03906 0.34668,0.06348 0.205078,0.02441 0.307617,0.01953 z m -2.124023,-5.717774 v 4.819336 q 0,0.458985 -0.336914,0.629883 0.639648,-0.01465 0.639648,-0.493164 v -4.926758 q 0,-0.375976 -0.04395,-0.566406 -0.03906,-0.195313 -0.19043,-0.288086 -0.146484,-0.09277 -0.454102,-0.07813 0.253907,0.112305 0.317383,0.297852 0.06836,0.180664 0.06836,0.605468 z m 1.049804,0.08789 v 2.202148 h 0.791016 q 0.400391,0 0.791016,-0.126953 0.390625,-0.131836 0.59082,-0.327148 0.40039,-0.375977 0.40039,-1.147461 0,-0.913086 -0.620117,-1.342774 -0.219726,-0.151367 -0.458984,-0.200195 -0.239258,-0.04883 -0.610352,-0.04883 -0.375976,0 -0.571289,0.102539 -0.190429,0.09766 -0.253906,0.302734 -0.05859,0.200196 -0.05859,0.585938 z m 1.274414,2.470703 h -0.40039 q 0.175781,0.131836 0.405273,0.395508 0.234375,0.263672 0.585938,0.712891 0.351562,0.449218 0.708007,0.913085 0.327149,0.41504 0.605469,0.639649 0.278321,0.219726 0.493164,0.283203 0.214844,0.06348 0.458985,0.07324 -0.302735,-0.146484 -0.581055,-0.40039 -0.27832,-0.258789 -0.600586,-0.649414 -0.317383,-0.395508 -0.65918,-0.830079 -0.336914,-0.43457 -0.698242,-0.820312 -0.04883,-0.06836 -0.12207,-0.151367 -0.06836,-0.08789 -0.195313,-0.166016 z m 0.429688,-0.292969 q 0.654297,-0.08301 1.005859,-0.488281 0.351563,-0.405273 0.351563,-1.098633 0,-0.673828 -0.3125,-1.069336 -0.3125,-0.40039 -0.888672,-0.483398 0.439453,0.224609 0.654297,0.605469 0.219726,0.375976 0.219726,1.005859 0,0.664063 -0.258789,0.996094 -0.253906,0.332031 -0.771484,0.532226 z m 4.838867,-0.327148 q 0,0.01953 0.06348,0.141601 0.06348,0.122071 0.06348,0.229493 0,0.209961 -0.175781,0.375976 -0.170899,0.161133 -0.429688,0.161133 -0.249023,0 -0.395507,-0.126953 -0.146485,-0.131836 -0.146485,-0.302734 0,-0.253907 0.244141,-0.498047 0.249023,-0.244141 0.678711,-0.395508 0.43457,-0.15625 0.957031,-0.15625 0.380859,0 0.708008,0.131836 0.332031,0.131836 0.527344,0.40039 0.195312,0.268555 0.195312,0.649414 v 2.480469 q 0,0.297852 0.170899,0.297852 0.102539,0 0.249023,-0.161133 l 0.180664,0.209961 q -0.239258,0.239258 -0.444336,0.361328 -0.200195,0.12207 -0.478516,0.12207 -0.322265,0 -0.502929,-0.141601 -0.180664,-0.146485 -0.253906,-0.449219 -0.673829,0.581055 -1.333008,0.581055 -0.46875,0 -0.747071,-0.244141 -0.273437,-0.244141 -0.273437,-0.620117 0,-0.336914 0.166016,-0.571289 0.170898,-0.239258 0.444335,-0.419922 0.278321,-0.185547 0.81543,-0.463867 0.53711,-0.283203 0.883789,-0.483399 v -0.737304 q 0,-0.332032 -0.151367,-0.50293 -0.151367,-0.170898 -0.454102,-0.170898 -0.263671,0 -0.415039,0.09766 -0.146484,0.09277 -0.146484,0.205078 z m 1.328125,0.688476 v 1.928711 q 0,0.571289 0.12207,0.854493 0.122071,0.27832 0.478516,0.27832 0.161133,0 0.258789,-0.03906 -0.292969,-0.04395 -0.415039,-0.234375 -0.12207,-0.190429 -0.12207,-0.595703 v -2.241211 q 0,-0.507812 -0.146485,-0.698242 -0.141601,-0.195312 -0.493164,-0.234375 0.19043,0.09766 0.253906,0.283203 0.06348,0.185547 0.06348,0.698242 z m -0.161133,2.319336 v -1.567382 q -0.625,0.351562 -0.874023,0.634765 -0.244141,0.283203 -0.244141,0.683594 0,0.268555 0.146485,0.415039 0.146484,0.146484 0.341796,0.146484 0.307618,0 0.629883,-0.3125 z m -0.859375,0.673829 q -0.444336,0 -0.71289,-0.180665 -0.263672,-0.180664 -0.263672,-0.52246 0,-0.249024 0.126953,-0.46875 0.131836,-0.22461 0.390625,-0.498047 -0.395508,0.229492 -0.615235,0.46875 -0.214843,0.239257 -0.214843,0.566406 0,0.297851 0.258789,0.498047 0.263672,0.195312 0.571289,0.195312 0.297851,0 0.458984,-0.05859 z M 18.76709,67.59713 q -0.175781,0.01465 -0.268555,-0.06836 -0.09277,-0.08301 -0.09277,-0.195312 0,-0.151367 0.08301,-0.268555 0.08301,-0.12207 0.288085,-0.346679 -0.346679,0.175781 -0.532226,0.351562 -0.185547,0.175781 -0.185547,0.395508 0,0.09766 0.09766,0.185547 0.102539,0.08301 0.239258,0.08301 0.234375,0 0.371094,-0.136719 z m 5.151367,-1.171875 v 3.530273 q 0,0.22461 0.04395,0.341797 0.04883,0.112305 0.175782,0.15625 0.131836,0.04394 0.40039,0.05371 v 0.268555 h -2.280273 v -0.268555 q 0.302734,-0.0098 0.419922,-0.12207 0.12207,-0.112305 0.12207,-0.400391 v -2.241211 q 0,-0.209961 -0.141602,-0.390625 -0.141601,-0.180664 -0.40039,-0.268554 v -0.15625 l 1.459961,-0.50293 z m -0.957031,1.333008 v 2.319336 q 0,0.283203 -0.200196,0.429687 0.268555,0 0.390625,-0.12207 0.126954,-0.122071 0.126954,-0.400391 v -2.290039 q 0,-0.3125 -0.151368,-0.478516 -0.151367,-0.170898 -0.395507,-0.170898 -0.112305,0 -0.180664,0.0098 0.410156,0.214843 0.410156,0.703125 z m 0.356445,-3.710938 q 0.185547,0 0.34668,0.09277 0.161133,0.08789 0.253906,0.24414 0.09277,0.15625 0.09277,0.341797 0,0.185547 -0.09277,0.34668 -0.09277,0.15625 -0.253906,0.249023 -0.161133,0.09277 -0.34668,0.09277 -0.27832,0 -0.478516,-0.205078 -0.200195,-0.205079 -0.200195,-0.483399 0,-0.180664 0.08789,-0.336914 0.09277,-0.161133 0.249023,-0.249023 0.161133,-0.09277 0.341797,-0.09277 z m 0.08301,0.15625 q -0.288086,0 -0.444336,0.136719 -0.15625,0.136719 -0.15625,0.375976 0,0.229493 0.151367,0.38086 0.151367,0.146484 0.449219,0.161133 -0.15625,-0.141602 -0.229492,-0.249024 -0.07324,-0.112304 -0.07324,-0.283203 0,-0.317383 0.302734,-0.522461 z m 2.128906,5.810547 v -4.628906 q 0,-0.371094 -0.117187,-0.581055 Q 25.29541,64.5942 24.870605,64.43795 v -0.19043 l 1.586915,-0.52246 h 0.190429 v 6.108398 q 0,0.380859 0.08301,0.527344 0.08789,0.146484 0.439453,0.146484 h 0.131836 v 0.268555 h -2.431641 v -0.268555 h 0.117188 q 0.288086,0 0.415039,-0.12207 0.126953,-0.122071 0.126953,-0.371094 z m 0.478516,-0.200195 v -4.399414 q 0,-0.34668 -0.03418,-0.551758 -0.0293,-0.209961 -0.180664,-0.34668 -0.146484,-0.141601 -0.473633,-0.141601 -0.161133,0 -0.258789,0.0098 0.449219,0.126953 0.53711,0.375977 0.09277,0.249023 0.09277,0.654297 v 4.570312 q 0,0.332031 -0.200195,0.522461 0.341797,-0.01465 0.429687,-0.185547 0.08789,-0.175781 0.08789,-0.507812 z m 7.871094,-1.796875 -1.201172,2.890625 H 32.302246 L 31.19873,68.485802 30.187988,70.907677 H 29.812012 L 28.259277,67.533653 Q 28.078613,67.12838 27.932129,66.967247 27.790527,66.806114 27.521973,66.786583 v -0.27832 h 2.207031 v 0.27832 q -0.371094,0.01465 -0.371094,0.297852 0,0.08301 0.0293,0.185546 0.0293,0.102539 0.06836,0.19043 0.03906,0.08789 0.09277,0.195313 l 0.90332,1.928711 0.585938,-1.430665 -0.268555,-0.55664 Q 30.60791,67.25045 30.461426,67.074669 30.314941,66.894005 30.070801,66.786583 v -0.27832 h 2.397461 v 0.27832 q -0.268555,0 -0.424805,0.07324 -0.151367,0.06836 -0.151367,0.307617 0,0.126953 0.03418,0.229493 0.03906,0.102539 0.175781,0.410156 l 0.830078,1.777344 0.527344,-1.298829 q 0.04395,-0.102539 0.102539,-0.229492 0.05859,-0.131836 0.102539,-0.297851 0.04394,-0.166016 0.04394,-0.351563 0,-0.229492 -0.131836,-0.40039 -0.131836,-0.175782 -0.375976,-0.219727 v -0.27832 h 1.679687 v 0.27832 q -0.561523,0.151367 -1.000976,1.230469 z m 0.439453,-1.240235 h -0.727539 q 0.15625,0.102539 0.214843,0.234375 0.05859,0.126953 0.08301,0.356446 0.04395,-0.166016 0.166016,-0.327149 0.12207,-0.166015 0.263672,-0.263672 z m -3.369141,0.830078 1.420898,3.081055 h 0.05859 q 0.09277,-0.141601 0.09277,-0.263672 0,-0.15625 -0.05371,-0.283203 -0.05371,-0.131836 -0.146485,-0.317383 l -1.000976,-2.167968 q -0.195313,-0.415039 -0.307617,-0.581055 -0.112305,-0.166016 -0.253907,-0.224609 -0.141601,-0.06348 -0.390625,-0.06348 0.195313,0.12207 0.317383,0.317383 0.12207,0.195312 0.263672,0.502929 z m -2.368164,0.229493 1.308594,2.851562 h 0.07813 q 0.07324,-0.161133 0.07324,-0.263672 0,-0.166015 -0.263672,-0.717773 l -0.966797,-2.119141 q -0.15625,-0.346679 -0.253906,-0.502929 -0.09766,-0.161133 -0.234375,-0.229493 -0.131836,-0.07324 -0.380859,-0.06836 0.102539,0.07324 0.190429,0.200195 0.09277,0.126953 0.205078,0.351563 0.112305,0.219726 0.244141,0.498047 z m 7.836914,-0.839844 q 0,0.01953 0.06348,0.141601 0.06348,0.122071 0.06348,0.229493 0,0.209961 -0.175781,0.375976 -0.170899,0.161133 -0.429688,0.161133 -0.249023,0 -0.395507,-0.126953 -0.146485,-0.131836 -0.146485,-0.302734 0,-0.253907 0.244141,-0.498047 0.249023,-0.244141 0.678711,-0.395508 0.43457,-0.15625 0.957031,-0.15625 0.380859,0 0.708008,0.131836 0.332031,0.131836 0.527344,0.40039 0.195312,0.268555 0.195312,0.649414 v 2.480469 q 0,0.297852 0.170899,0.297852 0.102539,0 0.249023,-0.161133 l 0.180664,0.209961 q -0.239258,0.239258 -0.444336,0.361328 -0.200195,0.12207 -0.478516,0.12207 -0.322265,0 -0.502929,-0.141601 -0.180664,-0.146485 -0.253906,-0.449219 -0.673829,0.581055 -1.333008,0.581055 -0.46875,0 -0.747071,-0.244141 -0.273437,-0.244141 -0.273437,-0.620117 0,-0.336914 0.166016,-0.571289 0.170898,-0.239258 0.444335,-0.419922 0.278321,-0.185547 0.81543,-0.463867 0.53711,-0.283203 0.883789,-0.483399 v -0.737304 q 0,-0.332032 -0.151367,-0.50293 -0.151367,-0.170898 -0.454102,-0.170898 -0.263671,0 -0.415039,0.09766 -0.146484,0.09277 -0.146484,0.205078 z m 1.328125,0.688476 v 1.928711 q 0,0.571289 0.12207,0.854493 0.122071,0.27832 0.478516,0.27832 0.161133,0 0.258789,-0.03906 -0.292969,-0.04395 -0.415039,-0.234375 -0.12207,-0.190429 -0.12207,-0.595703 v -2.241211 q 0,-0.507812 -0.146485,-0.698242 -0.141601,-0.195312 -0.493164,-0.234375 0.19043,0.09766 0.253906,0.283203 0.06348,0.185547 0.06348,0.698242 z m -0.161133,2.319336 v -1.567382 q -0.625,0.351562 -0.874023,0.634765 -0.244141,0.283203 -0.244141,0.683594 0,0.268555 0.146485,0.415039 0.146484,0.146484 0.341796,0.146484 0.307618,0 0.629883,-0.3125 z m -0.859375,0.673829 q -0.444336,0 -0.71289,-0.180665 -0.263672,-0.180664 -0.263672,-0.52246 0,-0.249024 0.126953,-0.46875 0.131836,-0.22461 0.390625,-0.498047 -0.395508,0.229492 -0.615235,0.46875 -0.214843,0.239257 -0.214843,0.566406 0,0.297851 0.258789,0.498047 0.263672,0.195312 0.571289,0.195312 0.297851,0 0.458984,-0.05859 z M 36.26709,67.59713 q -0.175781,0.01465 -0.268555,-0.06836 -0.09277,-0.08301 -0.09277,-0.195312 0,-0.151367 0.08301,-0.268555 0.08301,-0.12207 0.288085,-0.346679 -0.346679,0.175781 -0.532226,0.351562 -0.185547,0.175781 -0.185547,0.395508 0,0.09766 0.09766,0.185547 0.102539,0.08301 0.239258,0.08301 0.234375,0 0.371094,-0.136719 z m 6.430664,-1.088867 h 1.68457 v 0.249023 q -0.239258,0.102539 -0.405273,0.253906 -0.166016,0.146485 -0.283203,0.336914 -0.112305,0.185547 -0.249024,0.488282 -0.131836,0.297851 -0.263672,0.639648 l -1.313476,3.339844 q -0.527344,1.362305 -1.40625,1.362305 -0.288086,0 -0.498047,-0.161133 -0.205078,-0.15625 -0.205078,-0.38086 0,-0.195312 0.161133,-0.327148 0.166015,-0.131836 0.390625,-0.131836 0.107421,0 0.234375,0.05371 0.131836,0.05371 0.253906,0.107422 0.126953,0.05859 0.229492,0.05859 0.322266,0 0.581055,-0.668946 l 0.258789,-0.703125 -1.469727,-3.417969 q -0.05859,-0.151367 -0.131836,-0.307617 -0.06836,-0.161133 -0.151367,-0.27832 -0.08301,-0.117188 -0.209961,-0.185547 -0.126953,-0.07324 -0.3125,-0.07813 v -0.249023 h 2.539063 v 0.249023 q -0.302735,0.01953 -0.463868,0.09277 -0.15625,0.06836 -0.15625,0.273437 0,0.209961 0.136719,0.541992 l 0.810547,1.870117 0.610352,-1.499023 q 0.12207,-0.292969 0.12207,-0.629883 0,-0.546875 -0.493164,-0.649414 z m 1.142578,0.268554 h -0.771484 q 0.146484,0.117188 0.195312,0.244141 0.05371,0.12207 0.07813,0.385742 0.112305,-0.249023 0.219727,-0.380859 0.107422,-0.136719 0.27832,-0.249024 z m -1.870117,3.999024 0.161133,-0.390625 -1.259766,-2.919922 q -0.141602,-0.332031 -0.239258,-0.473633 -0.09277,-0.146484 -0.224609,-0.200195 -0.126953,-0.05371 -0.336914,-0.03418 0.195312,0.175781 0.263672,0.3125 0.07324,0.136719 0.224609,0.488281 z m -1.337891,2.250976 q -0.40039,-0.09277 -0.40039,-0.380859 0,-0.180664 0.239257,-0.297852 -0.151367,-0.04395 -0.209961,-0.04395 -0.151367,0 -0.249023,0.09277 -0.09277,0.09766 -0.09277,0.229492 0,0.195312 0.185546,0.3125 0.185547,0.117187 0.527344,0.08789 z M 51.85791,69.574669 51.311035,68.178185 h -2.30957 l -0.322266,0.830078 q -0.126953,0.317382 -0.126953,0.659179 0,0.327149 0.205078,0.576172 0.209961,0.249024 0.581055,0.263672 v 0.268555 h -2.260742 v -0.268555 q 0.756836,-0.112305 1.220703,-1.303711 l 1.689453,-4.326172 q -0.131836,-0.229492 -0.27832,-0.307617 -0.146485,-0.08301 -0.429688,-0.112305 v -0.239257 l 1.171875,-0.400391 h 0.449219 l 2.260742,5.766602 q 0.195313,0.488281 0.390625,0.664062 0.195313,0.170898 0.595703,0.258789 v 0.268555 h -2.90039 v -0.268555 q 0.375976,-0.03906 0.561523,-0.117187 0.19043,-0.07813 0.19043,-0.302735 0,-0.195312 -0.141602,-0.512695 z m -2.739258,-1.708984 h 2.070313 l -1.040039,-2.631836 z m 3.183594,1.52832 -1.743164,-4.418945 q -0.126953,-0.332032 -0.263672,-0.46875 -0.136719,-0.141602 -0.375976,-0.141602 -0.141602,0 -0.229493,0.01953 0.234375,0.09277 0.351563,0.258789 0.12207,0.166016 0.229492,0.444336 l 1.728516,4.418946 q 0.161133,0.390625 0.161133,0.610351 0,0.141602 -0.05371,0.205078 -0.05371,0.06348 -0.214844,0.185547 h 0.107422 q 0.229492,0 0.351562,-0.12207 0.126953,-0.122071 0.126953,-0.288086 0,-0.239258 -0.175781,-0.703125 z m -4.702148,1.113281 h 0.9375 Q 48.22998,70.268028 48.22998,69.9067 q 0,-0.102539 0.0098,-0.161133 -0.131836,0.244141 -0.268555,0.415039 -0.131836,0.170899 -0.371093,0.34668 z m 10.742187,-0.942383 0.195313,0.151367 q -0.219727,0.410157 -0.522461,0.673829 -0.302735,0.263671 -0.668946,0.390625 -0.361328,0.126953 -0.756836,0.126953 -0.537109,0 -1.000976,-0.258789 -0.458984,-0.258789 -0.727539,-0.747071 -0.268555,-0.488281 -0.268555,-1.108398 0,-0.488281 0.161133,-0.917969 0.166016,-0.429687 0.454102,-0.756836 0.292968,-0.327148 0.673828,-0.507812 0.385742,-0.185547 0.820312,-0.185547 0.439453,0 0.834961,0.185547 0.400391,0.180664 0.634766,0.502929 0.170898,0.234375 0.24414,0.483399 0.07813,0.24414 0.122071,0.59082 h -2.949219 q 0.01953,0.507813 0.170898,0.859375 0.15625,0.351563 0.400391,0.566406 0.249023,0.214844 0.527344,0.307618 0.27832,0.09277 0.532226,0.09277 0.615235,0 1.123047,-0.449219 z M 57.478027,67.87545 h 0.341797 q -0.01465,-0.546875 -0.224609,-0.805664 -0.209961,-0.263672 -0.703125,-0.351562 0.3125,0.141601 0.449219,0.371093 0.136718,0.22461 0.136718,0.688477 z m -1.860351,0 h 1.704101 v -0.161133 q 0,-0.283203 -0.102539,-0.502929 -0.102539,-0.22461 -0.283203,-0.341797 -0.175781,-0.122071 -0.405273,-0.122071 -0.371094,0 -0.629883,0.332032 -0.258789,0.327148 -0.283203,0.795898 z m 0.04394,-0.961914 q -0.913086,0.722656 -0.913086,1.894531 0,0.84961 0.541992,1.391602 0.546875,0.537109 1.259766,0.537109 0.415039,0 0.830078,-0.166015 0.419922,-0.170899 0.708008,-0.50293 -0.297852,0.19043 -0.610352,0.3125 -0.307617,0.117187 -0.737304,0.117187 -0.727539,0 -1.215821,-0.507812 -0.483398,-0.507813 -0.483398,-1.323242 0,-0.517578 0.161133,-0.927735 0.161133,-0.410156 0.458984,-0.825195 z m 3.398438,3.623047 v -1.279297 h 0.263671 q 0.371094,0.65918 0.776368,0.996094 0.405273,0.332031 0.791015,0.332031 0.249024,0 0.444336,-0.161133 0.195313,-0.161133 0.195313,-0.366211 0,-0.268554 -0.146485,-0.371093 -0.551757,-0.366211 -1.05957,-0.561524 -1.342773,-0.498047 -1.342773,-1.420898 0,-0.546875 0.419921,-0.913086 0.419922,-0.366211 1.132813,-0.366211 0.361328,0 0.673828,0.07813 0.3125,0.07324 0.693359,0.214844 l 0.04883,1.157226 h -0.239258 q -0.395508,-0.585937 -0.786133,-0.883789 -0.385742,-0.297851 -0.761719,-0.297851 -0.234375,0 -0.390625,0.15625 -0.151367,0.151367 -0.151367,0.336914 0,0.239257 0.19043,0.380859 0.190429,0.136719 0.800781,0.410156 0.610352,0.273438 1.069336,0.527344 0.288086,0.151367 0.458984,0.424805 0.170899,0.273437 0.170899,0.595703 0,0.375976 -0.219727,0.693359 -0.214844,0.317383 -0.600586,0.50293 -0.380859,0.185547 -0.859375,0.185547 -0.678711,0 -1.572265,-0.371094 z m 0.180664,-0.849609 v 0.610351 q 0.24414,0.107422 0.810547,0.258789 -0.302735,-0.209961 -0.449219,-0.375976 -0.146485,-0.166016 -0.361328,-0.493164 z m 2.392578,0.620117 q 0.131836,-0.122071 0.195312,-0.219727 0.06348,-0.102539 0.06348,-0.273437 0,-0.522461 -0.761719,-0.830078 -0.683594,-0.283204 -1.079101,-0.498047 -0.395508,-0.219727 -0.57129,-0.449219 -0.175781,-0.234375 -0.175781,-0.581055 0,-0.209961 0.117188,-0.46875 -0.126953,0.15625 -0.205078,0.3125 -0.07324,0.151367 -0.07324,0.375977 0,0.463867 0.332032,0.751953 0.332031,0.288086 0.986328,0.585937 0.654297,0.292969 0.942383,0.483399 0.288086,0.185547 0.288086,0.517578 0,0.12207 -0.05859,0.292969 z m -0.03906,-2.861328 -0.04394,-0.561524 q -0.322266,-0.131836 -0.50293,-0.180664 -0.180664,-0.04883 -0.527343,-0.04883 0.36621,0.126953 0.581054,0.297852 0.219727,0.166015 0.493164,0.493164 z m 1.679688,2.148437 v -2.77832 h -0.522461 v -0.249024 q 0.429687,-0.322265 0.644531,-0.493164 0.214844,-0.175781 0.405274,-0.390625 0.195312,-0.214843 0.332031,-0.449218 h 0.258789 v 1.274414 h 1.210937 V 66.81588 H 64.39209 v 2.919922 q 0,0.322265 0.07813,0.483398 0.07813,0.15625 0.263672,0.15625 0.175781,0 0.322265,-0.09766 0.151368,-0.09766 0.366211,-0.302734 l 0.180664,0.190429 q -0.366211,0.375977 -0.673828,0.561524 -0.302734,0.180664 -0.698242,0.180664 -0.375977,0 -0.585937,-0.166016 -0.209961,-0.166016 -0.292969,-0.449219 -0.07813,-0.288086 -0.07813,-0.698242 z m 0.478515,-3.608398 -0.322265,0.268554 v 3.242188 q 0,0.649414 0.166015,0.947266 0.170899,0.292968 0.605469,0.292968 0.229492,0 0.458985,-0.07324 -0.444336,0.01465 -0.678711,-0.205078 -0.229493,-0.224609 -0.229493,-0.742188 z m 7.583008,4.521484 v 0.268555 h -2.392578 v -0.268555 q 0.19043,-0.0098 0.288086,-0.02441 0.102539,-0.01953 0.180664,-0.07324 0.07813,-0.05371 0.112305,-0.161133 0.03906,-0.112305 0.03906,-0.283203 v -2.290039 q 0,-0.454102 -0.205078,-0.664063 -0.205078,-0.214843 -0.493164,-0.214843 -0.483398,0 -1.147461,0.600586 v 2.617187 q 0,0.283203 0.131836,0.380859 0.136719,0.09766 0.527344,0.112305 v 0.268555 h -2.41211 v -0.268555 q 0.327149,-0.0098 0.473633,-0.07813 0.146485,-0.07324 0.146485,-0.341797 v -4.760742 q 0,-0.668945 -0.688477,-0.839844 v -0.200195 l 1.621094,-0.512695 h 0.200195 v 3.291015 q 0.351563,-0.307617 0.761719,-0.473633 0.410156,-0.166015 0.825195,-0.166015 0.429688,0 0.737305,0.151367 0.3125,0.151367 0.483398,0.454102 0.170899,0.297851 0.170899,0.737304 v 2.026367 q 0,0.292969 0.01465,0.41504 0.01953,0.12207 0.131836,0.20996 0.117188,0.08789 0.38086,0.08789 z m -1.611328,-3.022461 v 2.539063 q 0,0.185547 -0.04394,0.27832 -0.04395,0.09277 -0.146485,0.195312 0.3125,-0.0049 0.415039,-0.151367 0.107422,-0.146484 0.107422,-0.46875 v -2.080078 q 0,-0.380859 -0.05371,-0.59082 -0.05371,-0.214844 -0.239257,-0.34668 -0.185547,-0.136719 -0.576172,-0.15625 0.537109,0.200195 0.537109,0.78125 z m -2.978516,-2.158203 v 4.628906 q 0,0.214844 -0.0293,0.322266 -0.02441,0.102539 -0.112305,0.200195 h 0.131836 q 0.112305,0 0.224609,-0.12207 0.112305,-0.126953 0.112305,-0.361328 V 65.28756 q 0,-0.341797 -0.08789,-0.522461 -0.07813,-0.15625 -0.239258,-0.253907 -0.15625,-0.09766 -0.332031,-0.09766 -0.07813,0 -0.268554,0.03418 0.356445,0.131836 0.478515,0.341797 0.12207,0.205078 0.12207,0.537109 z m 8.793946,4.238281 0.195312,0.151367 q -0.219726,0.410157 -0.522461,0.673829 -0.302734,0.263671 -0.668945,0.390625 -0.361328,0.126953 -0.756836,0.126953 -0.537109,0 -1.000976,-0.258789 -0.458985,-0.258789 -0.72754,-0.747071 -0.268554,-0.488281 -0.268554,-1.108398 0,-0.488281 0.161133,-0.917969 0.166015,-0.429687 0.454101,-0.756836 0.292969,-0.327148 0.673828,-0.507812 0.385742,-0.185547 0.820313,-0.185547 0.439453,0 0.834961,0.185547 0.40039,0.180664 0.634765,0.502929 0.170899,0.234375 0.244141,0.483399 0.07813,0.24414 0.12207,0.59082 h -2.949218 q 0.01953,0.507813 0.170898,0.859375 0.15625,0.351563 0.400391,0.566406 0.249023,0.214844 0.527343,0.307618 0.278321,0.09277 0.532227,0.09277 0.615234,0 1.123047,-0.449219 z M 74.675293,67.87545 h 0.341797 q -0.01465,-0.546875 -0.22461,-0.805664 -0.20996,-0.263672 -0.703125,-0.351562 0.3125,0.141601 0.449219,0.371093 0.136719,0.22461 0.136719,0.688477 z m -1.860352,0 h 1.704102 v -0.161133 q 0,-0.283203 -0.102539,-0.502929 -0.102539,-0.22461 -0.283203,-0.341797 -0.175781,-0.122071 -0.405274,-0.122071 -0.371093,0 -0.629882,0.332032 -0.25879,0.327148 -0.283204,0.795898 z m 0.04395,-0.961914 q -0.913086,0.722656 -0.913086,1.894531 0,0.84961 0.541992,1.391602 0.546875,0.537109 1.259766,0.537109 0.415039,0 0.830078,-0.166015 0.419922,-0.170899 0.708008,-0.50293 -0.297852,0.19043 -0.610352,0.3125 -0.307617,0.117187 -0.737305,0.117187 -0.727539,0 -1.21582,-0.507812 -0.483398,-0.507813 -0.483398,-1.323242 0,-0.517578 0.161132,-0.927735 0.161133,-0.410156 0.458985,-0.825195 z M 76.721191,69.5942 V 66.81588 H 76.19873 v -0.249024 q 0.429688,-0.322265 0.644532,-0.493164 0.214843,-0.175781 0.405273,-0.390625 0.195313,-0.214843 0.332031,-0.449218 h 0.258789 v 1.274414 h 1.210938 v 0.307617 h -1.210938 v 2.919922 q 0,0.322265 0.07813,0.483398 0.07813,0.15625 0.263672,0.15625 0.175782,0 0.322266,-0.09766 0.151367,-0.09766 0.366211,-0.302734 l 0.180664,0.190429 q -0.366211,0.375977 -0.673828,0.561524 -0.302735,0.180664 -0.698242,0.180664 -0.375977,0 -0.585938,-0.166016 -0.209961,-0.166016 -0.292969,-0.449219 -0.07813,-0.288086 -0.07813,-0.698242 z m 0.478516,-3.608398 -0.322266,0.268554 v 3.242188 q 0,0.649414 0.166016,0.947266 0.170898,0.292968 0.605469,0.292968 0.229492,0 0.458984,-0.07324 -0.444336,0.01465 -0.678711,-0.205078 -0.229492,-0.224609 -0.229492,-0.742188 z m 3.920898,0.439453 v 3.530273 q 0,0.22461 0.04395,0.341797 0.04883,0.112305 0.175781,0.15625 0.131836,0.04394 0.400391,0.05371 v 0.268555 h -2.280274 v -0.268555 q 0.302735,-0.0098 0.419922,-0.12207 0.12207,-0.112305 0.12207,-0.400391 v -2.241211 q 0,-0.209961 -0.141601,-0.390625 -0.141602,-0.180664 -0.400391,-0.268554 v -0.15625 l 1.459961,-0.50293 z m -0.957031,1.333008 v 2.319336 q 0,0.283203 -0.200195,0.429687 0.268555,0 0.390625,-0.12207 0.126953,-0.122071 0.126953,-0.400391 v -2.290039 q 0,-0.3125 -0.151367,-0.478516 -0.151367,-0.170898 -0.395508,-0.170898 -0.112305,0 -0.180664,0.0098 0.410156,0.214843 0.410156,0.703125 z m 0.356446,-3.710938 q 0.185546,0 0.346679,0.09277 0.161133,0.08789 0.253906,0.24414 0.09277,0.15625 0.09277,0.341797 0,0.185547 -0.09277,0.34668 -0.09277,0.15625 -0.253906,0.249023 -0.161133,0.09277 -0.346679,0.09277 -0.278321,0 -0.478516,-0.205078 -0.200195,-0.205079 -0.200195,-0.483399 0,-0.180664 0.08789,-0.336914 0.09277,-0.161133 0.249024,-0.249023 0.161132,-0.09277 0.341797,-0.09277 z m 0.08301,0.15625 q -0.288086,0 -0.444336,0.136719 -0.15625,0.136719 -0.15625,0.375976 0,0.229493 0.151368,0.38086 0.151367,0.146484 0.449218,0.161133 -0.15625,-0.141602 -0.229492,-0.249024 -0.07324,-0.112304 -0.07324,-0.283203 0,-0.317383 0.302734,-0.522461 z m 4.506836,2.802735 q 0,-0.131836 -0.136718,-0.219727 -0.136719,-0.09277 -0.332032,-0.09277 -0.366211,0 -0.664062,0.214843 -0.297852,0.209961 -0.46875,0.610352 -0.166016,0.395508 -0.166016,0.898437 0,0.463868 0.195313,0.844727 0.200195,0.375976 0.532226,0.585937 0.336914,0.209961 0.732422,0.209961 0.327149,0 0.683594,-0.146484 0.361328,-0.151367 0.576172,-0.385742 l 0.170898,0.229492 q -0.385742,0.556641 -0.927734,0.854492 -0.53711,0.297852 -1.09375,0.297852 -0.517578,0 -0.991211,-0.283203 -0.46875,-0.283204 -0.751953,-0.766602 -0.278321,-0.488281 -0.278321,-1.064453 0,-0.46875 0.170899,-0.893555 0.170898,-0.424804 0.488281,-0.756836 0.322266,-0.336914 0.761719,-0.527343 0.439453,-0.19043 0.97168,-0.19043 0.429687,0 0.78125,0.131836 0.351562,0.126953 0.551757,0.356445 0.205078,0.229492 0.205078,0.50293 0,0.239258 -0.175781,0.395508 -0.175781,0.15625 -0.415039,0.15625 -0.219726,0 -0.366211,-0.151368 -0.141601,-0.15625 -0.141601,-0.332031 0,-0.03418 0.04394,-0.219726 0.04395,-0.19043 0.04395,-0.258789 z m 0.07324,0.478515 q 0,0.15625 0.117188,0.234375 0.12207,0.07813 0.263672,0.07813 0.04395,0 0.239258,-0.03906 -0.302735,-0.06348 -0.302735,-0.3125 0,-0.01953 0.01953,-0.112305 0.02441,-0.09277 0.02441,-0.15625 0,-0.268555 -0.38086,-0.410156 0.107422,0.151367 0.107422,0.27832 0,0.08301 -0.04394,0.224609 -0.04395,0.141602 -0.04395,0.214844 z m -1.37207,-0.756836 q -0.46875,0.175781 -0.795898,0.483399 -0.322266,0.307617 -0.493164,0.717773 -0.170899,0.405274 -0.170899,0.825195 0,0.571289 0.273438,1.025391 0.273437,0.454102 0.717773,0.708008 0.449219,0.249023 0.908203,0.249023 0.668946,0 1.259766,-0.439453 -0.639649,0.209961 -1.030274,0.209961 -0.498046,0 -0.913085,-0.224609 -0.41504,-0.22461 -0.65918,-0.625 -0.244141,-0.400391 -0.244141,-0.893555 0,-0.571289 0.292969,-1.09375 0.297852,-0.527344 0.854492,-0.942383 z m 2.871094,3.808594 v -1.279297 h 0.263672 q 0.371094,0.65918 0.776367,0.996094 0.405273,0.332031 0.791016,0.332031 0.249023,0 0.444336,-0.161133 0.195312,-0.161133 0.195312,-0.366211 0,-0.268554 -0.146484,-0.371093 -0.551758,-0.366211 -1.059571,-0.561524 -1.342773,-0.498047 -1.342773,-1.420898 0,-0.546875 0.419922,-0.913086 0.419922,-0.366211 1.132812,-0.366211 0.361328,0 0.673828,0.07813 0.3125,0.07324 0.69336,0.214844 l 0.04883,1.157226 h -0.239258 q -0.395508,-0.585937 -0.786133,-0.883789 -0.385742,-0.297851 -0.761718,-0.297851 -0.234375,0 -0.390625,0.15625 -0.151368,0.151367 -0.151368,0.336914 0,0.239257 0.19043,0.380859 0.19043,0.136719 0.800781,0.410156 0.610352,0.273438 1.069336,0.527344 0.288086,0.151367 0.458985,0.424805 0.170898,0.273437 0.170898,0.595703 0,0.375976 -0.219727,0.693359 -0.214843,0.317383 -0.600585,0.50293 -0.38086,0.185547 -0.859375,0.185547 -0.678711,0 -1.572266,-0.371094 z m 0.180664,-0.849609 v 0.610351 q 0.244141,0.107422 0.810547,0.258789 -0.302735,-0.209961 -0.449219,-0.375976 -0.146484,-0.166016 -0.361328,-0.493164 z m 2.392578,0.620117 q 0.131836,-0.122071 0.195313,-0.219727 0.06348,-0.102539 0.06348,-0.273437 0,-0.522461 -0.761719,-0.830078 -0.683593,-0.283204 -1.079101,-0.498047 -0.395508,-0.219727 -0.571289,-0.449219 -0.175781,-0.234375 -0.175781,-0.581055 0,-0.209961 0.117187,-0.46875 -0.126953,0.15625 -0.205078,0.3125 -0.07324,0.151367 -0.07324,0.375977 0,0.463867 0.332031,0.751953 0.332031,0.288086 0.986328,0.585937 0.654297,0.292969 0.942383,0.483399 0.288086,0.185547 0.288086,0.517578 0,0.12207 -0.05859,0.292969 z m -0.03906,-2.861328 -0.04395,-0.561524 q -0.322265,-0.131836 -0.502929,-0.180664 -0.180664,-0.04883 -0.527344,-0.04883 0.366211,0.126953 0.581055,0.297852 0.219726,0.166015 0.493164,0.493164 z"
       id="text5"
       style="font-size:10px;line-height:0;font-family:'Imprint MT Shadow';-inkscape-font-specification:'Imprint MT Shadow, Normal';stroke-width:0.05;stroke:#000000;stroke-opacity:1;stroke-dasharray:none;fill:#ffffff;fill-opacity:1"
       aria-label="Railway Aesthetics" />
    <text
       xml:space="preserve"
       style="font-size:10px;line-height:0;font-family:'Imprint MT Shadow';-inkscape-font-specification:'Imprint MT Shadow, Normal';text-align:start;writing-mode:lr-tb;direction:ltr;text-anchor:start;fill:#ffffff;fill-opacity:1;stroke:#000000;stroke-width:0.0499999;stroke-dasharray:none;stroke-opacity:1"
       x="36.563343"
       y="82.267525"
       id="text3"><tspan
         sodipodi:role="line"
         id="tspan3"
         style="stroke-width:0.05"
         x="36.563343"
         y="82.267525" /></text>
    <path
       style="font-size:13px;line-height:0;font-family:'Imprint MT Shadow';-inkscape-font-specification:'Imprint MT Shadow, Normal';fill:#8aff99;stroke:#000000;stroke-width:0.05"
       d="m 36.714355,75.25975 v -0.349121 h 3.795899 v 0.349121 q -0.425293,0.05713 -0.869629,0.253907 -0.437988,0.196777 -0.869629,0.507812 -0.431641,0.304688 -0.977539,0.774414 l -1.529785,1.352051 3.364258,4.208496 q 0.374511,0.469727 0.596679,0.685547 0.222168,0.21582 0.450684,0.330078 0.234863,0.10791 0.539551,0.145996 v 0.349121 h -4.265625 v -0.349121 q 1.015625,0 1.015625,-0.457031 0,-0.158692 -0.101563,-0.323731 -0.101562,-0.171386 -0.272949,-0.380859 l -2.513672,-3.14209 -0.793457,0.710938 v 2.431152 q 0,0.520508 0.152344,0.793457 0.158691,0.272949 0.564941,0.317383 0.209473,0.0127 0.342774,0.03174 0.139648,0.01269 0.241211,0.01904 v 0.349121 h -4.329102 v -0.349121 h 0.196777 q 0.558594,0 0.825196,-0.133301 0.266601,-0.1333 0.342773,-0.380859 0.07617,-0.253906 0.07617,-0.672852 v -5.966796 q 0,-0.425293 -0.09522,-0.647461 -0.09521,-0.228516 -0.40625,-0.342774 -0.304687,-0.114258 -0.939453,-0.114258 v -0.349121 h 4.329102 v 0.349121 h -0.08887 q -0.742675,0 -0.977539,0.234864 -0.234863,0.234863 -0.234863,0.793457 v 3.161132 l 2.577149,-2.304199 q 0.43164,-0.387207 0.64746,-0.679199 0.222168,-0.29834 0.222168,-0.564941 0,-0.285645 -0.203125,-0.463379 -0.196777,-0.177735 -0.564941,-0.177735 z m 2.418457,0 h -1.491699 q 0.29834,0.247559 0.29834,0.545899 0,0.190429 -0.09522,0.393554 0.431641,-0.393554 0.679199,-0.583984 0.247559,-0.196777 0.609375,-0.355469 z m -1.02832,6.77295 -2.570801,-3.22461 -0.285644,0.260254 2.393066,3.046875 q 0.272949,0.330078 0.399903,0.545899 0.1333,0.21582 0.1333,0.425293 0,0.272949 -0.311035,0.43164 h 0.165039 q 0.253907,0 0.412598,-0.152344 0.158691,-0.152343 0.158691,-0.355468 0,-0.361817 -0.495117,-0.977539 z m -4.79248,0.380859 v -5.998535 q 0,-0.698242 -0.152344,-0.926758 -0.152344,-0.234863 -0.736328,-0.228516 0.311035,0.139649 0.393555,0.342774 0.08887,0.203125 0.08887,0.92041 v 5.992187 q 0,0.476075 -0.10791,0.672852 -0.101563,0.196777 -0.425293,0.330078 h 0.158691 q 0.387207,0 0.552246,-0.120605 0.165039,-0.126953 0.196777,-0.336426 0.03174,-0.21582 0.03174,-0.647461 z m 13.349121,-0.120606 0.253906,0.196778 q -0.285644,0.533203 -0.679199,0.875976 -0.393555,0.342774 -0.869629,0.507813 -0.469727,0.165039 -0.983887,0.165039 -0.698242,0 -1.301269,-0.336426 -0.59668,-0.336426 -0.945801,-0.971191 -0.349121,-0.634766 -0.349121,-1.440918 0,-0.634766 0.209472,-1.19336 0.215821,-0.558593 0.590332,-0.983886 0.38086,-0.425293 0.875977,-0.660157 0.501465,-0.24121 1.066406,-0.24121 0.571289,0 1.08545,0.24121 0.520507,0.234864 0.825195,0.653809 0.222168,0.304688 0.317383,0.628418 0.101562,0.317383 0.158691,0.768066 h -3.833984 q 0.02539,0.660157 0.222168,1.117188 0.203125,0.457031 0.520507,0.736328 0.323731,0.279297 0.685547,0.399902 0.361817,0.120606 0.691895,0.120606 0.799805,0 1.459961,-0.583985 z m -1.123535,-2.196289 h 0.444336 q -0.01904,-0.710937 -0.291993,-1.047363 -0.272949,-0.342773 -0.914062,-0.457031 0.40625,0.184082 0.583984,0.482422 0.177735,0.291992 0.177735,0.895019 z m -2.418457,0 h 2.215332 v -0.209472 q 0,-0.368164 -0.133301,-0.653809 -0.133301,-0.291992 -0.368164,-0.444336 -0.228516,-0.158691 -0.526856,-0.158691 -0.482422,0 -0.818847,0.43164 -0.336426,0.425293 -0.368164,1.034668 z m 0.05713,-1.250488 q -1.187012,0.939453 -1.187012,2.462891 0,1.104492 0.70459,1.809082 0.710937,0.698242 1.637695,0.698242 0.539551,0 1.079102,-0.21582 0.545898,-0.222168 0.92041,-0.653809 -0.387207,0.247559 -0.793457,0.40625 -0.399903,0.152344 -0.958496,0.152344 -0.945801,0 -1.580567,-0.660156 -0.628418,-0.660157 -0.628418,-1.720215 0,-0.672852 0.209473,-1.206055 0.209472,-0.533203 0.59668,-1.072754 z m 6.658691,-0.634765 v 0.977539 q 0.488769,-0.552247 0.749023,-0.761719 0.260254,-0.21582 0.628418,-0.21582 0.317383,0 0.533203,0.228515 0.222168,0.222168 0.222168,0.564942 0,0.355468 -0.196777,0.596679 -0.196777,0.234864 -0.495117,0.234864 -0.133301,0 -0.291992,-0.05078 -0.158692,-0.05078 -0.266602,-0.133301 -0.06348,-0.05078 -0.133301,-0.10791 -0.06982,-0.05713 -0.126953,-0.08887 -0.05078,-0.03174 -0.114258,-0.03174 -0.120605,0 -0.241211,0.09522 -0.114257,0.08887 -0.266601,0.253906 v 3.065918 q 0,0.330078 0.08887,0.469726 0.09522,0.139649 0.285645,0.177735 0.196777,0.03174 0.679199,0.03174 v 0.349121 H 47.47998 v -0.349121 h 0.171387 q 0.736328,0 0.736328,-0.583984 v -2.850098 q 0,-0.72998 -0.907715,-1.00293 v -0.21582 l 2.043946,-0.653808 z m -1.237793,1.872558 v 2.888184 q 0,0.21582 -0.06982,0.32373 -0.06982,0.101563 -0.203125,0.222168 0.361816,-0.03174 0.520508,-0.19043 0.158691,-0.165039 0.158691,-0.564941 v -2.678711 q 0,-0.545898 -0.19043,-0.793457 -0.190429,-0.247559 -0.603027,-0.247559 -0.03174,0 -0.139649,0.0127 -0.10791,0.01269 -0.145996,0.01269 0.672852,0.291992 0.672852,1.015625 z m 1.663086,-0.895019 q 0.171387,0 0.342773,0.114257 0.393555,0.311036 0.660157,0.311036 0.330078,0 0.482421,-0.425293 -0.177734,0.08887 -0.260253,0.08887 -0.19043,0 -0.38086,-0.126953 -0.241211,-0.196778 -0.399902,-0.196778 -0.152344,0 -0.444336,0.234864 z m 4.367187,-0.977539 v 0.844238 q 0.533204,-0.412598 0.983887,-0.628418 0.457031,-0.21582 1.085449,-0.21582 1.796387,0 1.796387,1.783691 v 2.894531 q 0,0.412598 0.196777,0.520508 0.196778,0.10791 0.59668,0.10791 v 0.349121 h -3.05957 v -0.349121 q 0.40625,0 0.590332,-0.126953 0.190429,-0.133301 0.190429,-0.552246 v -3.065918 q 0,-0.336426 -0.10791,-0.564941 -0.101562,-0.234864 -0.304687,-0.355469 -0.203125,-0.120606 -0.495117,-0.120606 -0.361817,0 -0.710938,0.19043 -0.342773,0.184082 -0.761719,0.564941 v 3.351563 q 0,0.285644 0.09522,0.437988 0.09521,0.152344 0.253906,0.19043 0.16504,0.03809 0.469727,0.05078 v 0.349121 h -3.065918 v -0.349121 q 0.387207,0 0.59668,-0.101562 0.209472,-0.107911 0.209472,-0.482422 v -2.812012 q 0,-0.418945 -0.190429,-0.672852 -0.19043,-0.260253 -0.615723,-0.393554 v -0.209473 l 2.005859,-0.634765 z m -1.231445,1.701171 v 2.913575 q 0,0.285644 -0.04443,0.412597 -0.03809,0.126953 -0.177734,0.279297 0.62207,-0.05713 0.62207,-0.691894 v -3.027832 q 0,-0.317383 -0.228515,-0.539551 -0.222168,-0.228516 -0.520508,-0.228516 -0.03174,0 -0.114258,0.01269 -0.08252,0.0127 -0.10791,0.0127 0.571289,0.260254 0.571289,0.856933 z m 3.821289,-0.203125 v 3.129395 q 0,0.196777 -0.01269,0.291992 -0.0063,0.08887 -0.05078,0.177734 -0.03809,0.08252 -0.158692,0.209473 h 0.120606 q 0.330078,0 0.437988,-0.241211 0.10791,-0.247558 0.10791,-0.736328 v -2.805664 q 0,-0.545898 -0.241211,-0.831543 -0.241211,-0.285644 -0.850586,-0.311035 0.342774,0.139648 0.495117,0.40625 0.152344,0.260254 0.152344,0.710937 z m 7.598145,2.583496 0.253906,0.196778 q -0.285645,0.533203 -0.679199,0.875976 -0.393555,0.342774 -0.869629,0.507813 -0.469727,0.165039 -0.983887,0.165039 -0.698242,0 -1.301269,-0.336426 -0.59668,-0.336426 -0.945801,-0.971191 -0.349121,-0.634766 -0.349121,-1.440918 0,-0.634766 0.209472,-1.19336 0.215821,-0.558593 0.590332,-0.983886 0.38086,-0.425293 0.875977,-0.660157 0.501465,-0.24121 1.066406,-0.24121 0.571289,0 1.085449,0.24121 0.520508,0.234864 0.825196,0.653809 0.222168,0.304688 0.317383,0.628418 0.101562,0.317383 0.158691,0.768066 h -3.833984 q 0.02539,0.660157 0.222168,1.117188 0.203125,0.457031 0.520507,0.736328 0.323731,0.279297 0.685547,0.399902 0.361817,0.120606 0.691895,0.120606 0.799804,0 1.459961,-0.583985 z m -1.123535,-2.196289 h 0.444335 q -0.01904,-0.710937 -0.291992,-1.047363 -0.272949,-0.342773 -0.914062,-0.457031 0.40625,0.184082 0.583984,0.482422 0.177735,0.291992 0.177735,0.895019 z m -2.418458,0 h 2.215333 v -0.209472 q 0,-0.368164 -0.133301,-0.653809 -0.133301,-0.291992 -0.368164,-0.444336 -0.228516,-0.158691 -0.526856,-0.158691 -0.482422,0 -0.818847,0.43164 -0.336426,0.425293 -0.368165,1.034668 z m 0.05713,-1.250488 q -1.187011,0.939453 -1.187011,2.462891 0,1.104492 0.70459,1.809082 0.710937,0.698242 1.637695,0.698242 0.539551,0 1.079101,-0.21582 0.545899,-0.222168 0.920411,-0.653809 -0.387207,0.247559 -0.793457,0.40625 -0.399903,0.152344 -0.958497,0.152344 -0.9458,0 -1.580566,-0.660156 -0.628418,-0.660157 -0.628418,-1.720215 0,-0.672852 0.209473,-1.206055 0.209472,-0.533203 0.596679,-1.072754 z m 5.109864,4.030762 V 76.85936 q 0,-0.482422 -0.152344,-0.755371 -0.152344,-0.27295 -0.70459,-0.476075 v -0.247558 l 2.062988,-0.679199 h 0.247559 v 7.940918 q 0,0.495117 0.10791,0.685546 0.114258,0.19043 0.571289,0.19043 h 0.171387 v 0.349121 h -3.161133 v -0.349121 h 0.152344 q 0.374512,0 0.539551,-0.158691 0.165039,-0.158692 0.165039,-0.482422 z m 0.62207,-0.260254 v -5.719238 q 0,-0.450684 -0.04443,-0.717285 -0.03809,-0.27295 -0.234863,-0.450684 -0.19043,-0.184082 -0.615723,-0.184082 -0.209472,0 -0.336425,0.0127 0.583984,0.165039 0.698242,0.48877 0.120605,0.32373 0.120605,0.850586 v 5.941406 q 0,0.431641 -0.260254,0.679199 0.444336,-0.01904 0.558594,-0.241211 0.114258,-0.228515 0.114258,-0.660156 z"
       id="text4"
       aria-label="Kernel" />
  </g>
</svg>
