# Blender 4.0.2
# www.blender.org
mtllib 45d_moretop_expand-hrigid.mtl
o moretop_1.001
v -1.188951 -0.744966 -1.211048
v -1.188951 -0.776216 -1.211048
v -1.211048 -0.744966 -1.188951
v -1.211048 -0.776216 -1.188951
v -0.201405 -0.770482 -0.187420
v -0.187420 -0.770482 -0.201405
v -0.187420 -0.750704 -0.201405
v -0.201405 -0.750704 -0.187420
v -0.205461 -0.776218 -0.183364
v -0.183364 -0.776218 -0.205461
v -0.183364 -0.744968 -0.205461
v -0.205461 -0.744968 -0.183364
v -0.205461 -0.776218 -0.183364
v -0.183364 -0.776218 -0.205461
v -0.183364 -0.744968 -0.205461
v -0.205461 -0.744968 -0.183364
v -0.180598 -0.776218 -0.158501
v -0.158501 -0.776218 -0.180598
v -0.158501 -0.744968 -0.180598
v -0.180598 -0.744968 -0.158501
v -0.262030 -0.776218 -0.126796
v -0.262030 -0.744968 -0.126796
v -0.237166 -0.776218 -0.101932
v -0.237166 -0.744968 -0.101932
v -0.126796 -0.776218 -0.262030
v -0.126796 -0.744968 -0.262030
v -0.101932 -0.776218 -0.237166
v -0.101932 -0.744968 -0.237166
v -0.244798 -0.749189 -0.161770
v -0.244798 -0.771994 -0.161770
v -0.260923 -0.749189 -0.145645
v -0.260923 -0.771994 -0.145645
v -0.145645 -0.749189 -0.260923
v -0.145645 -0.771994 -0.260923
v -0.161770 -0.749189 -0.244798
v -0.161770 -0.771994 -0.244798
v -0.243027 -0.773125 -0.225304
v -0.225304 -0.773125 -0.243027
v -0.225304 -0.748061 -0.243027
v -0.243027 -0.748061 -0.225304
v -1.188951 0.305034 -1.211048
v -1.188951 0.273784 -1.211048
v -1.211048 0.305034 -1.188951
v -1.211048 0.273784 -1.188951
v 1.185345 0.273782 1.214655
v 1.207442 0.273782 1.192558
v 1.207442 0.305032 1.192558
v 1.185345 0.305032 1.214655
v 1.196393 1.801095 1.203606
v -1.200001 1.801096 -1.200000
v 1.223832 1.804917 1.176168
v -1.172562 1.804919 -1.227439
v 1.250216 1.816235 1.149784
v -1.146178 1.816237 -1.253823
v 1.274532 1.834616 1.125467
v -1.121861 1.834618 -1.278139
v 1.295846 1.859352 1.104154
v -1.100548 1.859354 -1.299453
v 1.313337 1.889494 1.086663
v -1.083056 1.889496 -1.316944
v 1.326334 1.923882 1.073666
v -1.070060 1.923883 -1.329941
v 1.334338 1.961195 1.065662
v -1.062056 1.961197 -1.337945
v 1.337040 1.999999 1.062960
v -1.059354 2.000000 -1.340647
v 1.334338 2.038803 1.065662
v -1.062056 2.038805 -1.337945
v 1.326334 2.076117 1.073666
v -1.070060 2.076118 -1.329941
v 1.313337 2.110504 1.086663
v -1.083056 2.110506 -1.316944
v 1.295846 2.140646 1.104154
v -1.100548 2.140648 -1.299453
v 1.274532 2.165381 1.125467
v -1.121861 2.165384 -1.278139
v 1.250216 2.183763 1.149784
v -1.146178 2.183764 -1.253823
v 1.223832 2.195081 1.176168
v -1.172562 2.195083 -1.227439
v 1.196393 2.198904 1.203606
v -1.200001 2.198905 -1.200000
v 1.168955 2.195081 1.231045
v -1.227439 2.195083 -1.172562
v 1.142571 2.183763 1.257429
v -1.253824 2.183764 -1.146177
v 1.118255 2.165381 1.281745
v -1.278139 2.165384 -1.121861
v 1.096941 2.140646 1.303059
v -1.299453 2.140648 -1.100548
v 1.079450 2.110504 1.320550
v -1.316944 2.110506 -1.083057
v 1.066453 2.076117 1.333547
v -1.329942 2.076118 -1.070059
v 1.058449 2.038803 1.341551
v -1.337945 2.038805 -1.062056
v 0.354329 1.999999 0.635621
v -1.340647 2.000000 -1.059354
v 1.058449 1.961195 1.341551
v -1.337945 1.961197 -1.062056
v 1.066453 1.923882 1.333547
v -1.329942 1.923883 -1.070059
v 1.079450 1.889494 1.320550
v -1.316944 1.889496 -1.083057
v 1.096941 1.859352 1.303059
v -1.299453 1.859354 -1.100548
v 1.118255 1.834616 1.281745
v -1.278139 1.834618 -1.121861
v 1.142571 1.816235 1.257429
v -1.253824 1.816237 -1.146177
v 1.168955 1.804917 1.231045
v -1.227439 1.804919 -1.172562
v -0.044988 1.841550 0.067085
v -0.016970 1.841550 0.039067
v -0.044988 -0.061852 0.067085
v -0.016970 -0.061852 0.039067
v -0.039067 1.841550 0.016970
v -0.067085 1.841550 0.044988
v -0.039067 -0.061852 0.016970
v -0.067085 -0.061852 0.044988
v 0.039067 1.841550 -0.016970
v 0.067085 1.841550 -0.044988
v 0.039067 -0.061852 -0.016970
v 0.067085 -0.061852 -0.044988
v 0.044988 1.841550 -0.067085
v 0.016970 1.841550 -0.039067
v 0.044988 -0.061852 -0.067085
v 0.016970 -0.061852 -0.039067
v -0.044194 -0.040812 0.132583
v 0.132583 -0.040812 -0.044194
v -0.044194 -0.072062 0.132583
v 0.132583 -0.072062 -0.044194
v 0.044194 -0.040812 -0.132583
v -0.132583 -0.040812 0.044194
v 0.044194 -0.072062 -0.132583
v -0.132583 -0.072062 0.044194
v -0.244798 -0.749189 -0.161770
v -0.244798 -0.771994 -0.161770
v -0.260923 -0.749189 -0.145645
v -0.260923 -0.771994 -0.145645
v 0.145645 -0.771995 0.260923
v 0.161770 -0.771995 0.244798
v 0.161770 -0.749190 0.244798
v 0.145645 -0.749190 0.260923
v -0.145645 -0.749189 -0.260923
v -0.145645 -0.771994 -0.260923
v -0.161770 -0.749189 -0.244798
v -0.161770 -0.771994 -0.244798
v 0.244798 -0.771995 0.161770
v 0.260923 -0.771995 0.145645
v 0.260923 -0.749190 0.145645
v 0.244798 -0.749190 0.161770
v 1.185345 -0.744966 1.214655
v 1.185345 -0.776216 1.214655
v 1.207442 -0.744966 1.192558
v 1.207442 -0.776216 1.192558
v 0.201405 -0.770482 0.187420
v 0.187421 -0.770482 0.201405
v 0.187421 -0.750704 0.201405
v 0.201405 -0.750704 0.187420
v 0.205461 -0.776218 0.183364
v 0.183364 -0.776218 0.205461
v 0.183364 -0.744968 0.205461
v 0.205461 -0.744968 0.183364
v 0.205461 -0.776218 0.183364
v 0.183364 -0.776218 0.205461
v 0.183364 -0.744968 0.205461
v 0.205461 -0.744968 0.183364
v 0.180598 -0.776218 0.158501
v 0.158501 -0.776218 0.180598
v 0.158501 -0.744968 0.180598
v 0.180598 -0.744968 0.158501
v 0.262030 -0.776218 0.126796
v 0.262030 -0.744968 0.126796
v 0.237166 -0.776218 0.101932
v 0.237166 -0.744968 0.101932
v 0.126796 -0.776218 0.262030
v 0.126796 -0.744968 0.262030
v 0.101932 -0.776218 0.237166
v 0.101932 -0.744968 0.237166
v 0.244798 -0.749189 0.161770
v 0.244798 -0.771994 0.161770
v 0.260923 -0.749189 0.145645
v 0.260923 -0.771994 0.145645
v 0.145645 -0.749189 0.260923
v 0.145645 -0.771994 0.260923
v 0.161770 -0.749189 0.244798
v 0.161770 -0.771994 0.244798
v 0.243027 -0.773125 0.225304
v 0.225304 -0.773125 0.243027
v 0.225304 -0.748061 0.243027
v 0.243027 -0.748061 0.225304
vn 0.0029 -1.0000 0.0029
vn 0.7100 -0.0000 -0.7042
vn 0.0029 1.0000 0.0029
vn -0.7042 -0.0000 0.7100
vn -0.7071 -0.0000 -0.7071
vn -0.7071 -0.0000 0.7071
vn -0.0000 -0.0000 1.0000
vn -0.0000 1.0000 -0.0000
vn 0.7071 -0.0000 0.7071
vn -0.0000 -1.0000 -0.0000
vn 0.7071 -0.0000 -0.7071
vn -0.0388 0.9985 -0.0388
vn 0.6672 -0.0000 -0.7449
vn -0.7449 -0.0000 0.6672
vn -0.0388 -0.9985 -0.0388
vn 0.7082 -0.0000 -0.7060
vn -0.7082 -0.0000 0.7060
vn 0.0694 -0.9952 -0.0692
vn 0.2056 -0.9569 -0.2049
vn 0.3338 -0.8819 -0.3328
vn 0.4492 -0.7730 -0.4479
vn 0.5474 -0.6344 -0.5458
vn 0.6245 -0.4714 -0.6227
vn 0.6777 -0.2903 -0.6756
vn 0.7048 -0.0980 -0.7026
vn 0.7048 0.0980 -0.7026
vn 0.6777 0.2903 -0.6756
vn 0.6245 0.4714 -0.6227
vn 0.5474 0.6344 -0.5458
vn 0.4492 0.7730 -0.4479
vn 0.3338 0.8819 -0.3328
vn 0.2056 0.9569 -0.2049
vn 0.0694 0.9952 -0.0692
vn -0.0694 0.9952 0.0692
vn -0.2056 0.9569 0.2049
vn -0.3338 0.8819 0.3328
vn -0.4492 0.7730 0.4479
vn -0.5474 0.6344 0.5458
vn -0.6245 0.4714 0.6227
vn -0.6777 0.2903 0.6756
vn -0.7070 0.0440 0.7058
vn -0.7070 -0.0440 0.7058
vn -0.6777 -0.2903 0.6756
vn -0.6245 -0.4714 0.6227
vn -0.5474 -0.6344 0.5458
vn -0.4493 -0.7730 0.4479
vn -0.3338 -0.8819 0.3328
vn -0.2056 -0.9569 0.2049
vn -0.0694 -0.9952 0.0692
vn 0.4630 -0.0000 0.8864
vn -0.0029 -1.0000 -0.0029
vn -0.7125 -0.0000 0.7017
vn -0.0029 1.0000 -0.0029
vn 0.7068 -0.0000 -0.7074
vn 0.0388 0.9985 0.0388
vn -0.6672 -0.0000 0.7449
vn 0.7449 -0.0000 -0.6672
vn 0.0388 -0.9985 0.0388
vt 0.198256 0.240736
vt 0.421867 0.230681
vt 0.421923 0.231920
vt 0.198311 0.241975
vt 0.198033 0.235780
vt 0.421644 0.225725
vt 0.421700 0.226964
vt 0.198088 0.237019
vt 0.421978 0.233159
vt 0.198367 0.243214
vt 0.421756 0.228203
vt 0.198144 0.238258
vt 0.420851 0.235693
vt 0.422090 0.235637
vt 0.422146 0.236876
vt 0.420907 0.236932
vt 0.071531 0.116077
vt 0.072482 0.114131
vt 0.072482 0.113371
vt 0.073337 0.113371
vt 0.073337 0.114131
vt 0.074953 0.113371
vt 0.074953 0.114131
vt 0.074192 0.114131
vt 0.074192 0.113371
vt 0.074953 0.116077
vt 0.074192 0.116077
vt 0.073337 0.111425
vt 0.074192 0.111425
vt 0.073147 0.118879
vt 0.072386 0.118879
vt 0.072386 0.118024
vt 0.073147 0.118024
vt 0.073907 0.118024
vt 0.073147 0.116077
vt 0.073907 0.116077
vt 0.072482 0.111425
vt 0.074953 0.111425
vt 0.073907 0.118879
vt 0.073337 0.116077
vt 0.074667 0.116077
vt 0.074667 0.118024
vt 0.072482 0.116077
vt 0.838795 0.089494
vt 0.837623 0.089494
vt 0.837623 0.088323
vt 0.838795 0.088323
vt 0.836451 0.089494
vt 0.836451 0.088323
vt 0.799888 0.217001
vt 0.831757 0.217001
vt 0.831757 0.248870
vt 0.799888 0.248869
vt 0.422034 0.234398
vt 0.198423 0.244453
vt 0.421811 0.229442
vt 0.198200 0.239497
vt 0.198478 0.245692
vt 0.419612 0.235748
vt 0.419668 0.236987
vt 0.468958 0.361366
vt 0.468958 0.562330
vt 0.463361 0.562330
vt 0.463361 0.361366
vt 0.457871 0.562330
vt 0.457871 0.361366
vt 0.452700 0.562330
vt 0.452700 0.361366
vt 0.448046 0.562330
vt 0.448046 0.361366
vt 0.568598 0.562330
vt 0.568599 0.361366
vt 0.573252 0.361366
vt 0.573252 0.562330
vt 0.578423 0.361366
vt 0.578424 0.562330
vt 0.583913 0.361366
vt 0.583913 0.562330
vt 0.589510 0.361366
vt 0.589510 0.562330
vt 0.595000 0.361366
vt 0.595000 0.562330
vt 0.600171 0.361366
vt 0.600171 0.562330
vt 0.604825 0.361366
vt 0.604825 0.562330
vt 0.608783 0.361366
vt 0.608782 0.562330
vt 0.528414 0.361366
vt 0.528414 0.562330
vt 0.523760 0.562330
vt 0.523760 0.361366
vt 0.518589 0.562330
vt 0.518589 0.361366
vt 0.513100 0.562330
vt 0.513100 0.361366
vt 0.507503 0.562330
vt 0.507503 0.361366
vt 0.502013 0.562330
vt 0.502013 0.361366
vt 0.496842 0.562330
vt 0.496842 0.361366
vt 0.492188 0.562330
vt 0.492188 0.361366
vt 0.488230 0.562330
vt 0.488230 0.361366
vt 0.568598 0.361366
vt 0.564641 0.562330
vt 0.564640 0.361366
vt 0.559987 0.562330
vt 0.559987 0.361366
vt 0.554816 0.562330
vt 0.554816 0.361366
vt 0.549326 0.562330
vt 0.549326 0.361366
vt 0.543729 0.562330
vt 0.543729 0.361366
vt 0.538239 0.562330
vt 0.538239 0.361366
vt 0.533068 0.562330
vt 0.533068 0.361366
vt 0.484272 0.562330
vt 0.484272 0.361366
vt 0.479618 0.562330
vt 0.479618 0.361366
vt 0.448046 0.536714
vt 0.446954 0.542203
vt 0.444812 0.547374
vt 0.441703 0.552028
vt 0.437745 0.555986
vt 0.433091 0.559096
vt 0.427920 0.561238
vt 0.422430 0.562330
vt 0.416833 0.562330
vt 0.411344 0.561238
vt 0.406172 0.559096
vt 0.401518 0.555986
vt 0.397561 0.552028
vt 0.394451 0.547374
vt 0.392309 0.542203
vt 0.391217 0.536714
vt 0.391217 0.531116
vt 0.392309 0.525627
vt 0.394451 0.520456
vt 0.397561 0.515802
vt 0.401519 0.511844
vt 0.406172 0.508735
vt 0.411344 0.506593
vt 0.416833 0.505501
vt 0.422430 0.505501
vt 0.427920 0.506593
vt 0.433091 0.508735
vt 0.437745 0.511844
vt 0.441703 0.515802
vt 0.444812 0.520456
vt 0.446954 0.525627
vt 0.448046 0.531117
vt 0.474447 0.562330
vt 0.474447 0.361366
vt 0.394452 0.490546
vt 0.392310 0.485375
vt 0.391217 0.479886
vt 0.391217 0.474288
vt 0.392309 0.468799
vt 0.394451 0.463628
vt 0.397561 0.458974
vt 0.401518 0.455016
vt 0.406172 0.451906
vt 0.411343 0.449764
vt 0.416833 0.448672
vt 0.422430 0.448672
vt 0.427919 0.449764
vt 0.433090 0.451906
vt 0.437744 0.455015
vt 0.441702 0.458973
vt 0.444812 0.463627
vt 0.446954 0.468798
vt 0.448046 0.474287
vt 0.448046 0.479884
vt 0.446954 0.485374
vt 0.444812 0.490545
vt 0.441703 0.495199
vt 0.437745 0.499157
vt 0.433091 0.502267
vt 0.427921 0.504409
vt 0.422431 0.505501
vt 0.416834 0.505501
vt 0.411344 0.504409
vt 0.406173 0.502267
vt 0.401519 0.499158
vt 0.397561 0.495200
vt 0.007812 0.914062
vt 0.000000 0.914062
vt 0.000000 1.000000
vt 0.007812 1.000000
vt 0.023438 0.914062
vt 0.023438 1.000000
vt 0.000000 0.992188
vt 0.031250 0.992188
vt 0.031250 1.000000
vt 0.062500 0.992188
vt 0.062500 1.000000
vt 0.000000 0.937500
vt 0.031250 0.937500
vt 0.829089 0.072577
vt 0.829089 0.099299
vt 0.827917 0.099299
vt 0.827917 0.072577
vt 0.823229 0.099299
vt 0.823229 0.072577
vt 0.824401 0.072577
vt 0.824401 0.099299
vt 0.830260 0.072577
vt 0.830260 0.099299
vt 0.825573 0.072577
vt 0.825573 0.099299
vt 0.839967 0.088323
vt 0.839967 0.089494
vt 0.831432 0.072577
vt 0.831432 0.099299
vt 0.826745 0.072577
vt 0.826745 0.099299
vt 0.832604 0.072577
vt 0.832604 0.099299
vt 0.839229 0.086516
vt 0.840401 0.086516
vt 0.840401 0.087688
vt 0.839229 0.087688
s 0
usemtl caizhi.006
f 2/1/1 6/2/1 5/3/1 4/4/1
f 1/5/2 7/6/2 6/7/2 2/8/2
f 3/4/3 8/3/3 7/9/3 1/10/3
f 4/8/4 5/7/4 8/11/4 3/12/4
f 2/13/5 4/14/5 3/15/5 1/16/5
f 12/17/6 9/17/7 13/17/6 16/17/7
f 15/18/8 16/19/8 20/20/8 19/21/8
f 9/17/7 10/17/7 14/17/7 13/17/7
f 11/17/7 12/17/7 16/17/7 15/17/7
f 10/17/6 11/17/7 15/17/6 14/17/7
f 17/22/9 18/23/9 19/24/9 20/25/9
f 19/24/9 18/23/9 27/26/9 28/27/9
f 13/25/10 17/20/10 23/28/10 21/29/10
f 13/25/10 14/24/10 18/21/10 17/20/10
f 22/30/6 21/31/6 23/32/6 24/33/6
f 16/34/5 13/33/5 21/35/5 22/36/5
f 20/20/8 16/19/8 22/37/8 24/28/8
f 17/22/9 20/25/9 24/29/9 23/38/9
f 25/33/11 26/34/11 28/39/11 27/30/11
f 18/21/10 14/24/10 25/27/10 27/40/10
f 14/36/5 15/41/5 26/42/5 25/34/5
f 15/18/8 19/21/8 28/40/8 26/43/8
f 30/44/5 32/45/5 31/46/5 29/47/5
f 34/45/5 36/48/5 35/49/5 33/46/5
f 12/17/12 11/17/12 39/17/12 40/17/12
f 37/17/5 40/17/5 39/17/5 38/17/5
f 11/17/13 10/17/13 38/17/13 39/17/13
f 9/17/14 12/17/14 40/17/14 37/17/14
f 10/17/15 9/17/15 37/17/15 38/17/15
f 45/50/9 46/51/9 47/52/9 48/53/9
f 42/10/10 46/9/10 45/54/10 44/55/10
f 41/12/16 47/11/16 46/56/16 42/57/16
f 43/55/8 48/54/8 47/14/8 41/58/8
f 44/57/17 45/56/17 48/2/17 43/1/17
f 42/59/5 44/13/5 43/16/5 41/60/5
f 49/61/18 50/62/18 52/63/18 51/64/18
f 51/64/19 52/63/19 54/65/19 53/66/19
f 53/66/20 54/65/20 56/67/20 55/68/20
f 55/68/21 56/67/21 58/69/21 57/70/21
f 57/71/22 58/72/22 60/73/22 59/74/22
f 59/74/23 60/73/23 62/75/23 61/76/23
f 61/76/24 62/75/24 64/77/24 63/78/24
f 63/78/25 64/77/25 66/79/25 65/80/25
f 65/80/26 66/79/26 68/81/26 67/82/26
f 67/82/27 68/81/27 70/83/27 69/84/27
f 69/84/28 70/83/28 72/85/28 71/86/28
f 71/86/29 72/85/29 74/87/29 73/88/29
f 73/89/30 74/90/30 76/91/30 75/92/30
f 75/92/31 76/91/31 78/93/31 77/94/31
f 77/94/32 78/93/32 80/95/32 79/96/32
f 79/96/33 80/95/33 82/97/33 81/98/33
f 81/98/34 82/97/34 84/99/34 83/100/34
f 83/100/35 84/99/35 86/101/35 85/102/35
f 85/102/36 86/101/36 88/103/36 87/104/36
f 87/104/37 88/103/37 90/105/37 89/106/37
f 89/107/38 90/71/38 92/108/38 91/109/38
f 91/109/39 92/108/39 94/110/39 93/111/39
f 93/111/40 94/110/40 96/112/40 95/113/40
f 95/113/41 96/112/41 98/114/41 97/115/41
f 97/115/42 98/114/42 100/116/42 99/117/42
f 99/117/43 100/116/43 102/118/43 101/119/43
f 101/119/44 102/118/44 104/120/44 103/121/44
f 103/121/45 104/120/45 106/90/45 105/89/45
f 105/106/46 106/105/46 108/122/46 107/123/46
f 107/123/47 108/122/47 110/124/47 109/125/47
f 52/126/5 50/127/5 112/128/5 110/129/5 108/130/5 106/131/5 104/132/5 102/133/5 100/134/5 98/135/5 96/136/5 94/137/5 92/138/5 90/139/5 88/140/5 86/141/5 84/142/5 82/143/5 80/144/5 78/145/5 76/146/5 74/147/5 72/148/5 70/149/5 68/150/5 66/151/5 64/152/5 62/153/5 60/154/5 58/155/5 56/156/5 54/157/5
f 109/125/48 110/124/48 112/158/48 111/159/48
f 111/159/49 112/158/49 50/62/49 49/61/49
f 49/160/50 51/161/50 53/162/50 55/163/50 57/164/50 59/165/50 61/166/50 63/167/50 65/168/50 67/169/50 69/170/50 71/171/50 73/172/50 75/173/50 77/174/50 79/175/50 81/176/50 83/177/50 85/178/50 87/179/50 89/180/50 91/181/50 93/182/50 95/183/50 97/184/50 99/185/50 101/186/50 103/187/50 105/188/50 107/189/50 109/190/50 111/191/50
f 116/192/11 119/193/11 117/194/11 114/195/11
f 115/192/9 116/193/9 114/194/9 113/195/9
f 120/192/6 115/196/6 113/197/6 118/195/6
f 119/192/5 120/193/5 118/194/5 117/195/5
f 124/192/11 127/193/11 125/194/11 122/195/11
f 123/192/9 124/193/9 122/194/9 121/195/9
f 128/192/6 123/196/6 121/197/6 126/195/6
f 127/192/5 128/193/5 126/194/5 125/195/5
f 132/198/11 135/199/11 133/200/11 130/194/11
f 131/198/9 132/201/9 130/202/9 129/194/9
f 136/198/6 131/199/6 129/200/6 134/194/6
f 135/198/5 136/201/5 134/202/5 133/194/5
f 134/203/8 129/204/8 130/200/8 133/194/8
f 135/203/10 132/204/10 131/200/10 136/194/10
f 138/205/10 142/206/10 141/207/10 140/208/10
f 137/209/11 143/210/11 142/211/11 138/212/11
f 139/206/8 144/205/8 143/213/8 137/214/8
f 140/212/6 141/211/6 144/215/6 139/216/6
f 141/47/9 142/217/9 143/218/9 144/44/9
f 146/219/10 150/220/10 149/214/10 148/213/10
f 145/216/11 151/215/11 150/221/11 146/222/11
f 147/220/8 152/219/8 151/223/8 145/224/8
f 148/222/6 149/221/6 152/208/6 147/207/6
f 149/225/9 150/226/9 151/227/9 152/228/9
usemtl caizhi.007
f 154/1/51 158/2/51 157/3/51 156/4/51
f 153/5/52 159/6/52 158/7/52 154/8/52
f 155/4/53 160/3/53 159/9/53 153/10/53
f 156/8/54 157/7/54 160/11/54 155/12/54
f 154/13/9 156/14/9 155/15/9 153/16/9
f 164/17/6 161/17/7 165/17/6 168/17/7
f 167/18/8 168/19/8 172/20/8 171/21/8
f 161/17/7 162/17/7 166/17/7 165/17/7
f 163/17/7 164/17/7 168/17/7 167/17/7
f 162/17/6 163/17/7 167/17/6 166/17/7
f 169/22/5 170/23/5 171/24/5 172/25/5
f 171/24/5 170/23/5 179/26/5 180/27/5
f 165/25/10 169/20/10 175/28/10 173/29/10
f 165/25/10 166/24/10 170/21/10 169/20/10
f 174/30/11 173/31/11 175/32/11 176/33/11
f 168/34/9 165/33/9 173/35/9 174/36/9
f 172/20/8 168/19/8 174/37/8 176/28/8
f 169/22/5 172/25/5 176/29/5 175/38/5
f 177/33/6 178/34/6 180/39/6 179/30/6
f 170/21/10 166/24/10 177/27/10 179/40/10
f 166/36/9 167/41/9 178/42/9 177/34/9
f 167/18/8 171/21/8 180/40/8 178/43/8
f 182/44/9 184/45/9 183/46/9 181/47/9
f 186/45/9 188/48/9 187/49/9 185/46/9
f 164/17/55 163/17/55 191/17/55 192/17/55
f 189/17/9 192/17/9 191/17/9 190/17/9
f 163/17/56 162/17/56 190/17/56 191/17/56
f 161/17/57 164/17/57 192/17/57 189/17/57
f 162/17/58 161/17/58 189/17/58 190/17/58
