# Blender 4.0.2
# www.blender.org
mtllib catenary_rigid_node.mtl
o rigid_catenary_node.002
v 0.038179 1.930407 0.076358
v 0.038179 1.930407 -0.076359
v -0.038179 1.930407 -0.076359
v -0.038179 1.930407 0.076358
v 0.038179 3.000000 -0.076359
v -0.038179 3.000000 -0.076359
v 0.038179 3.000000 0.076358
v -0.038179 3.000000 0.076358
v 0.046875 1.323437 0.046875
v 0.046875 1.323437 -0.046875
v 0.046875 1.307812 0.046875
v 0.046875 1.307812 -0.046875
v -0.046875 1.323437 -0.046875
v -0.046875 1.323437 0.046875
v -0.046875 1.307812 -0.046875
v -0.046875 1.307812 0.046875
v 0.046875 1.292187 0.046875
v 0.046875 1.292187 -0.046875
v 0.046875 1.276562 0.046875
v 0.046875 1.276562 -0.046875
v -0.046875 1.292187 -0.046875
v -0.046875 1.292187 0.046875
v -0.046875 1.276562 -0.046875
v -0.046875 1.276562 0.046875
v 0.046875 1.260937 0.046875
v 0.046875 1.260937 -0.046875
v 0.046875 1.245312 0.046875
v 0.046875 1.245312 -0.046875
v -0.046875 1.260937 -0.046875
v -0.046875 1.260937 0.046875
v -0.046875 1.245312 -0.046875
v -0.046875 1.245312 0.046875
v 0.187500 1.335938 0.031250
v 0.187500 1.335938 -0.031250
v 0.187500 1.329688 0.031250
v 0.187500 1.329688 -0.031250
v -0.187500 1.335938 -0.031250
v -0.187500 1.335938 0.031250
v -0.187500 1.329688 -0.031250
v -0.187500 1.329688 0.031250
v 0.187500 1.362500 -0.025000
v 0.187500 1.362500 -0.031250
v 0.187500 1.335938 -0.025000
v 0.187500 1.335938 -0.031250
v -0.187500 1.362500 -0.031250
v -0.187500 1.362500 -0.025000
v -0.187500 1.335938 -0.031250
v -0.187500 1.335938 -0.025000
v 0.187500 1.362500 0.031250
v 0.187500 1.362500 0.025000
v 0.187500 1.335938 0.031250
v 0.187500 1.335938 0.025000
v -0.187500 1.362500 0.025000
v -0.187500 1.362500 0.031250
v -0.187500 1.335938 0.025000
v -0.187500 1.335938 0.031250
v -0.140625 1.537500 0.006250
v -0.140625 1.537500 -0.006250
v -0.140625 1.307812 0.006250
v -0.140625 1.307812 -0.006250
v -0.153125 1.537500 -0.006250
v -0.153125 1.537500 0.006250
v -0.153125 1.307812 -0.006250
v -0.153125 1.307812 0.006250
v -0.134375 1.329688 0.012500
v -0.134375 1.329688 -0.012500
v -0.134375 1.323437 0.012500
v -0.134375 1.323437 -0.012500
v -0.159375 1.329688 -0.012500
v -0.159375 1.329688 0.012500
v -0.159375 1.323437 -0.012500
v -0.159375 1.323437 0.012500
v -0.134375 1.321875 0.012500
v -0.134375 1.321875 -0.012500
v -0.134375 1.315625 0.012500
v -0.134375 1.315625 -0.012500
v -0.159375 1.321875 -0.012500
v -0.159375 1.321875 0.012500
v -0.159375 1.315625 -0.012500
v -0.159375 1.315625 0.012500
v -0.134375 1.350000 0.012500
v -0.134375 1.350000 -0.012500
v -0.134375 1.343750 0.012500
v -0.134375 1.343750 -0.012500
v -0.159375 1.350000 -0.012500
v -0.159375 1.350000 0.012500
v -0.159375 1.343750 -0.012500
v -0.159375 1.343750 0.012500
v -0.134375 1.342188 0.012500
v -0.134375 1.342188 -0.012500
v -0.134375 1.335938 0.012500
v -0.134375 1.335938 -0.012500
v -0.159375 1.342188 -0.012500
v -0.159375 1.342188 0.012500
v -0.159375 1.335938 -0.012500
v -0.159375 1.335938 0.012500
v 0.500000 1.600000 0.031250
v 0.500000 1.600000 -0.031250
v 0.500000 1.537500 0.031250
v 0.500000 1.537500 -0.031250
v -0.500000 1.600000 -0.031250
v -0.500000 1.600000 0.031250
v -0.500000 1.537500 -0.031250
v -0.500000 1.537500 0.031250
v -0.134375 1.529688 0.012500
v -0.134375 1.529688 -0.012500
v -0.134375 1.523438 0.012500
v -0.134375 1.523438 -0.012500
v -0.159375 1.529688 -0.012500
v -0.159375 1.529688 0.012500
v -0.159375 1.523438 -0.012500
v -0.159375 1.523438 0.012500
v -0.134375 1.537500 0.012500
v -0.134375 1.537500 -0.012500
v -0.134375 1.531250 0.012500
v -0.134375 1.531250 -0.012500
v -0.159375 1.537500 -0.012500
v -0.159375 1.537500 0.012500
v -0.159375 1.531250 -0.012500
v -0.159375 1.531250 0.012500
v -0.218750 1.600000 -0.031250
v -0.218750 1.600000 -0.093750
v -0.218750 1.587500 -0.031250
v -0.218750 1.587500 -0.093750
v -0.281250 1.600000 -0.093750
v -0.281250 1.600000 -0.031250
v -0.281250 1.587500 -0.093750
v -0.281250 1.587500 -0.031250
v 0.281250 1.600000 -0.031250
v 0.281250 1.600000 -0.093750
v 0.281250 1.587500 -0.031250
v 0.281250 1.587500 -0.093750
v 0.218750 1.600000 -0.093750
v 0.218750 1.600000 -0.031250
v 0.218750 1.587500 -0.093750
v 0.218750 1.587500 -0.031250
v 0.281250 1.600000 0.093750
v 0.281250 1.600000 0.031250
v 0.281250 1.587500 0.093750
v 0.281250 1.587500 0.031250
v 0.218750 1.600000 0.031250
v 0.218750 1.600000 0.093750
v 0.218750 1.587500 0.031250
v 0.218750 1.587500 0.093750
v -0.218750 1.600000 0.093750
v -0.218750 1.600000 0.031250
v -0.218750 1.587500 0.093750
v -0.218750 1.587500 0.031250
v -0.281250 1.600000 0.031250
v -0.281250 1.600000 0.093750
v -0.281250 1.587500 0.031250
v -0.281250 1.587500 0.093750
v 0.159375 1.537500 0.012500
v 0.159375 1.537500 -0.012500
v 0.159375 1.531250 0.012500
v 0.159375 1.531250 -0.012500
v 0.134375 1.537500 -0.012500
v 0.134375 1.537500 0.012500
v 0.134375 1.531250 -0.012500
v 0.134375 1.531250 0.012500
v 0.159375 1.529688 0.012500
v 0.159375 1.529688 -0.012500
v 0.159375 1.523438 0.012500
v 0.159375 1.523438 -0.012500
v 0.134375 1.529688 -0.012500
v 0.134375 1.529688 0.012500
v 0.134375 1.523438 -0.012500
v 0.134375 1.523438 0.012500
v 0.153125 1.537500 0.006250
v 0.153125 1.537500 -0.006250
v 0.153125 1.307812 0.006250
v 0.153125 1.307812 -0.006250
v 0.140625 1.537500 -0.006250
v 0.140625 1.537500 0.006250
v 0.140625 1.307812 -0.006250
v 0.140625 1.307812 0.006250
v 0.159375 1.321875 0.012500
v 0.159375 1.321875 -0.012500
v 0.159375 1.315625 0.012500
v 0.159375 1.315625 -0.012500
v 0.134375 1.321875 -0.012500
v 0.134375 1.321875 0.012500
v 0.134375 1.315625 -0.012500
v 0.134375 1.315625 0.012500
v 0.159375 1.329688 0.012500
v 0.159375 1.329688 -0.012500
v 0.159375 1.323437 0.012500
v 0.159375 1.323437 -0.012500
v 0.134375 1.329688 -0.012500
v 0.134375 1.329688 0.012500
v 0.134375 1.323437 -0.012500
v 0.134375 1.323437 0.012500
v 0.159375 1.342188 0.012500
v 0.159375 1.342188 -0.012500
v 0.159375 1.335938 0.012500
v 0.159375 1.335938 -0.012500
v 0.134375 1.342188 -0.012500
v 0.134375 1.342188 0.012500
v 0.134375 1.335938 -0.012500
v 0.134375 1.335938 0.012500
v 0.159375 1.350000 0.012500
v 0.159375 1.350000 -0.012500
v 0.159375 1.343750 0.012500
v 0.159375 1.343750 -0.012500
v 0.134375 1.350000 -0.012500
v 0.134375 1.350000 0.012500
v 0.134375 1.343750 -0.012500
v 0.134375 1.343750 0.012500
v -0.243750 1.587500 -0.056250
v -0.243750 1.587500 -0.068750
v -0.243750 1.567188 -0.056250
v -0.243750 1.567188 -0.068750
v -0.256250 1.587500 -0.068750
v -0.256250 1.587500 -0.056250
v -0.256250 1.567188 -0.068750
v -0.256250 1.567188 -0.056250
v -0.237500 1.587500 -0.050000
v -0.237500 1.587500 -0.075000
v -0.237500 1.581250 -0.050000
v -0.237500 1.581250 -0.075000
v -0.262500 1.587500 -0.075000
v -0.262500 1.587500 -0.050000
v -0.262500 1.581250 -0.075000
v -0.262500 1.581250 -0.050000
v -0.237500 1.579687 -0.050000
v -0.237500 1.579687 -0.075000
v -0.237500 1.573438 -0.050000
v -0.237500 1.573438 -0.075000
v -0.262500 1.579687 -0.075000
v -0.262500 1.579687 -0.050000
v -0.262500 1.573438 -0.075000
v -0.262500 1.573438 -0.050000
v -0.243750 1.587500 0.068750
v -0.243750 1.587500 0.056250
v -0.243750 1.567188 0.068750
v -0.243750 1.567188 0.056250
v -0.256250 1.587500 0.056250
v -0.256250 1.587500 0.068750
v -0.256250 1.567188 0.056250
v -0.256250 1.567188 0.068750
v -0.237500 1.587500 0.075000
v -0.237500 1.587500 0.050000
v -0.237500 1.581250 0.075000
v -0.237500 1.581250 0.050000
v -0.262500 1.587500 0.050000
v -0.262500 1.587500 0.075000
v -0.262500 1.581250 0.050000
v -0.262500 1.581250 0.075000
v -0.237500 1.579687 0.075000
v -0.237500 1.579687 0.050000
v -0.237500 1.573438 0.075000
v -0.237500 1.573438 0.050000
v -0.262500 1.579687 0.050000
v -0.262500 1.579687 0.075000
v -0.262500 1.573438 0.050000
v -0.262500 1.573438 0.075000
v 0.256250 1.587500 -0.056250
v 0.256250 1.587500 -0.068750
v 0.256250 1.567188 -0.056250
v 0.256250 1.567188 -0.068750
v 0.243750 1.587500 -0.068750
v 0.243750 1.587500 -0.056250
v 0.243750 1.567188 -0.068750
v 0.243750 1.567188 -0.056250
v 0.262500 1.587500 -0.050000
v 0.262500 1.587500 -0.075000
v 0.262500 1.581250 -0.050000
v 0.262500 1.581250 -0.075000
v 0.237500 1.587500 -0.075000
v 0.237500 1.587500 -0.050000
v 0.237500 1.581250 -0.075000
v 0.237500 1.581250 -0.050000
v 0.262500 1.579687 -0.050000
v 0.262500 1.579687 -0.075000
v 0.262500 1.573438 -0.050000
v 0.262500 1.573438 -0.075000
v 0.237500 1.579687 -0.075000
v 0.237500 1.579687 -0.050000
v 0.237500 1.573438 -0.075000
v 0.237500 1.573438 -0.050000
v 0.256250 1.587500 0.068750
v 0.256250 1.587500 0.056250
v 0.256250 1.567188 0.068750
v 0.256250 1.567188 0.056250
v 0.243750 1.587500 0.056250
v 0.243750 1.587500 0.068750
v 0.243750 1.567188 0.056250
v 0.243750 1.567188 0.068750
v 0.262500 1.587500 0.075000
v 0.262500 1.587500 0.050000
v 0.262500 1.581250 0.075000
v 0.262500 1.581250 0.050000
v 0.237500 1.587500 0.050000
v 0.237500 1.587500 0.075000
v 0.237500 1.581250 0.050000
v 0.237500 1.581250 0.075000
v 0.262500 1.579687 0.075000
v 0.262500 1.579687 0.050000
v 0.262500 1.573438 0.075000
v 0.262500 1.573438 0.050000
v 0.237500 1.579687 0.050000
v 0.237500 1.579687 0.075000
v 0.237500 1.573438 0.050000
v 0.237500 1.573438 0.075000
v -0.218750 1.617188 0.093750
v -0.218750 1.617188 -0.093750
v -0.218750 1.600000 0.093750
v -0.218750 1.600000 -0.093750
v -0.281250 1.617188 -0.093750
v -0.281250 1.617188 0.093750
v -0.281250 1.600000 -0.093750
v -0.281250 1.600000 0.093750
v 0.281250 1.617188 0.093750
v 0.281250 1.617188 -0.093750
v 0.281250 1.600000 0.093750
v 0.281250 1.600000 -0.093750
v 0.218750 1.617188 -0.093750
v 0.218750 1.617188 0.093750
v 0.218750 1.600000 -0.093750
v 0.218750 1.600000 0.093750
v 0.062500 1.930407 0.125000
v 0.062500 1.930407 -0.125000
v 0.062500 1.899157 0.125000
v 0.062500 1.899157 -0.125000
v -0.062500 1.930407 -0.125000
v -0.062500 1.930407 0.125000
v -0.062500 1.899157 -0.125000
v -0.062500 1.899157 0.125000
v 0.030418 1.917256 0.062500
v 0.030418 1.917256 0.031250
v 0.265625 1.600000 0.062500
v 0.265625 1.600000 0.031250
v 0.008699 1.906057 0.031250
v 0.008699 1.906057 0.062500
v 0.234375 1.600000 0.031250
v 0.234375 1.600000 0.062500
v 0.030418 1.917256 -0.031250
v 0.030418 1.917256 -0.062500
v 0.265625 1.600000 -0.031250
v 0.265625 1.600000 -0.062500
v 0.008699 1.906057 -0.062500
v 0.008699 1.906057 -0.031250
v 0.234375 1.600000 -0.062500
v 0.234375 1.600000 -0.031250
v -0.030418 1.917256 0.062500
v -0.030418 1.917256 0.031250
v -0.265625 1.600000 0.062500
v -0.265625 1.600000 0.031250
v -0.008699 1.906057 0.031250
v -0.008699 1.906057 0.062500
v -0.234375 1.600000 0.031250
v -0.234375 1.600000 0.062500
v -0.030418 1.917256 -0.031250
v -0.030418 1.917256 -0.062500
v -0.265625 1.600000 -0.031250
v -0.265625 1.600000 -0.062500
v -0.008699 1.906057 -0.062500
v -0.008699 1.906057 -0.031250
v -0.234375 1.600000 -0.062500
v -0.234375 1.600000 -0.031250
v 0.093750 1.224506 0.031250
v 0.093750 1.224506 -0.031250
v -0.093750 1.224506 -0.031250
v -0.093750 1.224506 0.031250
v -0.093750 1.237006 0.031250
v -0.093750 1.237006 -0.031250
v -0.106250 1.237006 -0.031250
v -0.106250 1.237006 0.031250
v -0.106250 1.199506 -0.031250
v -0.106250 1.199506 0.031250
v 0.106250 1.237006 0.031250
v 0.106250 1.237006 -0.031250
v 0.106250 1.199506 0.031250
v 0.106250 1.199506 -0.031250
v 0.093750 1.237006 -0.031250
v 0.093750 1.237006 0.031250
v -0.073377 1.205756 0.031250
v -0.073377 1.205756 -0.031250
v -0.073377 1.199506 0.031250
v -0.073377 1.199506 -0.031250
v -0.093750 1.205756 -0.031250
v -0.093750 1.205756 0.031250
v -0.093750 1.199506 -0.031250
v -0.093750 1.199506 0.031250
v 0.093750 1.205756 0.031250
v 0.093750 1.205756 -0.031250
v 0.093750 1.199506 0.031250
v 0.093750 1.199506 -0.031250
v 0.073377 1.205756 -0.031250
v 0.073377 1.205756 0.031250
v 0.073377 1.199506 -0.031250
v 0.073377 1.199506 0.031250
v 0.015625 1.343090 0.015625
v 0.015625 1.343090 -0.015625
v 0.015625 1.237006 0.015625
v 0.015625 1.237006 -0.015625
v -0.015625 1.343090 -0.015625
v -0.015625 1.343090 0.015625
v -0.015625 1.237006 -0.015625
v -0.015625 1.237006 0.015625
v 0.062500 1.930407 0.125000
v 0.062500 1.930407 -0.125000
v -0.062500 1.930407 -0.125000
v -0.062500 1.930407 0.125000
vn -0.0000 -1.0000 -0.0000
vn -0.0000 1.0000 -0.0000
vn -1.0000 -0.0000 -0.0000
vn 1.0000 -0.0000 -0.0000
vn -0.0000 -0.0000 1.0000
vn -0.0000 -0.0000 -1.0000
vn 0.8033 0.5956 -0.0000
vn -0.8049 -0.5935 -0.0000
vn -0.8033 0.5956 -0.0000
vn 0.8049 -0.5935 -0.0000
vt 0.055559 0.685500
vt 0.055559 0.748000
vt 0.086809 0.748000
vt 0.086809 0.685500
vt 0.571091 0.699445
vt 0.547653 0.699445
vt 0.547653 0.695538
vt 0.571091 0.695538
vt 0.551560 0.676007
vt 0.551560 0.699445
vt 0.547653 0.676007
vt 0.571091 0.676007
vt 0.041669 0.694847
vt 0.135419 0.694847
vt 0.135419 0.696410
vt 0.041669 0.696410
vt 0.057294 0.694847
vt 0.057294 0.696410
vt 0.041669 0.680785
vt 0.135419 0.680785
vt 0.041669 0.689769
vt 0.135419 0.689769
vt 0.048310 0.694847
vt 0.048310 0.696410
vt 0.089291 0.658830
vt 0.092416 0.658830
vt 0.092416 0.716252
vt 0.089291 0.716252
vt 0.000000 0.942578
vt 0.003125 0.942578
vt 0.003125 1.000000
vt 0.000000 1.000000
vt 0.486087 0.716729
vt 0.492337 0.716729
vt 0.492337 0.718291
vt 0.486087 0.718291
vt 0.083265 0.696034
vt 0.099270 0.696034
vt 0.099270 0.697034
vt 0.083265 0.697034
vt 0.084266 0.696034
vt 0.084266 0.697034
vt 0.499977 0.716729
vt 0.506227 0.716729
vt 0.506227 0.718291
vt 0.499977 0.718291
vt 0.075000 0.711875
vt 0.090625 0.711875
vt 0.090625 0.715000
vt 0.075000 0.715000
vt 0.075000 0.699375
vt 0.090625 0.699375
vt 0.106250 0.699375
vt 0.106250 0.715000
vt 0.106250 0.711875
vt 0.095541 0.658830
vt 0.095541 0.716252
vt 0.006250 0.942578
vt 0.006250 1.000000
vt 0.492728 0.696650
vt 0.498978 0.696650
vt 0.498978 0.698212
vt 0.492728 0.698212
vt 0.470228 0.711650
vt 0.476478 0.711650
vt 0.476478 0.713212
vt 0.470228 0.713212
vt 0.486478 0.696650
vt 0.486478 0.698212
vt 0.115000 0.715142
vt 0.118125 0.715142
vt 0.118125 0.720221
vt 0.115000 0.720221
vt 0.090000 0.701875
vt 0.093125 0.701875
vt 0.093125 0.705000
vt 0.090000 0.705000
vt 0.472197 0.720697
vt 0.478447 0.720697
vt 0.478447 0.722260
vt 0.472197 0.722260
vt 0.090000 0.699922
vt 0.093125 0.699922
vt 0.511882 0.702839
vt 0.518132 0.702839
vt 0.518132 0.704401
vt 0.511882 0.704401
vt 0.075000 0.710703
vt 0.090625 0.710703
vt 0.121875 0.710703
vt 0.121875 0.715000
vt 0.075000 0.668125
vt 0.090625 0.668125
vt 0.106250 0.710703
vt 0.055559 0.740188
vt 0.086809 0.740188
vt 0.118059 0.740188
vt 0.118059 0.748000
vt 0.063372 0.662063
vt 0.055559 0.662063
vt 0.063372 0.748000
vt 0.078997 0.662063
vt 0.078997 0.748000
vt 0.312500 0.677500
s 0
usemtl 1
f 4/1/1 3/2/1 2/3/1 1/4/1
f 8/1/2 7/4/2 5/3/2 6/2/2
f 3/2/3 4/1/3 8/1/3 6/2/3
f 1/4/4 2/3/4 5/3/4 7/4/4
f 4/1/5 1/4/5 7/4/5 8/1/5
f 2/3/6 3/2/6 6/2/6 5/3/6
f 12/5/6 15/6/6 13/7/6 10/8/6
f 11/9/4 12/10/4 10/6/4 9/11/4
f 16/7/5 11/8/5 9/5/5 14/6/5
f 15/6/3 16/11/3 14/9/3 13/10/3
f 14/11/2 9/12/2 10/5/2 13/6/2
f 15/5/1 12/6/1 11/11/1 16/12/1
f 20/5/6 23/6/6 21/7/6 18/8/6
f 19/9/4 20/10/4 18/6/4 17/11/4
f 24/7/5 19/8/5 17/5/5 22/6/5
f 23/6/3 24/11/3 22/9/3 21/10/3
f 22/11/2 17/12/2 18/5/2 21/6/2
f 23/5/1 20/6/1 19/11/1 24/12/1
f 28/5/6 31/6/6 29/7/6 26/8/6
f 27/9/4 28/10/4 26/6/4 25/11/4
f 32/7/5 27/8/5 25/5/5 30/6/5
f 31/6/3 32/11/3 30/9/3 29/10/3
f 30/11/2 25/12/2 26/5/2 29/6/2
f 31/5/1 28/6/1 27/11/1 32/12/1
f 36/13/6 39/14/6 37/15/6 34/16/6
f 35/13/4 36/17/4 34/18/4 33/16/4
f 40/13/5 35/14/5 33/15/5 38/16/5
f 39/13/3 40/17/3 38/18/3 37/16/3
f 38/19/2 33/20/2 34/15/2 37/16/2
f 39/19/1 36/20/1 35/15/1 40/16/1
f 44/15/6 47/16/6 45/21/6 42/22/6
f 43/16/4 44/13/4 42/23/4 41/24/4
f 48/21/5 43/22/5 41/15/5 46/16/5
f 47/23/3 48/24/3 46/16/3 45/13/3
f 46/15/2 41/16/2 42/13/2 45/14/2
f 52/15/6 55/16/6 53/21/6 50/22/6
f 51/16/4 52/13/4 50/23/4 49/24/4
f 56/21/5 51/22/5 49/15/5 54/16/5
f 55/23/3 56/24/3 54/16/3 53/13/3
f 54/15/2 49/16/2 50/13/2 53/14/2
f 60/25/6 63/26/6 61/27/6 58/28/6
f 59/25/4 60/26/4 58/27/4 57/28/4
f 64/25/5 59/26/5 57/27/5 62/28/5
f 63/25/3 64/26/3 62/27/3 61/28/3
f 63/29/1 60/30/1 59/31/1 64/32/1
f 68/33/6 71/34/6 69/35/6 66/36/6
f 67/33/4 68/34/4 66/35/4 65/36/4
f 72/33/5 67/34/5 65/35/5 70/36/5
f 71/33/3 72/34/3 70/35/3 69/36/3
f 71/33/1 68/34/1 67/35/1 72/36/1
f 76/33/6 79/34/6 77/35/6 74/36/6
f 75/33/4 76/34/4 74/35/4 73/36/4
f 80/33/5 75/34/5 73/35/5 78/36/5
f 79/33/3 80/34/3 78/35/3 77/36/3
f 78/33/2 73/34/2 74/35/2 77/36/2
f 79/33/1 76/34/1 75/35/1 80/36/1
f 84/33/6 87/34/6 85/35/6 82/36/6
f 83/33/4 84/34/4 82/35/4 81/36/4
f 88/33/5 83/34/5 81/35/5 86/36/5
f 87/33/3 88/34/3 86/35/3 85/36/3
f 86/33/2 81/34/2 82/35/2 85/36/2
f 87/33/1 84/34/1 83/35/1 88/36/1
f 92/33/6 95/34/6 93/35/6 90/36/6
f 91/33/4 92/34/4 90/35/4 89/36/4
f 96/33/5 91/34/5 89/35/5 94/36/5
f 95/33/3 96/34/3 94/35/3 93/36/3
f 94/33/2 89/34/2 90/35/2 93/36/2
f 100/37/6 103/38/6 101/39/6 98/40/6
f 99/37/4 100/41/4 98/42/4 97/40/4
f 104/37/5 99/38/5 97/39/5 102/40/5
f 103/37/3 104/41/3 102/42/3 101/40/3
f 102/37/2 97/38/2 98/39/2 101/40/2
f 103/37/1 100/38/1 99/39/1 104/40/1
f 108/43/6 111/44/6 109/45/6 106/46/6
f 107/43/4 108/44/4 106/45/4 105/46/4
f 112/43/5 107/44/5 105/45/5 110/46/5
f 111/43/3 112/44/3 110/45/3 109/46/3
f 110/43/2 105/44/2 106/45/2 109/46/2
f 111/43/1 108/44/1 107/45/1 112/46/1
f 116/43/6 119/44/6 117/45/6 114/46/6
f 115/43/4 116/44/4 114/45/4 113/46/4
f 120/43/5 115/44/5 113/45/5 118/46/5
f 119/43/3 120/44/3 118/45/3 117/46/3
f 119/43/1 116/44/1 115/45/1 120/46/1
f 124/47/6 127/48/6 125/49/6 122/50/6
f 123/47/4 124/48/4 122/49/4 121/50/4
f 127/47/3 128/48/3 126/49/3 125/50/3
f 127/51/1 124/52/1 123/49/1 128/50/1
f 132/52/6 135/53/6 133/54/6 130/49/6
f 131/52/4 132/53/4 130/54/4 129/49/4
f 135/52/3 136/53/3 134/54/3 133/49/3
f 135/52/1 132/53/1 131/54/1 136/49/1
f 139/49/4 140/54/4 138/53/4 137/52/4
f 144/49/5 139/54/5 137/53/5 142/52/5
f 143/49/3 144/54/3 142/53/3 141/52/3
f 143/49/1 140/54/1 139/53/1 144/52/1
f 147/48/4 148/55/4 146/54/4 145/49/4
f 152/48/5 147/55/5 145/54/5 150/49/5
f 151/48/3 152/55/3 150/54/3 149/49/3
f 151/48/1 148/55/1 147/54/1 152/49/1
f 156/43/6 159/44/6 157/45/6 154/46/6
f 155/43/4 156/44/4 154/45/4 153/46/4
f 160/43/5 155/44/5 153/45/5 158/46/5
f 159/43/3 160/44/3 158/45/3 157/46/3
f 159/43/1 156/44/1 155/45/1 160/46/1
f 164/43/6 167/44/6 165/45/6 162/46/6
f 163/43/4 164/44/4 162/45/4 161/46/4
f 168/43/5 163/44/5 161/45/5 166/46/5
f 167/43/3 168/44/3 166/45/3 165/46/3
f 166/43/2 161/44/2 162/45/2 165/46/2
f 167/43/1 164/44/1 163/45/1 168/46/1
f 172/26/6 175/56/6 173/57/6 170/27/6
f 171/26/4 172/56/4 170/57/4 169/27/4
f 176/26/5 171/56/5 169/57/5 174/27/5
f 175/26/3 176/56/3 174/57/3 173/27/3
f 175/30/1 172/58/1 171/59/1 176/31/1
f 180/60/6 183/61/6 181/62/6 178/63/6
f 179/60/4 180/61/4 178/62/4 177/63/4
f 184/64/5 179/65/5 177/66/5 182/67/5
f 183/60/3 184/61/3 182/62/3 181/63/3
f 182/60/2 177/61/2 178/62/2 181/63/2
f 183/60/1 180/61/1 179/62/1 184/63/1
f 188/60/6 191/61/6 189/62/6 186/63/6
f 187/60/4 188/61/4 186/62/4 185/63/4
f 192/64/5 187/65/5 185/66/5 190/67/5
f 191/60/3 192/61/3 190/62/3 189/63/3
f 191/60/1 188/61/1 187/62/1 192/63/1
f 196/60/6 199/68/6 197/69/6 194/63/6
f 195/60/4 196/68/4 194/69/4 193/63/4
f 200/60/5 195/68/5 193/69/5 198/63/5
f 199/60/3 200/68/3 198/69/3 197/63/3
f 198/60/2 193/68/2 194/69/2 197/63/2
f 204/60/6 207/68/6 205/69/6 202/63/6
f 203/60/4 204/68/4 202/69/4 201/63/4
f 208/60/5 203/68/5 201/69/5 206/63/5
f 207/60/3 208/68/3 206/69/3 205/63/3
f 206/60/2 201/68/2 202/69/2 205/63/2
f 207/60/1 204/68/1 203/69/1 208/63/1
f 212/70/6 215/71/6 213/72/6 210/73/6
f 211/70/4 212/71/4 210/72/4 209/73/4
f 216/70/5 211/71/5 209/72/5 214/73/5
f 215/70/3 216/71/3 214/72/3 213/73/3
f 215/74/1 212/75/1 211/76/1 216/77/1
f 220/78/6 223/79/6 221/80/6 218/81/6
f 219/78/4 220/79/4 218/80/4 217/81/4
f 224/78/5 219/79/5 217/80/5 222/81/5
f 223/78/3 224/79/3 222/80/3 221/81/3
f 223/78/1 220/79/1 219/80/1 224/81/1
f 228/78/6 231/79/6 229/80/6 226/81/6
f 227/78/4 228/79/4 226/80/4 225/81/4
f 232/78/5 227/79/5 225/80/5 230/81/5
f 231/78/3 232/79/3 230/80/3 229/81/3
f 230/78/2 225/79/2 226/80/2 229/81/2
f 231/78/1 228/79/1 227/80/1 232/81/1
f 236/70/6 239/71/6 237/72/6 234/73/6
f 235/70/4 236/71/4 234/72/4 233/73/4
f 240/70/5 235/71/5 233/72/5 238/73/5
f 239/70/3 240/71/3 238/72/3 237/73/3
f 239/74/1 236/75/1 235/76/1 240/77/1
f 244/78/6 247/79/6 245/80/6 242/81/6
f 243/78/4 244/79/4 242/80/4 241/81/4
f 248/78/5 243/79/5 241/80/5 246/81/5
f 247/78/3 248/79/3 246/80/3 245/81/3
f 247/78/1 244/79/1 243/80/1 248/81/1
f 252/78/6 255/79/6 253/80/6 250/81/6
f 251/78/4 252/79/4 250/80/4 249/81/4
f 256/78/5 251/79/5 249/80/5 254/81/5
f 255/78/3 256/79/3 254/80/3 253/81/3
f 254/78/2 249/79/2 250/80/2 253/81/2
f 255/78/1 252/79/1 251/80/1 256/81/1
f 260/82/6 263/83/6 261/76/6 258/77/6
f 259/82/4 260/83/4 258/76/4 257/77/4
f 264/82/5 259/83/5 257/76/5 262/77/5
f 263/82/3 264/83/3 262/76/3 261/77/3
f 263/74/1 260/75/1 259/76/1 264/77/1
f 268/84/6 271/85/6 269/86/6 266/87/6
f 267/84/4 268/85/4 266/86/4 265/87/4
f 272/84/5 267/85/5 265/86/5 270/87/5
f 271/84/3 272/85/3 270/86/3 269/87/3
f 271/84/1 268/85/1 267/86/1 272/87/1
f 276/84/6 279/85/6 277/86/6 274/87/6
f 275/84/4 276/85/4 274/86/4 273/87/4
f 280/84/5 275/85/5 273/86/5 278/87/5
f 279/84/3 280/85/3 278/86/3 277/87/3
f 278/84/2 273/85/2 274/86/2 277/87/2
f 279/84/1 276/85/1 275/86/1 280/87/1
f 284/82/6 287/83/6 285/76/6 282/77/6
f 283/82/4 284/83/4 282/76/4 281/77/4
f 288/82/5 283/83/5 281/76/5 286/77/5
f 287/82/3 288/83/3 286/76/3 285/77/3
f 287/74/1 284/75/1 283/76/1 288/77/1
f 292/84/6 295/85/6 293/86/6 290/87/6
f 291/84/4 292/85/4 290/86/4 289/87/4
f 296/84/5 291/85/5 289/86/5 294/87/5
f 295/84/3 296/85/3 294/86/3 293/87/3
f 295/84/1 292/85/1 291/86/1 296/87/1
f 300/84/6 303/85/6 301/86/6 298/87/6
f 299/84/4 300/85/4 298/86/4 297/87/4
f 304/84/5 299/85/5 297/86/5 302/87/5
f 303/84/3 304/85/3 302/86/3 301/87/3
f 302/84/2 297/85/2 298/86/2 301/87/2
f 303/84/1 300/85/1 299/86/1 304/87/1
f 308/88/6 311/89/6 309/49/6 306/50/6
f 307/88/4 308/90/4 306/91/4 305/50/4
f 312/88/5 307/89/5 305/49/5 310/50/5
f 311/88/3 312/90/3 310/91/3 309/50/3
f 310/92/2 305/93/2 306/49/2 309/50/2
f 316/89/6 319/88/6 317/50/6 314/49/6
f 315/90/4 316/88/4 314/50/4 313/91/4
f 320/89/5 315/94/5 313/54/5 318/49/5
f 319/90/3 320/88/3 318/50/3 317/91/3
f 318/93/2 313/92/2 314/50/2 317/49/2
f 324/95/6 327/96/6 325/3/6 322/2/6
f 323/95/4 324/97/4 322/98/4 321/2/4
f 328/95/5 323/96/5 321/3/5 326/2/5
f 327/95/3 328/97/3 326/98/3 325/2/3
f 327/1/1 324/4/1 323/3/1 328/2/1
f 332/99/6 335/100/6 333/2/6 330/101/6
f 331/99/7 332/100/7 330/2/7 329/101/7
f 336/99/5 331/102/5 329/103/5 334/101/5
f 335/99/8 336/100/8 334/2/8 333/101/8
f 340/99/6 343/100/6 341/2/6 338/101/6
f 339/99/7 340/100/7 338/2/7 337/101/7
f 344/99/5 339/102/5 337/103/5 342/101/5
f 343/99/8 344/100/8 342/2/8 341/101/8
f 348/99/6 346/101/6 349/2/6 351/100/6
f 347/99/9 345/101/9 346/2/9 348/100/9
f 352/99/5 350/101/5 345/103/5 347/102/5
f 351/99/10 349/101/10 350/2/10 352/100/10
f 356/99/6 354/101/6 357/2/6 359/100/6
f 355/99/9 353/101/9 354/2/9 356/100/9
f 360/99/5 358/101/5 353/103/5 355/102/5
f 359/99/10 357/101/10 358/2/10 360/100/10
f 362/104/6 363/104/6 366/104/6 375/104/6
f 364/104/5 361/104/5 376/104/5 365/104/5
f 365/104/2 376/104/2 375/104/2 366/104/2
f 363/104/1 362/104/1 361/104/1 364/104/1
f 383/104/6 369/104/6 367/104/6 366/104/6 363/104/6 381/104/6
f 384/104/4 383/104/4 381/104/4 382/104/4
f 370/104/5 384/104/5 382/104/5 364/104/5 365/104/5 368/104/5
f 369/104/3 370/104/3 368/104/3 367/104/3
f 368/104/2 365/104/2 366/104/2 367/104/2
f 369/104/1 383/104/1 384/104/1 370/104/1
f 374/104/6 388/104/6 386/104/6 362/104/6 375/104/6 372/104/6
f 373/104/4 374/104/4 372/104/4 371/104/4
f 387/104/5 373/104/5 371/104/5 376/104/5 361/104/5 385/104/5
f 388/104/3 387/104/3 385/104/3 361/104/3 376/104/3 375/104/3 362/104/3 386/104/3
f 376/104/2 371/104/2 372/104/2 375/104/2
f 388/104/1 374/104/1 373/104/1 387/104/1
f 380/104/6 383/104/6 381/104/6 378/104/6
f 379/104/4 380/104/4 378/104/4 377/104/4
f 384/104/5 379/104/5 377/104/5 382/104/5
f 382/104/2 377/104/2 378/104/2 381/104/2
f 383/104/1 380/104/1 379/104/1 384/104/1
f 388/104/6 391/104/6 389/104/6 386/104/6
f 392/104/5 387/104/5 385/104/5 390/104/5
f 391/104/3 392/104/3 390/104/3 389/104/3
f 390/104/2 385/104/2 386/104/2 389/104/2
f 391/104/1 388/104/1 387/104/1 392/104/1
f 382/104/4 381/104/4 363/104/4 366/104/4 365/104/4 364/104/4
f 396/104/6 399/104/6 397/104/6 394/104/6
f 395/104/4 396/104/4 394/104/4 393/104/4
f 400/104/5 395/104/5 393/104/5 398/104/5
f 399/104/3 400/104/3 398/104/3 397/104/3
f 404/1/2 401/4/2 402/3/2 403/2/2
