# Blender 4.0.2
# www.blender.org
mtllib catenary_rigid_node_only.mtl
o rigid_catenary_node.002
v 0.046875 0.323437 0.046875
v 0.046875 0.323437 -0.046875
v 0.046875 0.307812 0.046875
v 0.046875 0.307812 -0.046875
v -0.046875 0.323437 -0.046875
v -0.046875 0.323437 0.046875
v -0.046875 0.307812 -0.046875
v -0.046875 0.307812 0.046875
v 0.046875 0.292187 0.046875
v 0.046875 0.292187 -0.046875
v 0.046875 0.276562 0.046875
v 0.046875 0.276562 -0.046875
v -0.046875 0.292187 -0.046875
v -0.046875 0.292187 0.046875
v -0.046875 0.276562 -0.046875
v -0.046875 0.276562 0.046875
v 0.046875 0.260937 0.046875
v 0.046875 0.260937 -0.046875
v 0.046875 0.245312 0.046875
v 0.046875 0.245312 -0.046875
v -0.046875 0.260937 -0.046875
v -0.046875 0.260937 0.046875
v -0.046875 0.245312 -0.046875
v -0.046875 0.245312 0.046875
v 0.187500 0.335938 0.031250
v 0.187500 0.335938 -0.031250
v 0.187500 0.329688 0.031250
v 0.187500 0.329688 -0.031250
v -0.187500 0.335938 -0.031250
v -0.187500 0.335938 0.031250
v -0.187500 0.329688 -0.031250
v -0.187500 0.329688 0.031250
v 0.187500 0.362500 -0.025000
v 0.187500 0.362500 -0.031250
v 0.187500 0.335938 -0.025000
v 0.187500 0.335938 -0.031250
v -0.187500 0.362500 -0.031250
v -0.187500 0.362500 -0.025000
v -0.187500 0.335938 -0.031250
v -0.187500 0.335938 -0.025000
v 0.187500 0.362500 0.031250
v 0.187500 0.362500 0.025000
v 0.187500 0.335938 0.031250
v 0.187500 0.335938 0.025000
v -0.187500 0.362500 0.025000
v -0.187500 0.362500 0.031250
v -0.187500 0.335938 0.025000
v -0.187500 0.335938 0.031250
v -0.140625 0.537500 0.006250
v -0.140625 0.537500 -0.006250
v -0.140625 0.307812 0.006250
v -0.140625 0.307812 -0.006250
v -0.153125 0.537500 -0.006250
v -0.153125 0.537500 0.006250
v -0.153125 0.307812 -0.006250
v -0.153125 0.307812 0.006250
v -0.134375 0.329688 0.012500
v -0.134375 0.329688 -0.012500
v -0.134375 0.323437 0.012500
v -0.134375 0.323437 -0.012500
v -0.159375 0.329688 -0.012500
v -0.159375 0.329688 0.012500
v -0.159375 0.323437 -0.012500
v -0.159375 0.323437 0.012500
v -0.134375 0.321875 0.012500
v -0.134375 0.321875 -0.012500
v -0.134375 0.315625 0.012500
v -0.134375 0.315625 -0.012500
v -0.159375 0.321875 -0.012500
v -0.159375 0.321875 0.012500
v -0.159375 0.315625 -0.012500
v -0.159375 0.315625 0.012500
v -0.134375 0.350000 0.012500
v -0.134375 0.350000 -0.012500
v -0.134375 0.343750 0.012500
v -0.134375 0.343750 -0.012500
v -0.159375 0.350000 -0.012500
v -0.159375 0.350000 0.012500
v -0.159375 0.343750 -0.012500
v -0.159375 0.343750 0.012500
v -0.134375 0.342188 0.012500
v -0.134375 0.342188 -0.012500
v -0.134375 0.335938 0.012500
v -0.134375 0.335938 -0.012500
v -0.159375 0.342188 -0.012500
v -0.159375 0.342188 0.012500
v -0.159375 0.335938 -0.012500
v -0.159375 0.335938 0.012500
v 0.500000 0.600000 0.031250
v 0.500000 0.600000 -0.031250
v 0.500000 0.537500 0.031250
v 0.500000 0.537500 -0.031250
v -0.500000 0.600000 -0.031250
v -0.500000 0.600000 0.031250
v -0.500000 0.537500 -0.031250
v -0.500000 0.537500 0.031250
v -0.134375 0.529688 0.012500
v -0.134375 0.529688 -0.012500
v -0.134375 0.523438 0.012500
v -0.134375 0.523438 -0.012500
v -0.159375 0.529688 -0.012500
v -0.159375 0.529688 0.012500
v -0.159375 0.523438 -0.012500
v -0.159375 0.523438 0.012500
v -0.134375 0.537500 0.012500
v -0.134375 0.537500 -0.012500
v -0.134375 0.531250 0.012500
v -0.134375 0.531250 -0.012500
v -0.159375 0.537500 -0.012500
v -0.159375 0.537500 0.012500
v -0.159375 0.531250 -0.012500
v -0.159375 0.531250 0.012500
v -0.218750 0.600000 -0.031250
v -0.218750 0.600000 -0.093750
v -0.218750 0.587500 -0.031250
v -0.218750 0.587500 -0.093750
v -0.281250 0.600000 -0.093750
v -0.281250 0.600000 -0.031250
v -0.281250 0.587500 -0.093750
v -0.281250 0.587500 -0.031250
v 0.281250 0.600000 -0.031250
v 0.281250 0.600000 -0.093750
v 0.281250 0.587500 -0.031250
v 0.281250 0.587500 -0.093750
v 0.218750 0.600000 -0.093750
v 0.218750 0.600000 -0.031250
v 0.218750 0.587500 -0.093750
v 0.218750 0.587500 -0.031250
v 0.281250 0.600000 0.093750
v 0.281250 0.600000 0.031250
v 0.281250 0.587500 0.093750
v 0.281250 0.587500 0.031250
v 0.218750 0.600000 0.031250
v 0.218750 0.600000 0.093750
v 0.218750 0.587500 0.031250
v 0.218750 0.587500 0.093750
v -0.218750 0.600000 0.093750
v -0.218750 0.600000 0.031250
v -0.218750 0.587500 0.093750
v -0.218750 0.587500 0.031250
v -0.281250 0.600000 0.031250
v -0.281250 0.600000 0.093750
v -0.281250 0.587500 0.031250
v -0.281250 0.587500 0.093750
v 0.159375 0.537500 0.012500
v 0.159375 0.537500 -0.012500
v 0.159375 0.531250 0.012500
v 0.159375 0.531250 -0.012500
v 0.134375 0.537500 -0.012500
v 0.134375 0.537500 0.012500
v 0.134375 0.531250 -0.012500
v 0.134375 0.531250 0.012500
v 0.159375 0.529688 0.012500
v 0.159375 0.529688 -0.012500
v 0.159375 0.523438 0.012500
v 0.159375 0.523438 -0.012500
v 0.134375 0.529688 -0.012500
v 0.134375 0.529688 0.012500
v 0.134375 0.523438 -0.012500
v 0.134375 0.523438 0.012500
v 0.153125 0.537500 0.006250
v 0.153125 0.537500 -0.006250
v 0.153125 0.307812 0.006250
v 0.153125 0.307812 -0.006250
v 0.140625 0.537500 -0.006250
v 0.140625 0.537500 0.006250
v 0.140625 0.307812 -0.006250
v 0.140625 0.307812 0.006250
v 0.159375 0.321875 0.012500
v 0.159375 0.321875 -0.012500
v 0.159375 0.315625 0.012500
v 0.159375 0.315625 -0.012500
v 0.134375 0.321875 -0.012500
v 0.134375 0.321875 0.012500
v 0.134375 0.315625 -0.012500
v 0.134375 0.315625 0.012500
v 0.159375 0.329688 0.012500
v 0.159375 0.329688 -0.012500
v 0.159375 0.323437 0.012500
v 0.159375 0.323437 -0.012500
v 0.134375 0.329688 -0.012500
v 0.134375 0.329688 0.012500
v 0.134375 0.323437 -0.012500
v 0.134375 0.323437 0.012500
v 0.159375 0.342188 0.012500
v 0.159375 0.342188 -0.012500
v 0.159375 0.335938 0.012500
v 0.159375 0.335938 -0.012500
v 0.134375 0.342188 -0.012500
v 0.134375 0.342188 0.012500
v 0.134375 0.335938 -0.012500
v 0.134375 0.335938 0.012500
v 0.159375 0.350000 0.012500
v 0.159375 0.350000 -0.012500
v 0.159375 0.343750 0.012500
v 0.159375 0.343750 -0.012500
v 0.134375 0.350000 -0.012500
v 0.134375 0.350000 0.012500
v 0.134375 0.343750 -0.012500
v 0.134375 0.343750 0.012500
v -0.243750 0.587500 -0.056250
v -0.243750 0.587500 -0.068750
v -0.243750 0.567188 -0.056250
v -0.243750 0.567188 -0.068750
v -0.256250 0.587500 -0.068750
v -0.256250 0.587500 -0.056250
v -0.256250 0.567188 -0.068750
v -0.256250 0.567188 -0.056250
v -0.237500 0.587500 -0.050000
v -0.237500 0.587500 -0.075000
v -0.237500 0.581250 -0.050000
v -0.237500 0.581250 -0.075000
v -0.262500 0.587500 -0.075000
v -0.262500 0.587500 -0.050000
v -0.262500 0.581250 -0.075000
v -0.262500 0.581250 -0.050000
v -0.237500 0.579687 -0.050000
v -0.237500 0.579687 -0.075000
v -0.237500 0.573438 -0.050000
v -0.237500 0.573438 -0.075000
v -0.262500 0.579687 -0.075000
v -0.262500 0.579687 -0.050000
v -0.262500 0.573438 -0.075000
v -0.262500 0.573438 -0.050000
v -0.243750 0.587500 0.068750
v -0.243750 0.587500 0.056250
v -0.243750 0.567188 0.068750
v -0.243750 0.567188 0.056250
v -0.256250 0.587500 0.056250
v -0.256250 0.587500 0.068750
v -0.256250 0.567188 0.056250
v -0.256250 0.567188 0.068750
v -0.237500 0.587500 0.075000
v -0.237500 0.587500 0.050000
v -0.237500 0.581250 0.075000
v -0.237500 0.581250 0.050000
v -0.262500 0.587500 0.050000
v -0.262500 0.587500 0.075000
v -0.262500 0.581250 0.050000
v -0.262500 0.581250 0.075000
v -0.237500 0.579687 0.075000
v -0.237500 0.579687 0.050000
v -0.237500 0.573438 0.075000
v -0.237500 0.573438 0.050000
v -0.262500 0.579687 0.050000
v -0.262500 0.579687 0.075000
v -0.262500 0.573438 0.050000
v -0.262500 0.573438 0.075000
v 0.256250 0.587500 -0.056250
v 0.256250 0.587500 -0.068750
v 0.256250 0.567188 -0.056250
v 0.256250 0.567188 -0.068750
v 0.243750 0.587500 -0.068750
v 0.243750 0.587500 -0.056250
v 0.243750 0.567188 -0.068750
v 0.243750 0.567188 -0.056250
v 0.262500 0.587500 -0.050000
v 0.262500 0.587500 -0.075000
v 0.262500 0.581250 -0.050000
v 0.262500 0.581250 -0.075000
v 0.237500 0.587500 -0.075000
v 0.237500 0.587500 -0.050000
v 0.237500 0.581250 -0.075000
v 0.237500 0.581250 -0.050000
v 0.262500 0.579687 -0.050000
v 0.262500 0.579687 -0.075000
v 0.262500 0.573438 -0.050000
v 0.262500 0.573438 -0.075000
v 0.237500 0.579687 -0.075000
v 0.237500 0.579687 -0.050000
v 0.237500 0.573438 -0.075000
v 0.237500 0.573438 -0.050000
v 0.256250 0.587500 0.068750
v 0.256250 0.587500 0.056250
v 0.256250 0.567188 0.068750
v 0.256250 0.567188 0.056250
v 0.243750 0.587500 0.056250
v 0.243750 0.587500 0.068750
v 0.243750 0.567188 0.056250
v 0.243750 0.567188 0.068750
v 0.262500 0.587500 0.075000
v 0.262500 0.587500 0.050000
v 0.262500 0.581250 0.075000
v 0.262500 0.581250 0.050000
v 0.237500 0.587500 0.050000
v 0.237500 0.587500 0.075000
v 0.237500 0.581250 0.050000
v 0.237500 0.581250 0.075000
v 0.262500 0.579687 0.075000
v 0.262500 0.579687 0.050000
v 0.262500 0.573438 0.075000
v 0.262500 0.573438 0.050000
v 0.237500 0.579687 0.050000
v 0.237500 0.579687 0.075000
v 0.237500 0.573438 0.050000
v 0.237500 0.573438 0.075000
v -0.218750 0.617188 0.093750
v -0.218750 0.617188 -0.093750
v -0.218750 0.600000 0.093750
v -0.218750 0.600000 -0.093750
v -0.281250 0.617188 -0.093750
v -0.281250 0.617188 0.093750
v -0.281250 0.600000 -0.093750
v -0.281250 0.600000 0.093750
v 0.281250 0.617188 0.093750
v 0.281250 0.617188 -0.093750
v 0.281250 0.600000 0.093750
v 0.281250 0.600000 -0.093750
v 0.218750 0.617188 -0.093750
v 0.218750 0.617188 0.093750
v 0.218750 0.600000 -0.093750
v 0.218750 0.600000 0.093750
v 0.062500 0.930407 0.125000
v 0.062500 0.930407 -0.125000
v 0.062500 0.899157 0.125000
v 0.062500 0.899157 -0.125000
v -0.062500 0.930407 -0.125000
v -0.062500 0.930407 0.125000
v -0.062500 0.899157 -0.125000
v -0.062500 0.899157 0.125000
v 0.030418 0.917256 0.062500
v 0.030418 0.917256 0.031250
v 0.265625 0.600000 0.062500
v 0.265625 0.600000 0.031250
v 0.008699 0.906057 0.031250
v 0.008699 0.906057 0.062500
v 0.234375 0.600000 0.031250
v 0.234375 0.600000 0.062500
v 0.030418 0.917256 -0.031250
v 0.030418 0.917256 -0.062500
v 0.265625 0.600000 -0.031250
v 0.265625 0.600000 -0.062500
v 0.008699 0.906057 -0.062500
v 0.008699 0.906057 -0.031250
v 0.234375 0.600000 -0.062500
v 0.234375 0.600000 -0.031250
v -0.030418 0.917256 0.062500
v -0.030418 0.917256 0.031250
v -0.265625 0.600000 0.062500
v -0.265625 0.600000 0.031250
v -0.008699 0.906057 0.031250
v -0.008699 0.906057 0.062500
v -0.234375 0.600000 0.031250
v -0.234375 0.600000 0.062500
v -0.030418 0.917256 -0.031250
v -0.030418 0.917256 -0.062500
v -0.265625 0.600000 -0.031250
v -0.265625 0.600000 -0.062500
v -0.008699 0.906057 -0.062500
v -0.008699 0.906057 -0.031250
v -0.234375 0.600000 -0.062500
v -0.234375 0.600000 -0.031250
v 0.093750 0.224506 0.031250
v 0.093750 0.224506 -0.031250
v -0.093750 0.224506 -0.031250
v -0.093750 0.224506 0.031250
v -0.093750 0.237006 0.031250
v -0.093750 0.237006 -0.031250
v -0.106250 0.237006 -0.031250
v -0.106250 0.237006 0.031250
v -0.106250 0.199506 -0.031250
v -0.106250 0.199506 0.031250
v 0.106250 0.237006 0.031250
v 0.106250 0.237006 -0.031250
v 0.106250 0.199506 0.031250
v 0.106250 0.199506 -0.031250
v 0.093750 0.237006 -0.031250
v 0.093750 0.237006 0.031250
v -0.073377 0.205756 0.031250
v -0.073377 0.205756 -0.031250
v -0.073377 0.199506 0.031250
v -0.073377 0.199506 -0.031250
v -0.093750 0.205756 -0.031250
v -0.093750 0.205756 0.031250
v -0.093750 0.199506 -0.031250
v -0.093750 0.199506 0.031250
v 0.093750 0.205756 0.031250
v 0.093750 0.205756 -0.031250
v 0.093750 0.199506 0.031250
v 0.093750 0.199506 -0.031250
v 0.073377 0.205756 -0.031250
v 0.073377 0.205756 0.031250
v 0.073377 0.199506 -0.031250
v 0.073377 0.199506 0.031250
v 0.015625 0.343090 0.015625
v 0.015625 0.343090 -0.015625
v 0.015625 0.237006 0.015625
v 0.015625 0.237006 -0.015625
v -0.015625 0.343090 -0.015625
v -0.015625 0.343090 0.015625
v -0.015625 0.237006 -0.015625
v -0.015625 0.237006 0.015625
v 0.062500 0.930407 0.125000
v 0.062500 0.930407 -0.125000
v -0.062500 0.930407 -0.125000
v -0.062500 0.930407 0.125000
vn -0.0000 -0.0000 -1.0000
vn 1.0000 -0.0000 -0.0000
vn -0.0000 -0.0000 1.0000
vn -1.0000 -0.0000 -0.0000
vn -0.0000 1.0000 -0.0000
vn -0.0000 -1.0000 -0.0000
vn 0.8033 0.5956 -0.0000
vn -0.8049 -0.5935 -0.0000
vn -0.8033 0.5956 -0.0000
vn 0.8049 -0.5935 -0.0000
vt 0.571091 0.699445
vt 0.547653 0.699445
vt 0.547653 0.695538
vt 0.571091 0.695538
vt 0.551560 0.676007
vt 0.551560 0.699445
vt 0.547653 0.676007
vt 0.571091 0.676007
vt 0.041669 0.694847
vt 0.135419 0.694847
vt 0.135419 0.696410
vt 0.041669 0.696410
vt 0.057294 0.694847
vt 0.057294 0.696410
vt 0.041669 0.680785
vt 0.135419 0.680785
vt 0.041669 0.689769
vt 0.135419 0.689769
vt 0.048310 0.694847
vt 0.048310 0.696410
vt 0.089291 0.658830
vt 0.092416 0.658830
vt 0.092416 0.716252
vt 0.089291 0.716252
vt 0.000000 0.942578
vt 0.003125 0.942578
vt 0.003125 1.000000
vt 0.000000 1.000000
vt 0.486087 0.716729
vt 0.492337 0.716729
vt 0.492337 0.718291
vt 0.486087 0.718291
vt 0.083265 0.696034
vt 0.099270 0.696034
vt 0.099270 0.697034
vt 0.083265 0.697034
vt 0.084266 0.696034
vt 0.084266 0.697034
vt 0.499977 0.716729
vt 0.506227 0.716729
vt 0.506227 0.718291
vt 0.499977 0.718291
vt 0.075000 0.711875
vt 0.090625 0.711875
vt 0.090625 0.715000
vt 0.075000 0.715000
vt 0.075000 0.699375
vt 0.090625 0.699375
vt 0.106250 0.699375
vt 0.106250 0.715000
vt 0.106250 0.711875
vt 0.095541 0.658830
vt 0.095541 0.716252
vt 0.006250 0.942578
vt 0.006250 1.000000
vt 0.492728 0.696650
vt 0.498978 0.696650
vt 0.498978 0.698212
vt 0.492728 0.698212
vt 0.470228 0.711650
vt 0.476478 0.711650
vt 0.476478 0.713212
vt 0.470228 0.713212
vt 0.486478 0.696650
vt 0.486478 0.698212
vt 0.115000 0.715142
vt 0.118125 0.715142
vt 0.118125 0.720221
vt 0.115000 0.720221
vt 0.090000 0.701875
vt 0.093125 0.701875
vt 0.093125 0.705000
vt 0.090000 0.705000
vt 0.472197 0.720697
vt 0.478447 0.720697
vt 0.478447 0.722260
vt 0.472197 0.722260
vt 0.090000 0.699922
vt 0.093125 0.699922
vt 0.511882 0.702839
vt 0.518132 0.702839
vt 0.518132 0.704401
vt 0.511882 0.704401
vt 0.075000 0.710703
vt 0.090625 0.710703
vt 0.121875 0.710703
vt 0.121875 0.715000
vt 0.075000 0.668125
vt 0.090625 0.668125
vt 0.106250 0.710703
vt 0.055559 0.740188
vt 0.086809 0.740188
vt 0.086809 0.748000
vt 0.055559 0.748000
vt 0.118059 0.740188
vt 0.118059 0.748000
vt 0.055559 0.685500
vt 0.086809 0.685500
vt 0.063372 0.662063
vt 0.055559 0.662063
vt 0.063372 0.748000
vt 0.078997 0.662063
vt 0.078997 0.748000
vt 0.312500 0.677500
s 0
usemtl 1.001
f 4/1/1 7/2/1 5/3/1 2/4/1
f 3/5/2 4/6/2 2/2/2 1/7/2
f 8/3/3 3/4/3 1/1/3 6/2/3
f 7/2/4 8/7/4 6/5/4 5/6/4
f 6/7/5 1/8/5 2/1/5 5/2/5
f 7/1/6 4/2/6 3/7/6 8/8/6
f 12/1/1 15/2/1 13/3/1 10/4/1
f 11/5/2 12/6/2 10/2/2 9/7/2
f 16/3/3 11/4/3 9/1/3 14/2/3
f 15/2/4 16/7/4 14/5/4 13/6/4
f 14/7/5 9/8/5 10/1/5 13/2/5
f 15/1/6 12/2/6 11/7/6 16/8/6
f 20/1/1 23/2/1 21/3/1 18/4/1
f 19/5/2 20/6/2 18/2/2 17/7/2
f 24/3/3 19/4/3 17/1/3 22/2/3
f 23/2/4 24/7/4 22/5/4 21/6/4
f 22/7/5 17/8/5 18/1/5 21/2/5
f 23/1/6 20/2/6 19/7/6 24/8/6
f 28/9/1 31/10/1 29/11/1 26/12/1
f 27/9/2 28/13/2 26/14/2 25/12/2
f 32/9/3 27/10/3 25/11/3 30/12/3
f 31/9/4 32/13/4 30/14/4 29/12/4
f 30/15/5 25/16/5 26/11/5 29/12/5
f 31/15/6 28/16/6 27/11/6 32/12/6
f 36/11/1 39/12/1 37/17/1 34/18/1
f 35/12/2 36/9/2 34/19/2 33/20/2
f 40/17/3 35/18/3 33/11/3 38/12/3
f 39/19/4 40/20/4 38/12/4 37/9/4
f 38/11/5 33/12/5 34/9/5 37/10/5
f 44/11/1 47/12/1 45/17/1 42/18/1
f 43/12/2 44/9/2 42/19/2 41/20/2
f 48/17/3 43/18/3 41/11/3 46/12/3
f 47/19/4 48/20/4 46/12/4 45/9/4
f 46/11/5 41/12/5 42/9/5 45/10/5
f 52/21/1 55/22/1 53/23/1 50/24/1
f 51/21/2 52/22/2 50/23/2 49/24/2
f 56/21/3 51/22/3 49/23/3 54/24/3
f 55/21/4 56/22/4 54/23/4 53/24/4
f 55/25/6 52/26/6 51/27/6 56/28/6
f 60/29/1 63/30/1 61/31/1 58/32/1
f 59/29/2 60/30/2 58/31/2 57/32/2
f 64/29/3 59/30/3 57/31/3 62/32/3
f 63/29/4 64/30/4 62/31/4 61/32/4
f 63/29/6 60/30/6 59/31/6 64/32/6
f 68/29/1 71/30/1 69/31/1 66/32/1
f 67/29/2 68/30/2 66/31/2 65/32/2
f 72/29/3 67/30/3 65/31/3 70/32/3
f 71/29/4 72/30/4 70/31/4 69/32/4
f 70/29/5 65/30/5 66/31/5 69/32/5
f 71/29/6 68/30/6 67/31/6 72/32/6
f 76/29/1 79/30/1 77/31/1 74/32/1
f 75/29/2 76/30/2 74/31/2 73/32/2
f 80/29/3 75/30/3 73/31/3 78/32/3
f 79/29/4 80/30/4 78/31/4 77/32/4
f 78/29/5 73/30/5 74/31/5 77/32/5
f 79/29/6 76/30/6 75/31/6 80/32/6
f 84/29/1 87/30/1 85/31/1 82/32/1
f 83/29/2 84/30/2 82/31/2 81/32/2
f 88/29/3 83/30/3 81/31/3 86/32/3
f 87/29/4 88/30/4 86/31/4 85/32/4
f 86/29/5 81/30/5 82/31/5 85/32/5
f 92/33/1 95/34/1 93/35/1 90/36/1
f 91/33/2 92/37/2 90/38/2 89/36/2
f 96/33/3 91/34/3 89/35/3 94/36/3
f 95/33/4 96/37/4 94/38/4 93/36/4
f 94/33/5 89/34/5 90/35/5 93/36/5
f 95/33/6 92/34/6 91/35/6 96/36/6
f 100/39/1 103/40/1 101/41/1 98/42/1
f 99/39/2 100/40/2 98/41/2 97/42/2
f 104/39/3 99/40/3 97/41/3 102/42/3
f 103/39/4 104/40/4 102/41/4 101/42/4
f 102/39/5 97/40/5 98/41/5 101/42/5
f 103/39/6 100/40/6 99/41/6 104/42/6
f 108/39/1 111/40/1 109/41/1 106/42/1
f 107/39/2 108/40/2 106/41/2 105/42/2
f 112/39/3 107/40/3 105/41/3 110/42/3
f 111/39/4 112/40/4 110/41/4 109/42/4
f 111/39/6 108/40/6 107/41/6 112/42/6
f 116/43/1 119/44/1 117/45/1 114/46/1
f 115/43/2 116/44/2 114/45/2 113/46/2
f 119/43/4 120/44/4 118/45/4 117/46/4
f 119/47/6 116/48/6 115/45/6 120/46/6
f 124/48/1 127/49/1 125/50/1 122/45/1
f 123/48/2 124/49/2 122/50/2 121/45/2
f 127/48/4 128/49/4 126/50/4 125/45/4
f 127/48/6 124/49/6 123/50/6 128/45/6
f 131/45/2 132/50/2 130/49/2 129/48/2
f 136/45/3 131/50/3 129/49/3 134/48/3
f 135/45/4 136/50/4 134/49/4 133/48/4
f 135/45/6 132/50/6 131/49/6 136/48/6
f 139/44/2 140/51/2 138/50/2 137/45/2
f 144/44/3 139/51/3 137/50/3 142/45/3
f 143/44/4 144/51/4 142/50/4 141/45/4
f 143/44/6 140/51/6 139/50/6 144/45/6
f 148/39/1 151/40/1 149/41/1 146/42/1
f 147/39/2 148/40/2 146/41/2 145/42/2
f 152/39/3 147/40/3 145/41/3 150/42/3
f 151/39/4 152/40/4 150/41/4 149/42/4
f 151/39/6 148/40/6 147/41/6 152/42/6
f 156/39/1 159/40/1 157/41/1 154/42/1
f 155/39/2 156/40/2 154/41/2 153/42/2
f 160/39/3 155/40/3 153/41/3 158/42/3
f 159/39/4 160/40/4 158/41/4 157/42/4
f 158/39/5 153/40/5 154/41/5 157/42/5
f 159/39/6 156/40/6 155/41/6 160/42/6
f 164/22/1 167/52/1 165/53/1 162/23/1
f 163/22/2 164/52/2 162/53/2 161/23/2
f 168/22/3 163/52/3 161/53/3 166/23/3
f 167/22/4 168/52/4 166/53/4 165/23/4
f 167/26/6 164/54/6 163/55/6 168/27/6
f 172/56/1 175/57/1 173/58/1 170/59/1
f 171/56/2 172/57/2 170/58/2 169/59/2
f 176/60/3 171/61/3 169/62/3 174/63/3
f 175/56/4 176/57/4 174/58/4 173/59/4
f 174/56/5 169/57/5 170/58/5 173/59/5
f 175/56/6 172/57/6 171/58/6 176/59/6
f 180/56/1 183/57/1 181/58/1 178/59/1
f 179/56/2 180/57/2 178/58/2 177/59/2
f 184/60/3 179/61/3 177/62/3 182/63/3
f 183/56/4 184/57/4 182/58/4 181/59/4
f 183/56/6 180/57/6 179/58/6 184/59/6
f 188/56/1 191/64/1 189/65/1 186/59/1
f 187/56/2 188/64/2 186/65/2 185/59/2
f 192/56/3 187/64/3 185/65/3 190/59/3
f 191/56/4 192/64/4 190/65/4 189/59/4
f 190/56/5 185/64/5 186/65/5 189/59/5
f 196/56/1 199/64/1 197/65/1 194/59/1
f 195/56/2 196/64/2 194/65/2 193/59/2
f 200/56/3 195/64/3 193/65/3 198/59/3
f 199/56/4 200/64/4 198/65/4 197/59/4
f 198/56/5 193/64/5 194/65/5 197/59/5
f 199/56/6 196/64/6 195/65/6 200/59/6
f 204/66/1 207/67/1 205/68/1 202/69/1
f 203/66/2 204/67/2 202/68/2 201/69/2
f 208/66/3 203/67/3 201/68/3 206/69/3
f 207/66/4 208/67/4 206/68/4 205/69/4
f 207/70/6 204/71/6 203/72/6 208/73/6
f 212/74/1 215/75/1 213/76/1 210/77/1
f 211/74/2 212/75/2 210/76/2 209/77/2
f 216/74/3 211/75/3 209/76/3 214/77/3
f 215/74/4 216/75/4 214/76/4 213/77/4
f 215/74/6 212/75/6 211/76/6 216/77/6
f 220/74/1 223/75/1 221/76/1 218/77/1
f 219/74/2 220/75/2 218/76/2 217/77/2
f 224/74/3 219/75/3 217/76/3 222/77/3
f 223/74/4 224/75/4 222/76/4 221/77/4
f 222/74/5 217/75/5 218/76/5 221/77/5
f 223/74/6 220/75/6 219/76/6 224/77/6
f 228/66/1 231/67/1 229/68/1 226/69/1
f 227/66/2 228/67/2 226/68/2 225/69/2
f 232/66/3 227/67/3 225/68/3 230/69/3
f 231/66/4 232/67/4 230/68/4 229/69/4
f 231/70/6 228/71/6 227/72/6 232/73/6
f 236/74/1 239/75/1 237/76/1 234/77/1
f 235/74/2 236/75/2 234/76/2 233/77/2
f 240/74/3 235/75/3 233/76/3 238/77/3
f 239/74/4 240/75/4 238/76/4 237/77/4
f 239/74/6 236/75/6 235/76/6 240/77/6
f 244/74/1 247/75/1 245/76/1 242/77/1
f 243/74/2 244/75/2 242/76/2 241/77/2
f 248/74/3 243/75/3 241/76/3 246/77/3
f 247/74/4 248/75/4 246/76/4 245/77/4
f 246/74/5 241/75/5 242/76/5 245/77/5
f 247/74/6 244/75/6 243/76/6 248/77/6
f 252/78/1 255/79/1 253/72/1 250/73/1
f 251/78/2 252/79/2 250/72/2 249/73/2
f 256/78/3 251/79/3 249/72/3 254/73/3
f 255/78/4 256/79/4 254/72/4 253/73/4
f 255/70/6 252/71/6 251/72/6 256/73/6
f 260/80/1 263/81/1 261/82/1 258/83/1
f 259/80/2 260/81/2 258/82/2 257/83/2
f 264/80/3 259/81/3 257/82/3 262/83/3
f 263/80/4 264/81/4 262/82/4 261/83/4
f 263/80/6 260/81/6 259/82/6 264/83/6
f 268/80/1 271/81/1 269/82/1 266/83/1
f 267/80/2 268/81/2 266/82/2 265/83/2
f 272/80/3 267/81/3 265/82/3 270/83/3
f 271/80/4 272/81/4 270/82/4 269/83/4
f 270/80/5 265/81/5 266/82/5 269/83/5
f 271/80/6 268/81/6 267/82/6 272/83/6
f 276/78/1 279/79/1 277/72/1 274/73/1
f 275/78/2 276/79/2 274/72/2 273/73/2
f 280/78/3 275/79/3 273/72/3 278/73/3
f 279/78/4 280/79/4 278/72/4 277/73/4
f 279/70/6 276/71/6 275/72/6 280/73/6
f 284/80/1 287/81/1 285/82/1 282/83/1
f 283/80/2 284/81/2 282/82/2 281/83/2
f 288/80/3 283/81/3 281/82/3 286/83/3
f 287/80/4 288/81/4 286/82/4 285/83/4
f 287/80/6 284/81/6 283/82/6 288/83/6
f 292/80/1 295/81/1 293/82/1 290/83/1
f 291/80/2 292/81/2 290/82/2 289/83/2
f 296/80/3 291/81/3 289/82/3 294/83/3
f 295/80/4 296/81/4 294/82/4 293/83/4
f 294/80/5 289/81/5 290/82/5 293/83/5
f 295/80/6 292/81/6 291/82/6 296/83/6
f 300/84/1 303/85/1 301/45/1 298/46/1
f 299/84/2 300/86/2 298/87/2 297/46/2
f 304/84/3 299/85/3 297/45/3 302/46/3
f 303/84/4 304/86/4 302/87/4 301/46/4
f 302/88/5 297/89/5 298/45/5 301/46/5
f 308/85/1 311/84/1 309/46/1 306/45/1
f 307/86/2 308/84/2 306/46/2 305/87/2
f 312/85/3 307/90/3 305/50/3 310/45/3
f 311/86/4 312/84/4 310/46/4 309/87/4
f 310/89/5 305/88/5 306/46/5 309/45/5
f 316/91/1 319/92/1 317/93/1 314/94/1
f 315/91/2 316/95/2 314/96/2 313/94/2
f 320/91/3 315/92/3 313/93/3 318/94/3
f 319/91/4 320/95/4 318/96/4 317/94/4
f 319/97/6 316/98/6 315/93/6 320/94/6
f 324/99/1 327/100/1 325/94/1 322/101/1
f 323/99/7 324/100/7 322/94/7 321/101/7
f 328/99/3 323/102/3 321/103/3 326/101/3
f 327/99/8 328/100/8 326/94/8 325/101/8
f 332/99/1 335/100/1 333/94/1 330/101/1
f 331/99/7 332/100/7 330/94/7 329/101/7
f 336/99/3 331/102/3 329/103/3 334/101/3
f 335/99/8 336/100/8 334/94/8 333/101/8
f 340/99/1 338/101/1 341/94/1 343/100/1
f 339/99/9 337/101/9 338/94/9 340/100/9
f 344/99/3 342/101/3 337/103/3 339/102/3
f 343/99/10 341/101/10 342/94/10 344/100/10
f 348/99/1 346/101/1 349/94/1 351/100/1
f 347/99/9 345/101/9 346/94/9 348/100/9
f 352/99/3 350/101/3 345/103/3 347/102/3
f 351/99/10 349/101/10 350/94/10 352/100/10
f 354/104/1 355/104/1 358/104/1 367/104/1
f 356/104/3 353/104/3 368/104/3 357/104/3
f 357/104/5 368/104/5 367/104/5 358/104/5
f 355/104/6 354/104/6 353/104/6 356/104/6
f 375/104/1 361/104/1 359/104/1 358/104/1 355/104/1 373/104/1
f 376/104/2 375/104/2 373/104/2 374/104/2
f 362/104/3 376/104/3 374/104/3 356/104/3 357/104/3 360/104/3
f 361/104/4 362/104/4 360/104/4 359/104/4
f 360/104/5 357/104/5 358/104/5 359/104/5
f 361/104/6 375/104/6 376/104/6 362/104/6
f 366/104/1 380/104/1 378/104/1 354/104/1 367/104/1 364/104/1
f 365/104/2 366/104/2 364/104/2 363/104/2
f 379/104/3 365/104/3 363/104/3 368/104/3 353/104/3 377/104/3
f 380/104/4 379/104/4 377/104/4 353/104/4 368/104/4 367/104/4 354/104/4 378/104/4
f 368/104/5 363/104/5 364/104/5 367/104/5
f 380/104/6 366/104/6 365/104/6 379/104/6
f 372/104/1 375/104/1 373/104/1 370/104/1
f 371/104/2 372/104/2 370/104/2 369/104/2
f 376/104/3 371/104/3 369/104/3 374/104/3
f 374/104/5 369/104/5 370/104/5 373/104/5
f 375/104/6 372/104/6 371/104/6 376/104/6
f 380/104/1 383/104/1 381/104/1 378/104/1
f 384/104/3 379/104/3 377/104/3 382/104/3
f 383/104/4 384/104/4 382/104/4 381/104/4
f 382/104/5 377/104/5 378/104/5 381/104/5
f 383/104/6 380/104/6 379/104/6 384/104/6
f 374/104/2 373/104/2 355/104/2 358/104/2 357/104/2 356/104/2
f 388/104/1 391/104/1 389/104/1 386/104/1
f 387/104/2 388/104/2 386/104/2 385/104/2
f 392/104/3 387/104/3 385/104/3 390/104/3
f 391/104/4 392/104/4 390/104/4 389/104/4
f 396/97/5 393/98/5 394/93/5 395/94/5
