# Blender 4.0.2
# www.blender.org
mtllib moretop_-2.mtl
o moretop_1.002
v 0.000000 2.000000 0.200000
v -0.700000 2.000000 0.200000
v 0.000000 1.923463 0.184776
v -0.700000 1.923463 0.184776
v 0.000000 1.858578 0.141421
v -0.700000 1.858579 0.141421
v 0.000000 1.815224 0.076537
v -0.700000 1.815224 0.076537
v 0.000000 1.800000 -0.000000
v -0.700000 1.800000 0.000000
v -0.000000 1.815224 -0.076537
v -0.700000 1.815224 -0.076537
v -0.000000 1.858578 -0.141421
v -0.700000 1.858579 -0.141421
v -0.000000 1.923463 -0.184776
v -0.700000 1.923463 -0.184776
v -0.000000 2.000000 -0.200000
v -0.700000 2.000000 -0.200000
v -0.000000 2.076536 -0.184776
v -0.700000 2.076537 -0.184776
v -0.000000 2.141421 -0.141421
v -0.700000 2.141421 -0.141421
v -0.000000 2.184776 -0.076537
v -0.700000 2.184776 -0.076537
v 0.000000 2.200000 -0.000000
v -0.700000 2.200000 0.000000
v 0.000000 2.184776 0.076537
v -0.700000 2.184776 0.076537
v 0.000000 2.141421 0.141421
v -0.700000 2.141421 0.141421
v 0.000000 2.076536 0.184776
v -0.700000 2.076537 0.184776
v 0.130526 1.991445 0.200000
v 0.120536 1.915563 0.184776
v 0.112067 1.851233 0.141421
v 0.106408 1.808250 0.076537
v 0.104421 1.793156 -0.000000
v 0.106408 1.808250 -0.076537
v 0.112067 1.851233 -0.141421
v 0.120536 1.915563 -0.184776
v 0.130526 1.991445 -0.200000
v 0.140516 2.067327 -0.184776
v 0.148985 2.131656 -0.141421
v 0.154644 2.174640 -0.076537
v 0.156631 2.189734 -0.000000
v 0.154644 2.174640 0.076537
v 0.148985 2.131656 0.141421
v 0.140516 2.067327 0.184776
v 0.258819 1.965926 0.200000
v 0.239010 1.891997 0.184776
v 0.222216 1.829323 0.141421
v 0.210996 1.787446 0.076537
v 0.207055 1.772740 -0.000000
v 0.210995 1.787446 -0.076537
v 0.222216 1.829323 -0.141421
v 0.239010 1.891997 -0.184776
v 0.258819 1.965926 -0.200000
v 0.278628 2.039855 -0.184776
v 0.295422 2.102528 -0.141421
v 0.306643 2.144405 -0.076537
v 0.310583 2.159111 -0.000000
v 0.306643 2.144405 0.076537
v 0.295422 2.102528 0.141421
v 0.278628 2.039855 0.184776
v 0.382683 1.923879 0.200000
v 0.353394 1.853169 0.184776
v 0.328564 1.793223 0.141421
v 0.311973 1.753169 0.076537
v 0.306147 1.739103 -0.000000
v 0.311973 1.753169 -0.076537
v 0.328564 1.793223 -0.141421
v 0.353394 1.853169 -0.184776
v 0.382683 1.923879 -0.200000
v 0.411973 1.994590 -0.184776
v 0.436803 2.054536 -0.141421
v 0.453394 2.094590 -0.076537
v 0.459220 2.108655 -0.000000
v 0.453394 2.094590 0.076537
v 0.436803 2.054536 0.141421
v 0.411973 1.994590 0.184776
v 0.500000 1.866025 0.200000
v 0.461732 1.799743 0.184776
v 0.429289 1.743551 0.141421
v 0.407612 1.706005 0.076537
v 0.400000 1.692820 -0.000000
v 0.407612 1.706005 -0.076537
v 0.429289 1.743551 -0.141421
v 0.461732 1.799743 -0.184776
v 0.500000 1.866025 -0.200000
v 0.538268 1.932308 -0.184776
v 0.570711 1.988500 -0.141421
v 0.592388 2.026046 -0.076537
v 0.600000 2.039231 -0.000000
v 0.592388 2.026046 0.076537
v 0.570711 1.988500 0.141421
v 0.538268 1.932308 0.184776
v 0.608761 1.793353 0.200000
v 0.562169 1.732633 0.184776
v 0.522670 1.681156 0.141421
v 0.496277 1.646761 0.076537
v 0.487009 1.634682 -0.000000
v 0.496277 1.646761 -0.076537
v 0.522670 1.681156 -0.141421
v 0.562169 1.732633 -0.184776
v 0.608761 1.793353 -0.200000
v 0.655354 1.854074 -0.184776
v 0.694853 1.905551 -0.141421
v 0.721246 1.939946 -0.076537
v 0.730514 1.952024 -0.000000
v 0.721246 1.939946 0.076537
v 0.694853 1.905551 0.141421
v 0.655354 1.854074 0.184776
v 0.707107 1.707107 0.200000
v 0.652987 1.652987 0.184776
v 0.607107 1.607107 0.141421
v 0.576451 1.576451 0.076537
v 0.565685 1.565685 -0.000000
v 0.576451 1.576451 -0.076537
v 0.607107 1.607107 -0.141421
v 0.652987 1.652987 -0.184776
v 0.707107 1.707107 -0.200000
v 0.761226 1.761226 -0.184776
v 0.807107 1.807107 -0.141421
v 0.837763 1.837763 -0.076537
v 0.848528 1.848528 -0.000000
v 0.837763 1.837763 0.076537
v 0.807107 1.807107 0.141421
v 0.761226 1.761226 0.184776
v 0.793353 1.608761 0.200000
v 0.732633 1.562169 0.184776
v 0.681156 1.522670 0.141421
v 0.646761 1.496277 0.076537
v 0.634683 1.487009 -0.000000
v 0.646761 1.496277 -0.076537
v 0.681156 1.522670 -0.141421
v 0.732633 1.562169 -0.184776
v 0.793353 1.608761 -0.200000
v 0.854074 1.655354 -0.184776
v 0.905551 1.694854 -0.141421
v 0.939946 1.721246 -0.076537
v 0.952024 1.730514 -0.000000
v 0.939946 1.721246 0.076537
v 0.905551 1.694854 0.141421
v 0.854074 1.655354 0.184776
v 0.866026 1.500000 0.200000
v 0.799743 1.461732 0.184776
v 0.743551 1.429289 0.141421
v 0.706005 1.407612 0.076537
v 0.692820 1.400000 -0.000000
v 0.706005 1.407612 -0.076537
v 0.743551 1.429289 -0.141421
v 0.799743 1.461732 -0.184776
v 0.866025 1.500000 -0.200000
v 0.932308 1.538268 -0.184776
v 0.988500 1.570711 -0.141421
v 1.026046 1.592388 -0.076537
v 1.039231 1.600000 -0.000000
v 1.026046 1.592388 0.076537
v 0.988500 1.570711 0.141421
v 0.932308 1.538268 0.184776
v 0.923880 1.382683 0.200000
v 0.853169 1.353395 0.184776
v 0.793223 1.328564 0.141421
v 0.753169 1.311973 0.076537
v 0.739104 1.306147 -0.000000
v 0.753169 1.311973 -0.076537
v 0.793223 1.328564 -0.141421
v 0.853169 1.353395 -0.184776
v 0.923880 1.382683 -0.200000
v 0.994590 1.411973 -0.184776
v 1.054536 1.436803 -0.141421
v 1.094590 1.453394 -0.076537
v 1.108656 1.459220 -0.000000
v 1.094590 1.453394 0.076537
v 1.054536 1.436803 0.141421
v 0.994590 1.411973 0.184776
v 0.965926 1.258819 0.200000
v 0.891997 1.239010 0.184776
v 0.829323 1.222216 0.141421
v 0.787446 1.210996 0.076537
v 0.772741 1.207055 -0.000000
v 0.787446 1.210996 -0.076537
v 0.829323 1.222216 -0.141421
v 0.891997 1.239010 -0.184776
v 0.965926 1.258819 -0.200000
v 1.039855 1.278628 -0.184776
v 1.102529 1.295422 -0.141421
v 1.144406 1.306642 -0.076537
v 1.159111 1.310583 -0.000000
v 1.144406 1.306642 0.076537
v 1.102529 1.295422 0.141421
v 1.039855 1.278628 0.184776
v 0.991445 1.130526 0.200000
v 0.915563 1.120537 0.184776
v 0.851234 1.112067 0.141421
v 0.808250 1.106408 0.076537
v 0.793156 1.104421 -0.000000
v 0.808250 1.106408 -0.076537
v 0.851234 1.112067 -0.141421
v 0.915563 1.120537 -0.184776
v 0.991445 1.130526 -0.200000
v 1.067327 1.140516 -0.184776
v 1.131657 1.148985 -0.141421
v 1.174640 1.154644 -0.076537
v 1.189734 1.156631 -0.000000
v 1.174640 1.154644 0.076537
v 1.131657 1.148985 0.141421
v 1.067327 1.140516 0.184776
v 1.000000 1.000000 0.200000
v 0.923464 1.000000 0.184776
v 0.858579 1.000000 0.141421
v 0.815224 1.000000 0.076537
v 0.800000 1.000000 -0.000000
v 0.815224 1.000000 -0.076537
v 0.858579 1.000000 -0.141421
v 0.923464 1.000000 -0.184776
v 1.000000 1.000000 -0.200000
v 1.076537 1.000000 -0.184776
v 1.141422 1.000000 -0.141421
v 1.184776 1.000000 -0.076537
v 1.200001 1.000000 -0.000000
v 1.184776 1.000000 0.076537
v 1.141422 1.000000 0.141421
v 1.076537 1.000000 0.184776
v 0.999999 -7.900000 0.199999
v 0.923462 -7.900000 0.184775
v 0.858577 -7.900000 0.141420
v 0.815223 -7.900000 0.076536
v 0.799999 -7.900000 -0.000001
v 0.815223 -7.900000 -0.076538
v 0.858577 -7.900000 -0.141423
v 0.923462 -7.900000 -0.184777
v 0.999999 -7.900000 -0.200001
v 1.076535 -7.900000 -0.184777
v 1.141421 -7.900000 -0.141423
v 1.184774 -7.900000 -0.076538
v 1.199999 -7.900000 -0.000001
v 1.184774 -7.900000 0.076535
v 1.141421 -7.900000 0.141420
v 1.076535 -7.900000 0.184775
vn -0.0000 -0.1951 0.9808
vn -0.0000 -0.5556 0.8315
vn -0.0000 -0.8315 0.5556
vn -0.0000 -0.9808 0.1951
vn -0.0000 -0.9808 -0.1951
vn -0.0000 -0.8315 -0.5556
vn -0.0000 -0.5556 -0.8315
vn -0.0000 -0.1951 -0.9808
vn -0.0000 0.1951 -0.9808
vn -0.0000 0.5556 -0.8315
vn -0.0000 0.8315 -0.5556
vn -0.0000 0.9808 -0.1951
vn -0.0000 0.9808 0.1951
vn -0.0000 0.8315 0.5556
vn -1.0000 -0.0000 -0.0000
vn -0.0000 0.5556 0.8315
vn -0.0000 0.1951 0.9808
vn -0.0364 -0.5552 0.8309
vn 0.0381 0.1917 -0.9807
vn -0.0364 -0.5552 -0.8309
vn 0.0642 0.9788 -0.1947
vn -0.0642 -0.9788 -0.1947
vn 0.0364 0.5552 -0.8309
vn 0.0364 0.5552 0.8309
vn -0.0544 -0.8302 0.5547
vn -0.0128 -0.1951 -0.9807
vn -0.0128 -0.1951 0.9807
vn 0.0642 0.9788 0.1947
vn -0.0544 -0.8302 -0.5547
vn 0.0544 0.8302 -0.5547
vn 0.0128 0.1951 0.9807
vn -0.0642 -0.9788 0.1947
vn 0.0128 0.1951 -0.9807
vn 0.0544 0.8302 0.5547
vn 0.2674 0.7879 0.5547
vn -0.1085 -0.5457 0.8309
vn 0.1085 0.5457 -0.8309
vn -0.1623 -0.8160 0.5547
vn 0.1623 0.8160 -0.5547
vn -0.1914 -0.9620 0.1947
vn 0.1914 0.9620 -0.1947
vn -0.1914 -0.9620 -0.1947
vn 0.1914 0.9620 0.1947
vn -0.1623 -0.8160 -0.5547
vn 0.1623 0.8160 0.5547
vn -0.1085 -0.5457 -0.8309
vn 0.1085 0.5457 0.8309
vn -0.0381 -0.1917 -0.9807
vn -0.0381 -0.1917 0.9807
vn 0.0381 0.1917 0.9807
vn -0.4338 -0.8797 0.1947
vn -0.1788 -0.5269 -0.8309
vn 0.1788 0.5269 0.8309
vn -0.0628 -0.1851 -0.9807
vn -0.0628 -0.1851 0.9807
vn 0.0628 0.1851 0.9807
vn 0.0628 0.1851 -0.9807
vn -0.1788 -0.5269 0.8309
vn 0.1788 0.5269 -0.8309
vn -0.2674 -0.7879 0.5547
vn 0.2674 0.7879 -0.5547
vn -0.3153 -0.9288 0.1947
vn 0.3153 0.9288 -0.1947
vn -0.3153 -0.9288 -0.1947
vn 0.3153 0.9288 0.1947
vn -0.2674 -0.7879 -0.5547
vn 0.1086 0.1625 -0.9807
vn 0.4338 0.8797 -0.1947
vn -0.4338 -0.8797 -0.1947
vn 0.4338 0.8797 0.1947
vn -0.3680 -0.7462 -0.5547
vn 0.3680 0.7462 0.5547
vn -0.2461 -0.4990 -0.8309
vn 0.2461 0.4990 0.8309
vn -0.0865 -0.1753 -0.9807
vn -0.0865 -0.1753 0.9807
vn 0.0865 0.1753 0.9807
vn 0.0865 0.1753 -0.9807
vn -0.2461 -0.4990 0.8309
vn 0.2461 0.4990 -0.8309
vn -0.3680 -0.7462 0.5547
vn 0.3680 0.7462 -0.5547
vn 0.5486 0.6255 0.5547
vn -0.3091 -0.4626 0.8309
vn 0.3091 0.4626 -0.8309
vn -0.4622 -0.6918 0.5547
vn 0.4622 0.6918 -0.5547
vn -0.5449 -0.8156 0.1947
vn 0.5449 0.8156 -0.1947
vn -0.5449 -0.8156 -0.1947
vn 0.5449 0.8156 0.1947
vn -0.4622 -0.6918 -0.5547
vn 0.4622 0.6918 0.5547
vn -0.3091 -0.4626 -0.8309
vn 0.3091 0.4626 0.8309
vn -0.1086 -0.1625 -0.9807
vn -0.1086 -0.1625 0.9807
vn 0.1086 0.1625 0.9807
vn 0.7375 0.6467 -0.1947
vn -0.3669 -0.4183 -0.8309
vn 0.3669 0.4183 0.8309
vn -0.1289 -0.1470 -0.9807
vn -0.1289 -0.1470 0.9807
vn 0.1289 0.1470 0.9807
vn 0.1289 0.1470 -0.9807
vn -0.3669 -0.4183 0.8309
vn 0.3669 0.4183 -0.8309
vn -0.5486 -0.6255 0.5547
vn 0.5486 0.6255 -0.5547
vn -0.6467 -0.7375 0.1947
vn 0.6467 0.7375 -0.1947
vn -0.6467 -0.7375 -0.1947
vn 0.6467 0.7375 0.1947
vn -0.5486 -0.6255 -0.5547
vn -0.4626 -0.3091 0.8309
vn -0.7375 -0.6467 -0.1947
vn 0.7375 0.6467 0.1947
vn -0.6255 -0.5486 -0.5547
vn 0.6255 0.5486 0.5547
vn -0.4183 -0.3669 -0.8309
vn 0.4183 0.3669 0.8309
vn -0.1470 -0.1289 -0.9807
vn -0.1470 -0.1289 0.9807
vn 0.1470 0.1289 0.9807
vn 0.1470 0.1289 -0.9807
vn -0.4183 -0.3669 0.8309
vn 0.4183 0.3669 -0.8309
vn -0.6255 -0.5486 0.5547
vn 0.6255 0.5486 -0.5547
vn -0.7375 -0.6467 0.1947
vn -0.4990 -0.2461 -0.8309
vn 0.4626 0.3091 -0.8309
vn -0.6918 -0.4622 0.5547
vn 0.6918 0.4622 -0.5547
vn -0.8156 -0.5449 0.1947
vn 0.8156 0.5449 -0.1947
vn -0.8156 -0.5449 -0.1947
vn 0.8156 0.5449 0.1947
vn -0.6918 -0.4622 -0.5547
vn 0.6918 0.4622 0.5547
vn -0.4626 -0.3091 -0.8309
vn 0.4626 0.3091 0.8309
vn -0.1625 -0.1086 -0.9807
vn -0.1625 -0.1086 0.9807
vn 0.1625 0.1086 0.9807
vn 0.1625 0.1086 -0.9807
vn 0.9288 0.3153 -0.1947
vn 0.4990 0.2461 0.8309
vn -0.1753 -0.0865 -0.9807
vn -0.1753 -0.0865 0.9807
vn 0.1753 0.0865 0.9807
vn 0.1753 0.0865 -0.9807
vn -0.4990 -0.2461 0.8309
vn 0.4990 0.2461 -0.8309
vn -0.7462 -0.3680 0.5547
vn 0.7462 0.3680 -0.5547
vn -0.8797 -0.4338 0.1947
vn 0.8797 0.4338 -0.1947
vn -0.8797 -0.4338 -0.1947
vn 0.8797 0.4338 0.1947
vn -0.7462 -0.3680 -0.5547
vn 0.7462 0.3680 0.5547
vn -0.5457 -0.1085 0.8309
vn -0.9288 -0.3153 -0.1947
vn 0.9288 0.3153 0.1947
vn -0.7879 -0.2674 -0.5547
vn 0.7879 0.2674 0.5547
vn -0.5269 -0.1788 -0.8309
vn 0.5269 0.1788 0.8309
vn -0.1851 -0.0628 -0.9807
vn -0.1851 -0.0628 0.9807
vn 0.1851 0.0628 0.9807
vn 0.1851 0.0628 -0.9807
vn -0.5269 -0.1788 0.8309
vn 0.5269 0.1788 -0.8309
vn -0.7879 -0.2674 0.5547
vn 0.7879 0.2674 -0.5547
vn -0.9288 -0.3153 0.1947
vn -0.5552 -0.0364 -0.8309
vn 0.5457 0.1085 -0.8309
vn -0.8160 -0.1623 0.5547
vn 0.8160 0.1623 -0.5547
vn -0.9620 -0.1914 0.1947
vn 0.9620 0.1914 -0.1947
vn -0.9620 -0.1914 -0.1947
vn 0.9620 0.1914 0.1947
vn -0.8160 -0.1623 -0.5547
vn 0.8160 0.1623 0.5547
vn -0.5457 -0.1085 -0.8309
vn 0.5457 0.1085 0.8309
vn -0.1917 -0.0381 -0.9807
vn -0.1917 -0.0381 0.9807
vn 0.1917 0.0381 0.9807
vn 0.1917 0.0381 -0.9807
vn 0.1951 -0.0000 -0.9808
vn 0.5552 0.0364 0.8309
vn -0.1951 -0.0128 -0.9807
vn -0.1951 -0.0128 0.9807
vn 0.1951 0.0128 0.9807
vn 0.1951 0.0128 -0.9807
vn -0.5552 -0.0364 0.8309
vn 0.5552 0.0364 -0.8309
vn -0.8302 -0.0544 0.5547
vn 0.8302 0.0544 -0.5547
vn -0.9788 -0.0642 0.1947
vn 0.9788 0.0642 -0.1947
vn -0.9788 -0.0642 -0.1947
vn 0.9788 0.0642 0.1947
vn -0.8302 -0.0544 -0.5547
vn 0.8302 0.0544 0.5547
vn -0.0000 -1.0000 -0.0000
vn -0.5556 -0.0000 0.8315
vn 0.5556 -0.0000 -0.8315
vn -0.8315 -0.0000 0.5556
vn 0.8315 -0.0000 -0.5556
vn -0.9808 -0.0000 0.1951
vn 0.9808 -0.0000 -0.1951
vn -0.9808 -0.0000 -0.1951
vn 0.9808 -0.0000 0.1951
vn -0.8315 -0.0000 -0.5556
vn 0.8315 -0.0000 0.5556
vn -0.5556 -0.0000 -0.8315
vn 0.5556 -0.0000 0.8315
vn -0.1951 -0.0000 -0.9808
vn -0.1951 -0.0000 0.9808
vn 0.1951 -0.0000 0.9808
vt 0.207380 0.780739
vt 0.207380 0.745931
vt 0.211731 0.745931
vt 0.211731 0.780739
vt 0.216082 0.745931
vt 0.216082 0.780739
vt 0.220433 0.745931
vt 0.220433 0.780739
vt 0.224784 0.745931
vt 0.224784 0.780739
vt 0.229135 0.745931
vt 0.229135 0.780739
vt 0.233486 0.745931
vt 0.233486 0.780739
vt 0.237837 0.745931
vt 0.237837 0.780739
vt 0.242188 0.745931
vt 0.242188 0.780739
vt 0.246538 0.745931
vt 0.246538 0.780739
vt 0.250889 0.745931
vt 0.250889 0.780739
vt 0.255240 0.745931
vt 0.255240 0.780739
vt 0.259591 0.745931
vt 0.259591 0.780739
vt 0.263942 0.745931
vt 0.263942 0.780739
vt 0.268293 0.745931
vt 0.268293 0.780739
vt 0.253198 0.782707
vt 0.259591 0.781435
vt 0.265985 0.782707
vt 0.271405 0.786328
vt 0.275027 0.791749
vt 0.276299 0.798142
vt 0.275027 0.804536
vt 0.271405 0.809956
vt 0.265985 0.813578
vt 0.259591 0.814850
vt 0.253198 0.813578
vt 0.247777 0.809956
vt 0.244155 0.804536
vt 0.242884 0.798142
vt 0.244155 0.791749
vt 0.247777 0.786328
vt 0.272644 0.745931
vt 0.272644 0.780739
vt 0.276995 0.745931
vt 0.276995 0.780739
vt 0.224784 0.781435
vt 0.218390 0.782707
vt 0.212970 0.786328
vt 0.209348 0.791749
vt 0.208076 0.798142
vt 0.209348 0.804536
vt 0.212970 0.809956
vt 0.218390 0.813578
vt 0.224784 0.814850
vt 0.231178 0.813578
vt 0.236598 0.809956
vt 0.240220 0.804536
vt 0.241491 0.798142
vt 0.240220 0.791749
vt 0.236598 0.786328
vt 0.231178 0.782707
s 0
usemtl caizhi.006
f 1/1/1 2/2/1 4/3/1 3/4/1
f 3/4/2 4/3/2 6/5/2 5/6/2
f 5/6/3 6/5/3 8/7/3 7/8/3
f 7/8/4 8/7/4 10/9/4 9/10/4
f 9/10/5 10/9/5 12/11/5 11/12/5
f 11/12/6 12/11/6 14/13/6 13/14/6
f 13/14/7 14/13/7 16/15/7 15/16/7
f 15/16/8 16/15/8 18/17/8 17/18/8
f 17/18/9 18/17/9 20/19/9 19/20/9
f 19/20/10 20/19/10 22/21/10 21/22/10
f 21/22/11 22/21/11 24/23/11 23/24/11
f 23/24/12 24/23/12 26/25/12 25/26/12
f 25/26/13 26/25/13 28/27/13 27/28/13
f 27/28/14 28/27/14 30/29/14 29/30/14
f 4/31/15 2/32/15 32/33/15 30/34/15 28/35/15 26/36/15 24/37/15 22/38/15 20/39/15 18/40/15 16/41/15 14/42/15 12/43/15 10/44/15 8/45/15 6/46/15
f 29/30/16 30/29/16 32/47/16 31/48/16
f 31/48/17 32/47/17 2/49/17 1/50/17
f 3/4/18 5/6/18 35/6/18 34/4/18
f 41/18/19 42/20/19 58/20/19 57/18/19
f 13/14/20 15/16/20 40/16/20 39/14/20
f 23/24/21 25/26/21 45/26/21 44/24/21
f 9/10/22 11/12/22 38/12/22 37/10/22
f 19/20/23 21/22/23 43/22/23 42/20/23
f 29/30/24 31/48/24 48/48/24 47/30/24
f 5/6/25 7/8/25 36/8/25 35/6/25
f 15/16/26 17/18/26 41/18/26 40/16/26
f 1/1/27 3/4/27 34/4/27 33/1/27
f 25/26/28 27/28/28 46/28/28 45/26/28
f 11/12/29 13/14/29 39/14/29 38/12/29
f 21/22/30 23/24/30 44/24/30 43/22/30
f 31/48/31 1/50/31 33/50/31 48/48/31
f 7/8/32 9/10/32 37/10/32 36/8/32
f 17/18/33 19/20/33 42/20/33 41/18/33
f 27/28/34 29/30/34 47/30/34 46/28/34
f 62/28/35 63/30/35 79/30/35 78/28/35
f 34/4/36 35/6/36 51/6/36 50/4/36
f 42/20/37 43/22/37 59/22/37 58/20/37
f 35/6/38 36/8/38 52/8/38 51/6/38
f 43/22/39 44/24/39 60/24/39 59/22/39
f 36/8/40 37/10/40 53/10/40 52/8/40
f 44/24/41 45/26/41 61/26/41 60/24/41
f 37/10/42 38/12/42 54/12/42 53/10/42
f 45/26/43 46/28/43 62/28/43 61/26/43
f 38/12/44 39/14/44 55/14/44 54/12/44
f 46/28/45 47/30/45 63/30/45 62/28/45
f 39/14/46 40/16/46 56/16/46 55/14/46
f 47/30/47 48/48/47 64/48/47 63/30/47
f 40/16/48 41/18/48 57/18/48 56/16/48
f 33/1/49 34/4/49 50/4/49 49/1/49
f 48/48/50 33/50/50 49/50/50 64/48/50
f 68/8/51 69/10/51 85/10/51 84/8/51
f 55/14/52 56/16/52 72/16/52 71/14/52
f 63/30/53 64/48/53 80/48/53 79/30/53
f 56/16/54 57/18/54 73/18/54 72/16/54
f 49/1/55 50/4/55 66/4/55 65/1/55
f 64/48/56 49/50/56 65/50/56 80/48/56
f 57/18/57 58/20/57 74/20/57 73/18/57
f 50/4/58 51/6/58 67/6/58 66/4/58
f 58/20/59 59/22/59 75/22/59 74/20/59
f 51/6/60 52/8/60 68/8/60 67/6/60
f 59/22/61 60/24/61 76/24/61 75/22/61
f 52/8/62 53/10/62 69/10/62 68/8/62
f 60/24/63 61/26/63 77/26/63 76/24/63
f 53/10/64 54/12/64 70/12/64 69/10/64
f 61/26/65 62/28/65 78/28/65 77/26/65
f 54/12/66 55/14/66 71/14/66 70/12/66
f 89/18/67 90/20/67 106/20/67 105/18/67
f 76/24/68 77/26/68 93/26/68 92/24/68
f 69/10/69 70/12/69 86/12/69 85/10/69
f 77/26/70 78/28/70 94/28/70 93/26/70
f 70/12/71 71/14/71 87/14/71 86/12/71
f 78/28/72 79/30/72 95/30/72 94/28/72
f 71/14/73 72/16/73 88/16/73 87/14/73
f 79/30/74 80/48/74 96/48/74 95/30/74
f 72/16/75 73/18/75 89/18/75 88/16/75
f 65/1/76 66/4/76 82/4/76 81/1/76
f 80/48/77 65/50/77 81/50/77 96/48/77
f 73/18/78 74/20/78 90/20/78 89/18/78
f 66/4/79 67/6/79 83/6/79 82/4/79
f 74/20/80 75/22/80 91/22/80 90/20/80
f 67/6/81 68/8/81 84/8/81 83/6/81
f 75/22/82 76/24/82 92/24/82 91/22/82
f 110/28/83 111/30/83 127/30/83 126/28/83
f 82/4/84 83/6/84 99/6/84 98/4/84
f 90/20/85 91/22/85 107/22/85 106/20/85
f 83/6/86 84/8/86 100/8/86 99/6/86
f 91/22/87 92/24/87 108/24/87 107/22/87
f 84/8/88 85/10/88 101/10/88 100/8/88
f 92/24/89 93/26/89 109/26/89 108/24/89
f 85/10/90 86/12/90 102/12/90 101/10/90
f 93/26/91 94/28/91 110/28/91 109/26/91
f 86/12/92 87/14/92 103/14/92 102/12/92
f 94/28/93 95/30/93 111/30/93 110/28/93
f 87/14/94 88/16/94 104/16/94 103/14/94
f 95/30/95 96/48/95 112/48/95 111/30/95
f 88/16/96 89/18/96 105/18/96 104/16/96
f 81/1/97 82/4/97 98/4/97 97/1/97
f 96/48/98 81/50/98 97/50/98 112/48/98
f 124/24/99 125/26/99 141/26/99 140/24/99
f 103/14/100 104/16/100 120/16/100 119/14/100
f 111/30/101 112/48/101 128/48/101 127/30/101
f 104/16/102 105/18/102 121/18/102 120/16/102
f 97/1/103 98/4/103 114/4/103 113/1/103
f 112/48/104 97/50/104 113/50/104 128/48/104
f 105/18/105 106/20/105 122/20/105 121/18/105
f 98/4/106 99/6/106 115/6/106 114/4/106
f 106/20/107 107/22/107 123/22/107 122/20/107
f 99/6/108 100/8/108 116/8/108 115/6/108
f 107/22/109 108/24/109 124/24/109 123/22/109
f 100/8/110 101/10/110 117/10/110 116/8/110
f 108/24/111 109/26/111 125/26/111 124/24/111
f 101/10/112 102/12/112 118/12/112 117/10/112
f 109/26/113 110/28/113 126/28/113 125/26/113
f 102/12/114 103/14/114 119/14/114 118/12/114
f 130/4/115 131/6/115 147/6/115 146/4/115
f 117/10/116 118/12/116 134/12/116 133/10/116
f 125/26/117 126/28/117 142/28/117 141/26/117
f 118/12/118 119/14/118 135/14/118 134/12/118
f 126/28/119 127/30/119 143/30/119 142/28/119
f 119/14/120 120/16/120 136/16/120 135/14/120
f 127/30/121 128/48/121 144/48/121 143/30/121
f 120/16/122 121/18/122 137/18/122 136/16/122
f 113/1/123 114/4/123 130/4/123 129/1/123
f 128/48/124 113/50/124 129/50/124 144/48/124
f 121/18/125 122/20/125 138/20/125 137/18/125
f 114/4/126 115/6/126 131/6/126 130/4/126
f 122/20/127 123/22/127 139/22/127 138/20/127
f 115/6/128 116/8/128 132/8/128 131/6/128
f 123/22/129 124/24/129 140/24/129 139/22/129
f 116/8/130 117/10/130 133/10/130 132/8/130
f 151/14/131 152/16/131 168/16/131 167/14/131
f 138/20/132 139/22/132 155/22/132 154/20/132
f 131/6/133 132/8/133 148/8/133 147/6/133
f 139/22/134 140/24/134 156/24/134 155/22/134
f 132/8/135 133/10/135 149/10/135 148/8/135
f 140/24/136 141/26/136 157/26/136 156/24/136
f 133/10/137 134/12/137 150/12/137 149/10/137
f 141/26/138 142/28/138 158/28/138 157/26/138
f 134/12/139 135/14/139 151/14/139 150/12/139
f 142/28/140 143/30/140 159/30/140 158/28/140
f 135/14/141 136/16/141 152/16/141 151/14/141
f 143/30/142 144/48/142 160/48/142 159/30/142
f 136/16/143 137/18/143 153/18/143 152/16/143
f 129/1/144 130/4/144 146/4/144 145/1/144
f 144/48/145 129/50/145 145/50/145 160/48/145
f 137/18/146 138/20/146 154/20/146 153/18/146
f 172/24/147 173/26/147 189/26/147 188/24/147
f 159/30/148 160/48/148 176/48/148 175/30/148
f 152/16/149 153/18/149 169/18/149 168/16/149
f 145/1/150 146/4/150 162/4/150 161/1/150
f 160/48/151 145/50/151 161/50/151 176/48/151
f 153/18/152 154/20/152 170/20/152 169/18/152
f 146/4/153 147/6/153 163/6/153 162/4/153
f 154/20/154 155/22/154 171/22/154 170/20/154
f 147/6/155 148/8/155 164/8/155 163/6/155
f 155/22/156 156/24/156 172/24/156 171/22/156
f 148/8/157 149/10/157 165/10/157 164/8/157
f 156/24/158 157/26/158 173/26/158 172/24/158
f 149/10/159 150/12/159 166/12/159 165/10/159
f 157/26/160 158/28/160 174/28/160 173/26/160
f 150/12/161 151/14/161 167/14/161 166/12/161
f 158/28/162 159/30/162 175/30/162 174/28/162
f 178/4/163 179/6/163 195/6/163 194/4/163
f 165/10/164 166/12/164 182/12/164 181/10/164
f 173/26/165 174/28/165 190/28/165 189/26/165
f 166/12/166 167/14/166 183/14/166 182/12/166
f 174/28/167 175/30/167 191/30/167 190/28/167
f 167/14/168 168/16/168 184/16/168 183/14/168
f 175/30/169 176/48/169 192/48/169 191/30/169
f 168/16/170 169/18/170 185/18/170 184/16/170
f 161/1/171 162/4/171 178/4/171 177/1/171
f 176/48/172 161/50/172 177/50/172 192/48/172
f 169/18/173 170/20/173 186/20/173 185/18/173
f 162/4/174 163/6/174 179/6/174 178/4/174
f 170/20/175 171/22/175 187/22/175 186/20/175
f 163/6/176 164/8/176 180/8/176 179/6/176
f 171/22/177 172/24/177 188/24/177 187/22/177
f 164/8/178 165/10/178 181/10/178 180/8/178
f 199/14/179 200/16/179 216/16/179 215/14/179
f 186/20/180 187/22/180 203/22/180 202/20/180
f 179/6/181 180/8/181 196/8/181 195/6/181
f 187/22/182 188/24/182 204/24/182 203/22/182
f 180/8/183 181/10/183 197/10/183 196/8/183
f 188/24/184 189/26/184 205/26/184 204/24/184
f 181/10/185 182/12/185 198/12/185 197/10/185
f 189/26/186 190/28/186 206/28/186 205/26/186
f 182/12/187 183/14/187 199/14/187 198/12/187
f 190/28/188 191/30/188 207/30/188 206/28/188
f 183/14/189 184/16/189 200/16/189 199/14/189
f 191/30/190 192/48/190 208/48/190 207/30/190
f 184/16/191 185/18/191 201/18/191 200/16/191
f 177/1/192 178/4/192 194/4/192 193/1/192
f 192/48/193 177/50/193 193/50/193 208/48/193
f 185/18/194 186/20/194 202/20/194 201/18/194
f 217/18/195 218/20/195 234/20/195 233/18/195
f 207/30/196 208/48/196 224/48/196 223/30/196
f 200/16/197 201/18/197 217/18/197 216/16/197
f 193/1/198 194/4/198 210/4/198 209/1/198
f 208/48/199 193/50/199 209/50/199 224/48/199
f 201/18/200 202/20/200 218/20/200 217/18/200
f 194/4/201 195/6/201 211/6/201 210/4/201
f 202/20/202 203/22/202 219/22/202 218/20/202
f 195/6/203 196/8/203 212/8/203 211/6/203
f 203/22/204 204/24/204 220/24/204 219/22/204
f 196/8/205 197/10/205 213/10/205 212/8/205
f 204/24/206 205/26/206 221/26/206 220/24/206
f 197/10/207 198/12/207 214/12/207 213/10/207
f 205/26/208 206/28/208 222/28/208 221/26/208
f 198/12/209 199/14/209 215/14/209 214/12/209
f 206/28/210 207/30/210 223/30/210 222/28/210
f 225/51/211 226/52/211 227/53/211 228/54/211 229/55/211 230/56/211 231/57/211 232/58/211 233/59/211 234/60/211 235/61/211 236/62/211 237/63/211 238/64/211 239/65/211 240/66/211
f 210/4/212 211/6/212 227/6/212 226/4/212
f 218/20/213 219/22/213 235/22/213 234/20/213
f 211/6/214 212/8/214 228/8/214 227/6/214
f 219/22/215 220/24/215 236/24/215 235/22/215
f 212/8/216 213/10/216 229/10/216 228/8/216
f 220/24/217 221/26/217 237/26/217 236/24/217
f 213/10/218 214/12/218 230/12/218 229/10/218
f 221/26/219 222/28/219 238/28/219 237/26/219
f 214/12/220 215/14/220 231/14/220 230/12/220
f 222/28/221 223/30/221 239/30/221 238/28/221
f 215/14/222 216/16/222 232/16/222 231/14/222
f 223/30/223 224/48/223 240/48/223 239/30/223
f 216/16/224 217/18/224 233/18/224 232/16/224
f 209/1/225 210/4/225 226/4/225 225/1/225
f 224/48/226 209/50/226 225/50/226 240/48/226
