# Blender 4.0.2
# www.blender.org
mtllib crl.mtl
o 1.003
v 0.093750 0.224506 0.550000
v 0.093750 0.224506 -0.549999
v -0.093750 0.224506 -0.549999
v -0.093750 0.224506 0.550000
v -0.093750 0.205756 -0.549999
v -0.093750 0.205756 0.550000
v 0.093750 0.205756 0.550000
v 0.093750 0.205756 -0.549999
v 0.093750 0.224506 0.550000
v 0.093750 0.224506 -0.549999
v -0.093750 0.224506 -0.549999
v -0.093750 0.224506 0.550000
v -0.073327 0.205756 -0.549999
v -0.073327 0.205756 0.550000
v 0.073327 0.205756 0.550000
v 0.073327 0.205756 -0.549999
v -0.003885 -0.000000 -0.550000
v -0.003885 -0.000000 0.550000
v 0.003885 -0.000000 0.550000
v 0.003885 -0.000000 -0.550000
v -0.014489 0.025693 -0.550000
v 0.014489 0.025693 -0.550000
v 0.014489 0.025693 0.550000
v -0.014489 0.025693 0.550000
vn -1.0000 -0.0000 -0.0000
vn 1.0000 -0.0000 -0.0000
vn -0.0000 1.0000 -0.0000
vn -0.0000 -0.0000 1.0000
vn -0.0000 -0.0000 -1.0000
vn 0.9244 -0.3815 -0.0000
vn -0.9244 -0.3815 -0.0000
vn -0.9505 -0.3106 -0.0000
vn 0.9505 -0.3106 -0.0000
vn -0.0000 -1.0000 -0.0000
vt 0.041326 0.697904
vt 0.042348 0.697904
vt 0.042348 0.689501
vt 0.041326 0.689501
vt 0.040304 0.697904
vt 0.040304 0.689501
vt 0.059154 0.649592
vt 0.059154 0.725219
vt 0.050751 0.725219
vt 0.050751 0.649592
vt 0.080830 0.649592
vt 0.080830 0.725219
vt 0.079808 0.725219
vt 0.079808 0.716981
vt 0.079808 0.657830
vt 0.079808 0.649592
vt 0.069992 0.725219
vt 0.068970 0.725219
vt 0.068970 0.716981
vt 0.068970 0.657830
vt 0.068970 0.649592
vt 0.069992 0.649592
vt 0.713430 0.703981
vt 0.685082 0.699256
vt 0.681932 0.672483
vt 0.707500 0.697500
vt 0.887398 0.889687
vt 0.887398 0.965313
vt 0.877582 0.933669
vt 0.877582 0.921331
vt 0.841536 0.937998
vt 0.849938 0.937998
vt 0.849938 0.965313
vt 0.841536 0.965313
vt 0.858341 0.965313
vt 0.849938 0.932182
vt 0.858341 0.932182
vt 0.876560 0.889687
vt 0.876560 0.965313
vt 0.866744 0.933669
vt 0.866744 0.921331
vt 0.692761 0.629916
vt 0.692761 0.760660
vt 0.644003 0.760660
vt 0.644003 0.629916
vt 0.065848 0.654855
vt 0.043426 0.692641
s 0
usemtl 1.003
f 6/1/1 4/2/1 3/3/1 5/4/1
f 8/5/2 2/1/2 1/4/2 7/6/2
f 12/7/3 9/8/3 10/9/3 11/10/3
f 9/11/4 12/12/4 6/13/4 14/14/4 15/15/4 7/16/4
f 10/17/5 8/18/5 16/19/5 13/20/5 5/21/5 11/22/5
f 21/23/5 22/23/5 20/23/5 17/23/5
f 22/24/6 23/24/6 19/24/6 20/24/6
f 24/25/7 21/25/7 17/25/7 18/25/7
f 23/26/4 24/26/4 18/26/4 19/26/4
f 15/27/4 14/28/4 24/29/4 23/30/4
f 14/31/8 13/32/8 21/33/8 24/34/8
f 16/35/9 15/33/9 23/36/9 22/37/9
f 13/38/5 16/39/5 22/40/5 21/41/5
f 18/42/10 17/43/10 20/44/10 19/45/10
f 6/13/10 5/21/10 13/46/10 14/14/10
f 14/14/10 13/46/10 16/47/10 15/15/10
f 15/15/10 16/47/10 8/5/10 7/16/10
